SplineFontDB: 3.2
FontName: TF2C
FullName: TF2C
FamilyName: TF2C
Weight: Regular
Copyright: 
Version: 1.0
ItalicAngle: 0
UnderlinePosition: -100
UnderlineWidth: 50
Ascent: 750
Descent: 250
InvalidEm: 0
sfntRevision: 0x00010000
LayerCount: 2
Layer: 0 1 "Arri+AOgA-re" 1
Layer: 1 1 "Avant" 0
XUID: [1021 514 -2062894156 31677]
StyleMap: 0x0040
FSType: 4
OS2Version: 3
OS2_WeightWidthSlopeOnly: 0
OS2_UseTypoMetrics: 0
CreationTime: 1262973209
ModificationTime: 1645549453
PfmFamily: 81
TTFWeight: 400
TTFWidth: 5
LineGap: 0
VLineGap: 0
Panose: 0 0 0 0 0 0 0 0 0 0
OS2TypoAscent: 750
OS2TypoAOffset: 0
OS2TypoDescent: -250
OS2TypoDOffset: 0
OS2TypoLinegap: 0
OS2WinAscent: 739
OS2WinAOffset: 0
OS2WinDescent: 104
OS2WinDOffset: 0
HheadAscent: 750
HheadAOffset: 0
HheadDescent: -250
HheadDOffset: 0
OS2SubXSize: 700
OS2SubYSize: 650
OS2SubXOff: 0
OS2SubYOff: 140
OS2SupXSize: 700
OS2SupYSize: 650
OS2SupXOff: 0
OS2SupYOff: 477
OS2StrikeYSize: 50
OS2StrikeYPos: 250
OS2CapHeight: 695
OS2XHeight: 688
OS2Vendor: 'pyrs'
OS2CodePages: 00000001.00000000
OS2UnicodeRanges: 80000027.0000004a.00000000.00000000
Lookup: 6 0 0 "mark-chain" { "mark-chain-1"  } ['ccmp' ('DFLT' <'dflt' > 'cyrl' <'dflt' > 'grek' <'dflt' > 'latn' <'AZE ' 'KAZ ' 'TRK ' 'dflt' > ) ]
Lookup: 1 0 0 "turkish" { "turkish-1"  } ['locl' ('latn' <'TRK ' > 'latn' <'AZE ' > 'latn' <'KAZ ' > ) ]
Lookup: 1 0 0 "mark-downsizer" { "mark-downsizer-1" ("mark") } []
Lookup: 260 0 0 "mark" { "mark-1"  } ['mark' ('DFLT' <'dflt' > 'cyrl' <'dflt' > 'grek' <'dflt' > 'latn' <'AZE ' 'KAZ ' 'TRK ' 'dflt' > ) ]
Lookup: 258 0 0 "kern" { "kern" [150,15,0] } ['kern' ('latn' <'dflt' > ) ]
MarkAttachClasses: 2
"mark-downsizers" 93 gravecomb acutecomb uni0302 tildecomb uni0304 uni0306 uni0307 uni0308 uni030A uni030B uni030C
DEI: 91125
ChainSub2: coverage "mark-chain-1" 0 0 0 1
 1 0 1

StartChar: exclam
Encoding: 33 33 1
Width: 180
GlyphClass: 2
Flags: W
LayerCount: 2
Fore
SplineSet
65 105 m 0,0,1
 79 107 79 107 91.5 98 c 128,-1,2
 104 89 104 89 107 72 c 0,3,4
 110 56 110 56 102 43 c 128,-1,5
 94 30 94 30 80 27 c 0,6,7
 66 25 66 25 53.5 34 c 128,-1,8
 41 43 41 43 38 60 c 0,9,10
 35 76 35 76 43 89 c 128,-1,11
 51 102 51 102 65 105 c 0,0,1
88 156 m 1,12,-1
 50 162 l 1,13,-1
 61 700 l 1,14,-1
 151 692 l 1,15,-1
 88 156 l 1,12,-1
EndSplineSet
EndChar

StartChar: quotedbl
Encoding: 34 34 2
Width: 130
GlyphClass: 2
Flags: W
LayerCount: 2
Fore
SplineSet
54 731 m 1,0,-1
 93 724 l 1,1,-1
 81 649 l 1,2,-1
 60 649 l 1,3,-1
 54 731 l 1,0,-1
18 630 m 1,4,-1
 1 722 l 1,5,-1
 41 723 l 1,6,-1
 39 630 l 1,7,-1
 18 630 l 1,4,-1
EndSplineSet
EndChar

StartChar: numbersign
Encoding: 35 35 3
Width: 320
GlyphClass: 2
Flags: W
LayerCount: 2
Fore
SplineSet
178 366 m 1,0,-1
 181 405 l 1,1,-1
 104 399 l 1,2,-1
 104 365 l 1,3,-1
 178 366 l 1,0,-1
264 411 m 1,4,-1
 214 407 l 1,5,-1
 207 366 l 1,6,-1
 250 364 l 1,7,-1
 246 337 l 1,8,-1
 201 335 l 1,9,-1
 194 255 l 1,10,-1
 167 256 l 1,11,-1
 175 334 l 1,12,-1
 104 330 l 1,13,-1
 104 250 l 1,14,-1
 80 248 l 1,15,-1
 76 329 l 1,16,-1
 14 326 l 1,17,-1
 16 362 l 1,18,-1
 74 362 l 1,19,-1
 72 400 l 1,20,-1
 0 393 l 1,21,-1
 0 429 l 1,22,-1
 71 431 l 1,23,-1
 67 506 l 1,24,-1
 99 503 l 1,25,-1
 99 430 l 1,26,-1
 183 431 l 1,27,-1
 187 487 l 1,28,-1
 225 482 l 1,29,-1
 217 431 l 1,30,-1
 268 432 l 1,31,-1
 264 411 l 1,4,-1
EndSplineSet
EndChar

StartChar: dollar
Encoding: 36 36 4
Width: 765
GlyphClass: 2
Flags: W
LayerCount: 2
Fore
SplineSet
384 755 m 0,0,1
 461 755 461 755 529.5 724.5 c 128,-1,2
 598 694 598 694 650 642 c 128,-1,3
 702 590 702 590 732 520 c 128,-1,4
 762 450 762 450 762 371 c 0,5,6
 762 294 762 294 732 225.5 c 128,-1,7
 702 157 702 157 650 105 c 128,-1,8
 598 53 598 53 529.5 23 c 128,-1,9
 461 -7 461 -7 384 -7 c 0,10,11
 368 -7 368 -7 357.5 -6.5 c 128,-1,12
 347 -6 347 -6 336 -4 c 1,13,-1
 455 285 l 1,14,15
 501 299 501 299 537.5 331 c 128,-1,16
 574 363 574 363 589 414 c 1,17,18
 608 461 608 461 599 508.5 c 128,-1,19
 590 556 590 556 561 592 c 1,20,-1
 507 443 l 1,21,-1
 387 419 l 1,22,-1
 306 509 l 1,23,-1
 354 659 l 1,24,25
 310 648 310 648 274 617 c 128,-1,26
 238 586 238 586 224 535 c 1,27,28
 206 488 206 488 216 437.5 c 128,-1,29
 226 387 226 387 258 352 c 1,30,-1
 167 59 l 1,31,32
 91 110 91 110 45.5 192 c 128,-1,33
 0 274 0 274 0 371 c 0,34,35
 0 450 0 450 30.5 520 c 128,-1,36
 61 590 61 590 113 642 c 128,-1,37
 165 694 165 694 235 724.5 c 128,-1,38
 305 755 305 755 384 755 c 0,0,1
EndSplineSet
EndChar

StartChar: percent
Encoding: 37 37 5
Width: 380
GlyphClass: 2
Flags: W
LayerCount: 2
Fore
SplineSet
295 605 m 1,0,-1
 58 74 l 1,1,-1
 1 102 l 1,2,-1
 250 623 l 1,3,-1
 295 605 l 1,0,-1
94 547 m 0,4,5
 76 549 76 549 60.5 540 c 128,-1,6
 45 531 45 531 38 519.5 c 128,-1,7
 31 508 31 508 36 498 c 128,-1,8
 41 488 41 488 64 488 c 0,9,10
 80 486 80 486 94 494.5 c 128,-1,11
 108 503 108 503 114 514 c 128,-1,12
 120 525 120 525 116 534.5 c 128,-1,13
 112 544 112 544 94 547 c 0,4,5
71 456 m 0,14,15
 44 455 44 455 27.5 464.5 c 128,-1,16
 11 474 11 474 5.5 488.5 c 128,-1,17
 0 503 0 503 4 520.5 c 128,-1,18
 8 538 8 538 20.5 553.5 c 128,-1,19
 33 569 33 569 53.5 578.5 c 128,-1,20
 74 588 74 588 100 588 c 0,21,22
 125 588 125 588 136.5 567.5 c 128,-1,23
 148 547 148 547 144.5 522.5 c 128,-1,24
 141 498 141 498 123.5 477.5 c 128,-1,25
 106 457 106 457 71 456 c 0,14,15
264 219 m 0,26,27
 282 219 282 219 292 233.5 c 128,-1,28
 302 248 302 248 304.5 265.5 c 128,-1,29
 307 283 307 283 301 296.5 c 128,-1,30
 295 310 295 310 281 309 c 0,31,32
 264 307 264 307 252.5 294 c 128,-1,33
 241 281 241 281 237 264.5 c 128,-1,34
 233 248 233 248 239 234 c 128,-1,35
 245 220 245 220 264 219 c 0,26,27
281 341 m 0,36,37
 310 341 310 341 322.5 316.5 c 128,-1,38
 335 292 335 292 332.5 263 c 128,-1,39
 330 234 330 234 311.5 209 c 128,-1,40
 293 184 293 184 260 184 c 128,-1,41
 227 184 227 184 215 209 c 128,-1,42
 203 234 203 234 207.5 263.5 c 128,-1,43
 212 293 212 293 231 317 c 128,-1,44
 250 341 250 341 281 341 c 0,36,37
EndSplineSet
EndChar

StartChar: ampersand
Encoding: 38 38 6
Width: 465
GlyphClass: 2
Flags: W
LayerCount: 2
Fore
SplineSet
395 165 m 1,0,-1
 345 103 l 1,1,2
 309.055811866 126.136488914 309.055811866 126.136488914 276.354814187 150.979920172 c 1,3,4
 270.934357596 143.618196384 270.934357596 143.618196384 264.5 137 c 0,5,6
 247 119 247 119 223 109 c 128,-1,7
 199 99 199 99 165 99 c 0,8,9
 125 99 125 99 98 107.5 c 128,-1,10
 71 116 71 116 54.5 130.5 c 128,-1,11
 38 145 38 145 31 165 c 128,-1,12
 24 185 24 185 24 212 c 0,13,14
 24 227 24 227 33.5 250.5 c 128,-1,15
 43 274 43 274 57.5 301 c 0,16,17
 71.3171999685 326.728579252 71.3171999685 326.728579252 87.4044952399 353.365196625 c 0,18,19
 86.1917802603 355.428572405 86.1917802603 355.428572405 85 357.5 c 0,20,21
 64 394 64 394 51 434 c 128,-1,22
 38 474 38 474 39 516 c 0,23,24
 39 546 39 546 46 561.5 c 128,-1,25
 53 577 53 577 62.5 583.5 c 128,-1,26
 72 590 72 590 80 591 c 128,-1,27
 88 592 88 592 90 592 c 0,28,29
 91 592 91 592 104 589.5 c 128,-1,30
 117 587 117 587 135 577.5 c 128,-1,31
 153 568 153 568 170 554 c 128,-1,32
 187 540 187 540 198 517 c 0,33,34
 205 501 205 501 199.5 480 c 128,-1,35
 194 459 194 459 181.5 435.5 c 128,-1,36
 169 412 169 412 152 386 c 0,37,38
 143.866174602 373.560031745 143.866174602 373.560031745 135.96127348 360.547752801 c 1,39,40
 148.097906736 343.241709094 148.097906736 343.241709094 162.5 325.5 c 0,41,42
 197 283 197 283 236.5 248 c 0,43,44
 252.79295771 233.563202029 252.79295771 233.563202029 269.511264677 221.083010638 c 1,45,46
 276.558169883 255.850233874 276.558169883 255.850233874 270 313 c 1,47,-1
 191 311 l 1,48,-1
 187 356 l 1,49,-1
 317 355 l 1,50,51
 322 283 322 283 308 226 c 0,52,53
 304.731315473 212.925261893 304.731315473 212.925261893 300.275486665 199.998916821 c 1,54,55
 309.081378674 194.49018098 309.081378674 194.49018098 318 189.5 c 0,56,57
 360 166 360 166 395 165 c 1,0,-1
112.838790177 396.64031704 m 1,58,59
 116.512477825 403.147727467 116.512477825 403.147727467 120 409.5 c 0,60,61
 134 435 134 435 143.5 455 c 128,-1,62
 153 475 153 475 153 486 c 0,63,64
 153 502 153 502 146 514.5 c 128,-1,65
 139 527 139 527 130.5 533.5 c 128,-1,66
 122 540 122 540 111 540 c 128,-1,67
 100 540 100 540 91 531 c 0,68,69
 75 515 75 515 80 481.5 c 128,-1,70
 85 448 85 448 106.5 408 c 0,71,72
 109.539486773 402.345140888 109.539486773 402.345140888 112.838790177 396.64031704 c 1,58,59
111.020394412 316.746913922 m 1,73,74
 99.9080638508 295.3989903 99.9080638508 295.3989903 91 273.5 c 0,75,76
 79 244 79 244 77 212 c 1,77,78
 82 166 82 166 108 149.5 c 128,-1,79
 134 133 134 133 165 133 c 0,80,81
 182 133 182 133 203 138.5 c 128,-1,82
 224 144 224 144 242 162.5 c 0,83,84
 246.134857993 166.74971516 246.134857993 166.74971516 249.768413577 171.896497791 c 1,85,86
 218.245151522 197.585588229 218.245151522 197.585588229 190 225 c 0,87,88
 161 253 161 253 133.5 287 c 0,89,90
 121.657491376 301.641647026 121.657491376 301.641647026 111.020394412 316.746913922 c 1,73,74
EndSplineSet
EndChar

StartChar: quotesingle
Encoding: 39 39 7
Width: 129
GlyphClass: 2
Flags: W
LayerCount: 2
Fore
SplineSet
62 724 m 0,0,1
 78 710 78 710 83 693 c 0,2,3
 88 677 88 677 82.5 656 c 128,-1,4
 77 635 77 635 50 607 c 1,5,-1
 31 619 l 1,6,7
 51 634 51 634 56.5 644.5 c 128,-1,8
 62 655 62 655 61 662 c 1,9,10
 51 657 51 657 39.5 659 c 128,-1,11
 28 661 28 661 18 669 c 0,12,13
 5 680 5 680 2.5 696 c 128,-1,14
 0 712 0 712 10 723 c 128,-1,15
 20 734 20 734 34.5 734 c 128,-1,16
 49 734 49 734 62 724 c 0,0,1
EndSplineSet
EndChar

StartChar: parenleft
Encoding: 40 40 8
Width: 295
GlyphClass: 2
Flags: W
LayerCount: 2
Fore
SplineSet
209 53 m 1,0,-1
 164 1 l 1,1,2
 137 22 137 22 109 54 c 0,3,4
 87 81 87 81 62.5 121 c 128,-1,5
 38 161 38 161 18 218 c 0,6,7
 5 256 5 256 12.5 308 c 128,-1,8
 20 360 20 360 43.5 413.5 c 128,-1,9
 67 467 67 467 98.5 518.5 c 128,-1,10
 130 570 130 570 158 607.5 c 128,-1,11
 186 645 186 645 210.5 672 c 128,-1,12
 235 699 235 699 237 699 c 2,13,-1
 253 666 l 1,14,15
 204 604 204 604 165 542 c 0,16,17
 135 491 135 491 107.5 429 c 128,-1,18
 80 367 80 367 78 296 c 0,19,20
 79 236 79 236 100.5 192.5 c 128,-1,21
 122 149 122 149 146 117 c 0,22,23
 174 80 174 80 209 53 c 1,0,-1
EndSplineSet
EndChar

StartChar: parenright
Encoding: 41 41 9
Width: 290
GlyphClass: 2
Flags: W
LayerCount: 2
Fore
SplineSet
44 647 m 1,0,-1
 89 699 l 1,1,2
 116 678 116 678 144 646 c 0,3,4
 166 619 166 619 190.5 579 c 128,-1,5
 215 539 215 539 235 482 c 0,6,7
 248 444 248 444 240.5 392 c 128,-1,8
 233 340 233 340 209.5 286.5 c 128,-1,9
 186 233 186 233 154.5 181.5 c 128,-1,10
 123 130 123 130 95 92.5 c 128,-1,11
 67 55 67 55 42.5 28 c 128,-1,12
 18 1 18 1 16 1 c 2,13,-1
 0 34 l 1,14,15
 49 96 49 96 88 158 c 0,16,17
 118 209 118 209 145.5 271 c 128,-1,18
 173 333 173 333 175 404 c 0,19,20
 174 464 174 464 152.5 507.5 c 128,-1,21
 131 551 131 551 107 583 c 0,22,23
 79 620 79 620 44 647 c 1,0,-1
EndSplineSet
EndChar

StartChar: asterisk
Encoding: 42 42 10
Width: 265
GlyphClass: 2
Flags: W
LayerCount: 2
Fore
SplineSet
215 541 m 1,0,-1
 181 512 l 1,1,-1
 117 599 l 1,2,-1
 84 510 l 1,3,-1
 66 518 l 1,4,-1
 95 605 l 1,5,-1
 8 568 l 1,6,-1
 0 596 l 1,7,-1
 95 630 l 1,8,-1
 40 709 l 1,9,-1
 55 720 l 1,10,-1
 110 659 l 1,11,-1
 137 745 l 1,12,-1
 168 733 l 1,13,-1
 137 647 l 1,14,-1
 201 669 l 1,15,-1
 206 651 l 1,16,-1
 141 623 l 1,17,-1
 215 541 l 1,0,-1
EndSplineSet
EndChar

StartChar: plus
Encoding: 43 43 11
Width: 300
GlyphClass: 2
Flags: W
LayerCount: 2
Fore
SplineSet
250 362 m 1,0,-1
 154 360 l 1,1,-1
 153 217 l 1,2,-1
 119 216 l 1,3,-1
 117 360 l 1,4,-1
 0 358 l 1,5,-1
 -1 395 l 1,6,-1
 117 397 l 1,7,-1
 115 511 l 1,8,-1
 156 511 l 1,9,-1
 154 397 l 1,10,-1
 248 399 l 1,11,-1
 250 362 l 1,0,-1
EndSplineSet
EndChar

StartChar: comma
Encoding: 44 44 12
Width: 135
GlyphClass: 2
Flags: W
LayerCount: 2
Fore
SplineSet
82 52 m 0,0,1
 94 27 94 27 83 3 c 128,-1,2
 72 -21 72 -21 47 -50 c 1,3,-1
 26 -35 l 1,4,5
 40 -22 40 -22 53.5 -8 c 128,-1,6
 67 6 67 6 67 13 c 1,7,8
 48 4 48 4 28 18 c 0,9,10
 15 27 15 27 11 41 c 128,-1,11
 7 55 7 55 15 68 c 0,12,13
 25 79 25 79 39 80.5 c 128,-1,14
 53 82 53 82 67 73 c 0,15,16
 78 65 78 65 82 52 c 0,0,1
EndSplineSet
EndChar

StartChar: hyphen
Encoding: 45 45 13
Width: 280
GlyphClass: 2
Flags: W
LayerCount: 2
Fore
SplineSet
0 348 m 1,0,-1
 226 368 l 1,1,-1
 222 302 l 1,2,-1
 3 310 l 1,3,-1
 0 348 l 1,0,-1
EndSplineSet
EndChar

StartChar: period
Encoding: 46 46 14
Width: 141
GlyphClass: 2
Flags: W
LayerCount: 2
Fore
SplineSet
36 50 m 0,0,1
 23 59 23 59 19 73.5 c 128,-1,2
 15 88 15 88 23 101 c 0,3,4
 33 113 33 113 48 114 c 128,-1,5
 63 115 63 115 77 105 c 0,6,7
 90 96 90 96 94 81 c 128,-1,8
 98 66 98 66 89 54 c 128,-1,9
 80 42 80 42 65.5 41 c 128,-1,10
 51 40 51 40 36 50 c 0,0,1
EndSplineSet
EndChar

StartChar: slash
Encoding: 47 47 15
Width: 344
GlyphClass: 2
Flags: W
LayerCount: 2
Fore
SplineSet
225 665 m 5,0,-1
 298 653 l 5,1,-1
 40 62 l 5,2,-1
 0 75 l 5,3,-1
 225 665 l 5,0,-1
EndSplineSet
EndChar

StartChar: zero
Encoding: 48 48 16
Width: 529
GlyphClass: 2
Flags: W
LayerCount: 2
Fore
SplineSet
403 303 m 0,0,1
 408 364 408 364 398 418.5 c 128,-1,2
 388 473 388 473 366.5 513.5 c 128,-1,3
 345 554 345 554 311.5 578 c 128,-1,4
 278 602 278 602 237 604 c 0,5,6
 198 607 198 607 167 590 c 0,7,8
 140 573 140 573 115.5 531 c 128,-1,9
 91 489 91 489 86 408 c 0,10,11
 79 327 79 327 99 268 c 128,-1,12
 119 209 119 209 149.5 170 c 128,-1,13
 180 131 180 131 210.5 113 c 128,-1,14
 241 95 241 95 266 95 c 0,15,16
 284 94 284 94 306 104 c 128,-1,17
 328 114 328 114 347 137 c 128,-1,18
 366 160 366 160 381 200.5 c 128,-1,19
 396 241 396 241 403 303 c 0,0,1
477 340 m 0,20,21
 477 268 477 268 463 221 c 128,-1,22
 449 174 449 174 428.5 143.5 c 128,-1,23
 408 113 408 113 381 95.5 c 128,-1,24
 354 78 354 78 328.5 70 c 128,-1,25
 303 62 303 62 287 61 c 128,-1,26
 271 60 271 60 253 61 c 0,27,28
 247 61 247 61 226 64.5 c 128,-1,29
 205 68 205 68 178.5 79 c 128,-1,30
 152 90 152 90 121.5 110 c 128,-1,31
 91 130 91 130 65.5 165.5 c 128,-1,32
 40 201 40 201 20.5 252 c 128,-1,33
 1 303 1 303 -1 376 c 0,34,35
 1 433 1 433 12.5 473.5 c 128,-1,36
 24 514 24 514 41.5 544.5 c 128,-1,37
 59 575 59 575 79.5 593.5 c 128,-1,38
 100 612 100 612 123 622 c 0,39,40
 173 650 173 650 237 646 c 0,41,42
 243 646 243 646 261 644 c 128,-1,43
 279 642 279 642 304.5 633 c 128,-1,44
 330 624 330 624 360 605 c 128,-1,45
 390 586 390 586 415.5 552 c 128,-1,46
 441 518 441 518 458.5 466 c 128,-1,47
 476 414 476 414 477 340 c 0,20,21
EndSplineSet
EndChar

StartChar: one
Encoding: 49 49 17
Width: 250
GlyphClass: 2
Flags: W
LayerCount: 2
Fore
SplineSet
71 98 m 1,0,-1
 83 552 l 1,1,2
 65 537 65 537 53 533 c 0,3,4
 38 526 38 526 18 520 c 1,5,-1
 0 563 l 1,6,7
 24 569 24 569 41 578.5 c 128,-1,8
 58 588 58 588 70 603 c 0,9,10
 83 621 83 621 93 640 c 1,11,-1
 153 639 l 1,12,13
 146 117 146 117 149 114 c 0,14,15
 151 108 151 108 199 60 c 1,16,-1
 26 60 l 1,17,-1
 71 98 l 1,0,-1
EndSplineSet
EndChar

StartChar: two
Encoding: 50 50 18
Width: 510
GlyphClass: 2
Flags: W
LayerCount: 2
Fore
SplineSet
0 595 m 1,0,1
 20 608 20 608 57.5 621.5 c 128,-1,2
 95 635 95 635 139.5 642.5 c 128,-1,3
 184 650 184 650 232 650 c 128,-1,4
 280 650 280 650 321 637.5 c 128,-1,5
 362 625 362 625 392.5 598 c 128,-1,6
 423 571 423 571 434 523 c 0,7,8
 441 489 441 489 435.5 453.5 c 128,-1,9
 430 418 430 418 416 383 c 128,-1,10
 402 348 402 348 380.5 314 c 128,-1,11
 359 280 359 280 337 250 c 0,12,13
 282 180 282 180 209 113 c 1,14,15
 250 114 250 114 287 116 c 0,16,17
 318 119 318 119 347 120 c 128,-1,18
 376 121 376 121 388 123 c 0,19,20
 398 126 398 126 410.5 135.5 c 128,-1,21
 423 145 423 145 434 154 c 0,22,23
 447 166 447 166 458 180 c 5,24,-1
 458 63 l 1,25,-1
 267 63 l 2,26,27
 231 63 231 63 196 63 c 128,-1,28
 161 63 161 63 134.5 63 c 128,-1,29
 108 63 108 63 91 63 c 2,30,-1
 74 63 l 1,31,32
 107 90 107 90 145 131.5 c 128,-1,33
 183 173 183 173 218 215 c 128,-1,34
 253 257 253 257 280 294 c 128,-1,35
 307 331 307 331 318 349 c 0,36,37
 325 361 325 361 334.5 381.5 c 128,-1,38
 344 402 344 402 349.5 427 c 128,-1,39
 355 452 355 452 353.5 478.5 c 128,-1,40
 352 505 352 505 340 527 c 128,-1,41
 328 549 328 549 303.5 564 c 128,-1,42
 279 579 279 579 235 582 c 0,43,44
 191 584 191 584 158.5 576 c 128,-1,45
 126 568 126 568 102.5 557 c 128,-1,46
 79 546 79 546 64 534.5 c 128,-1,47
 49 523 49 523 40 517 c 0,48,49
 39 517 39 517 33 529 c 128,-1,50
 27 541 27 541 20 556 c 0,51,52
 12 573 12 573 0 595 c 1,0,1
EndSplineSet
EndChar

StartChar: three
Encoding: 51 51 19
Width: 468
GlyphClass: 2
Flags: W
LayerCount: 2
Fore
SplineSet
0 621 m 1,0,1
 44 636 44 636 92 642.5 c 128,-1,2
 140 649 140 649 186.5 648 c 128,-1,3
 233 647 233 647 276.5 638 c 128,-1,4
 320 629 320 629 353 613.5 c 128,-1,5
 386 598 386 598 405 577 c 128,-1,6
 424 556 424 556 425 528 c 0,7,8
 427 476 427 476 403 443 c 128,-1,9
 379 410 379 410 349.5 390.5 c 128,-1,10
 320 371 320 371 294.5 362.5 c 128,-1,11
 269 354 269 354 269 353 c 2,12,-1
 287 346 l 2,13,14
 305 339 305 339 328 322.5 c 128,-1,15
 351 306 351 306 372 279 c 128,-1,16
 393 252 393 252 396 213 c 0,17,18
 397 177 397 177 382 153 c 128,-1,19
 367 129 367 129 342 112 c 128,-1,20
 317 95 317 95 284.5 85 c 128,-1,21
 252 75 252 75 218 70 c 0,22,23
 138 57 138 57 37 65 c 1,24,-1
 37 116 l 1,25,26
 113 109 113 109 173 117 c 0,27,28
 199 121 199 121 223.5 128 c 128,-1,29
 248 135 248 135 267.5 147.5 c 128,-1,30
 287 160 287 160 298.5 177.5 c 128,-1,31
 310 195 310 195 310 221 c 0,32,33
 310 243 310 243 300.5 258.5 c 128,-1,34
 291 274 291 274 277 284.5 c 128,-1,35
 263 295 263 295 244 301 c 128,-1,36
 225 307 225 307 206 311 c 0,37,38
 160 318 160 318 103 312 c 1,39,-1
 103 370 l 2,40,41
 104 371 104 371 122 370.5 c 128,-1,42
 140 370 140 370 166.5 372 c 128,-1,43
 193 374 193 374 224 380.5 c 128,-1,44
 255 387 255 387 281.5 402 c 128,-1,45
 308 417 308 417 325 441 c 128,-1,46
 342 465 342 465 341 503 c 0,47,48
 341 536 341 536 318.5 555 c 128,-1,49
 296 574 296 574 263 581.5 c 128,-1,50
 230 589 230 589 190.5 587 c 128,-1,51
 151 585 151 585 115.5 578 c 128,-1,52
 80 571 80 571 55 560 c 128,-1,53
 30 549 30 549 21 542 c 1,54,-1
 0 621 l 1,0,1
EndSplineSet
EndChar

StartChar: four
Encoding: 52 52 20
Width: 483
GlyphClass: 2
Flags: W
LayerCount: 2
Fore
SplineSet
121 345 m 1,0,-1
 279 352 l 1,1,-1
 284 551 l 1,2,-1
 121 345 l 1,0,-1
344 301 m 1,3,4
 345 111 345 111 349.5 102.5 c 128,-1,5
 354 94 354 94 359 86 c 0,6,7
 366 75 366 75 376 62 c 1,8,-1
 227 61 l 1,9,-1
 252 80 l 2,10,11
 275 99 275 99 278 104 c 0,12,13
 280 105 280 105 280 301 c 1,14,-1
 0 301 l 1,15,-1
 294 649 l 1,16,-1
 340 648 l 1,17,-1
 344 357 l 1,18,-1
 444 365 l 1,19,-1
 445 303 l 1,20,-1
 344 301 l 1,3,4
EndSplineSet
EndChar

StartChar: five
Encoding: 53 53 21
Width: 411
GlyphClass: 2
Flags: W
LayerCount: 2
Fore
SplineSet
347 656 m 1,0,-1
 347 568 l 1,1,-1
 57 567 l 1,2,-1
 58 402 l 1,3,4
 74 402 74 402 102 402.5 c 128,-1,5
 130 403 130 403 162 401 c 128,-1,6
 194 399 194 399 227.5 392 c 128,-1,7
 261 385 261 385 289.5 371 c 128,-1,8
 318 357 318 357 337 334.5 c 128,-1,9
 356 312 356 312 360 277 c 0,10,11
 362 251 362 251 352 228.5 c 128,-1,12
 342 206 342 206 323.5 185.5 c 128,-1,13
 305 165 305 165 280 148 c 128,-1,14
 255 131 255 131 228 117 c 0,15,16
 167 85 167 85 86 61 c 1,17,-1
 62 120 l 1,18,19
 121 138 121 138 167 160 c 0,20,21
 193 172 193 172 211.5 182.5 c 128,-1,22
 230 193 230 193 244 207.5 c 128,-1,23
 258 222 258 222 267 237.5 c 128,-1,24
 276 253 276 253 275 274 c 0,25,26
 274 294 274 294 262 306 c 128,-1,27
 250 318 250 318 230.5 326 c 128,-1,28
 211 334 211 334 184 338.5 c 128,-1,29
 157 343 157 343 132 344 c 0,30,31
 75 346 75 346 0 338 c 1,32,-1
 2 627 l 1,33,-1
 347 656 l 1,0,-1
EndSplineSet
EndChar

StartChar: six
Encoding: 54 54 22
Width: 420
GlyphClass: 2
Flags: W
LayerCount: 2
Fore
SplineSet
165 113 m 4,0,1
 202 109 202 109 227.5 123.5 c 132,-1,2
 253 138 253 138 267.5 162 c 132,-1,3
 282 186 282 186 285.5 214.5 c 132,-1,4
 289 243 289 243 282.5 269 c 132,-1,5
 276 295 276 295 258.5 313 c 132,-1,6
 241 331 241 331 215 334 c 4,7,8
 175 337 175 337 151 325 c 132,-1,9
 127 313 127 313 113.5 296 c 132,-1,10
 100 279 100 279 94 259.5 c 132,-1,11
 88 240 88 240 86 227 c 4,12,13
 82 210 82 210 86 189.5 c 132,-1,14
 90 169 90 169 101 152.5 c 132,-1,15
 112 136 112 136 129 125 c 132,-1,16
 146 114 146 114 165 113 c 4,0,1
218 379 m 4,17,18
 234 379 234 379 259 373 c 132,-1,19
 284 367 284 367 308.5 350.5 c 132,-1,20
 333 334 333 334 351.5 303.5 c 132,-1,21
 370 273 370 273 370 223 c 4,22,23
 370 171 370 171 344.5 139 c 132,-1,24
 319 107 319 107 286.5 91.5 c 132,-1,25
 254 76 254 76 221.5 72 c 132,-1,26
 189 68 189 68 174 68 c 4,27,28
 159 69 159 69 131 77 c 132,-1,29
 103 85 103 85 74.5 106 c 132,-1,30
 46 127 46 127 25 167 c 4,31,32
 4.33214962605 206.367334046 4.33214962605 206.367334046 4.00525346288 269.950089808 c 4,33,34
 4.00262847418 269.975029791 4.00262847418 269.975029791 4 270 c 4,35,36
 2 298 2 298 11 348 c 132,-1,37
 20 398 20 398 48 456 c 132,-1,38
 76 514 76 514 132.5 573 c 132,-1,39
 189 632 189 632 283 680 c 5,40,41
 297 660 297 660 305 645 c 4,42,43
 312 631 312 631 319 620.5 c 132,-1,44
 326 610 326 610 325 610 c 4,45,46
 265 585 265 585 221 554 c 132,-1,47
 177 523 177 523 146 488 c 132,-1,48
 115 453 115 453 98 417 c 132,-1,49
 81 381 81 381 74 350 c 5,50,51
 159 382 159 382 218 379 c 4,17,18
EndSplineSet
EndChar

StartChar: seven
Encoding: 55 55 23
Width: 431
GlyphClass: 2
Flags: W
LayerCount: 2
Fore
SplineSet
1 637 m 1,0,-1
 382 645 l 1,1,-1
 328 59 l 1,2,-1
 256 61 l 1,3,-1
 327 579 l 1,4,-1
 7 563 l 1,5,-1
 1 637 l 1,0,-1
EndSplineSet
EndChar

StartChar: eight
Encoding: 56 56 24
Width: 489
GlyphClass: 2
Flags: W
LayerCount: 2
Fore
SplineSet
229 110 m 0,0,1
 273 110 273 110 305.5 129 c 128,-1,2
 338 148 338 148 354.5 177 c 128,-1,3
 371 206 371 206 373 239.5 c 128,-1,4
 375 273 375 273 363 299.5 c 128,-1,5
 351 326 351 326 322.5 343 c 128,-1,6
 294 360 294 360 250 355 c 0,7,8
 204 351 204 351 171 330.5 c 128,-1,9
 138 310 138 310 118.5 281.5 c 128,-1,10
 99 253 99 253 94 222.5 c 128,-1,11
 89 192 89 192 102.5 165.5 c 128,-1,12
 116 139 116 139 146.5 123 c 128,-1,13
 177 107 177 107 229 110 c 0,0,1
221 614 m 0,14,15
 190 614 190 614 169 597 c 128,-1,16
 148 580 148 580 138 554.5 c 128,-1,17
 128 529 128 529 128 500.5 c 128,-1,18
 128 472 128 472 138 447 c 128,-1,19
 148 422 148 422 168 407.5 c 128,-1,20
 188 393 188 393 220 396 c 0,21,22
 247 397 247 397 266.5 414 c 128,-1,23
 286 431 286 431 294.5 455.5 c 128,-1,24
 303 480 303 480 302.5 507.5 c 128,-1,25
 302 535 302 535 292.5 558.5 c 128,-1,26
 283 582 283 582 264.5 598 c 128,-1,27
 246 614 246 614 221 614 c 0,14,15
327 399 m 1,28,29
 383 395 383 395 412 368 c 128,-1,30
 441 341 441 341 447.5 304.5 c 128,-1,31
 454 268 454 268 439.5 226 c 128,-1,32
 425 184 425 184 393.5 147.5 c 128,-1,33
 362 111 362 111 313 86.5 c 128,-1,34
 264 62 264 62 203 61 c 0,35,36
 159 60 159 60 120 75.5 c 128,-1,37
 81 91 81 91 55 116.5 c 128,-1,38
 29 142 29 142 18 175 c 128,-1,39
 7 208 7 208 16 243 c 128,-1,40
 25 278 25 278 56 309.5 c 128,-1,41
 87 341 87 341 145 365 c 1,42,43
 109 376 109 376 86 401.5 c 128,-1,44
 63 427 63 427 54.5 458 c 128,-1,45
 46 489 46 489 52 523.5 c 128,-1,46
 58 558 58 558 78 586 c 128,-1,47
 98 614 98 614 131.5 634 c 128,-1,48
 165 654 165 654 212 657 c 0,49,50
 270 660 270 660 309.5 632.5 c 128,-1,51
 349 605 349 605 365.5 563.5 c 128,-1,52
 382 522 382 522 373 476.5 c 128,-1,53
 364 431 364 431 327 399 c 1,28,29
EndSplineSet
EndChar

StartChar: nine
Encoding: 57 57 25
Width: 377
GlyphClass: 2
Flags: W
LayerCount: 2
Fore
SplineSet
191 375 m 0,0,1
 214 378 214 378 230 397.5 c 128,-1,2
 246 417 246 417 250.5 443.5 c 128,-1,3
 255 470 255 470 250.5 498 c 128,-1,4
 246 526 246 526 231.5 551 c 128,-1,5
 217 576 217 576 193 590 c 128,-1,6
 169 604 169 604 137 601 c 0,7,8
 107 597 107 597 90 578 c 128,-1,9
 73 559 73 559 66.5 532.5 c 128,-1,10
 60 506 60 506 65.5 476 c 128,-1,11
 71 446 71 446 87 422.5 c 128,-1,12
 103 399 103 399 129 384.5 c 128,-1,13
 155 370 155 370 191 375 c 0,0,1
334 431 m 0,14,15
 334 393 334 393 325 354 c 128,-1,16
 316 315 316 315 299 280.5 c 128,-1,17
 282 246 282 246 261.5 215.5 c 128,-1,18
 241 185 241 185 220 160 c 0,19,20
 168 100 168 100 102 50 c 1,21,-1
 48 114 l 1,22,23
 102 149 102 149 144 190 c 0,24,25
 181 224 181 224 211 265 c 128,-1,26
 241 306 241 306 244 346 c 1,27,28
 186 320 186 320 140.5 325.5 c 128,-1,29
 95 331 95 331 64.5 352.5 c 128,-1,30
 34 374 34 374 17 402.5 c 128,-1,31
 0 431 0 431 0 457 c 0,32,33
 0 492 0 492 8.5 526 c 128,-1,34
 17 560 17 560 36 588 c 128,-1,35
 55 616 55 616 87.5 634.5 c 128,-1,36
 120 653 120 653 163 654 c 0,37,38
 165 654 165 654 179.5 652 c 128,-1,39
 194 650 194 650 213 644.5 c 128,-1,40
 232 639 232 639 252.5 625 c 128,-1,41
 273 611 273 611 290.5 586 c 128,-1,42
 308 561 308 561 320.5 525 c 128,-1,43
 333 489 333 489 334 431 c 0,14,15
EndSplineSet
EndChar

StartChar: colon
Encoding: 58 58 26
Width: 155
GlyphClass: 2
Flags: W
LayerCount: 2
Fore
SplineSet
38 432 m 0,0,1
 23 443 23 443 20 461 c 128,-1,2
 17 479 17 479 27 494 c 0,3,4
 38 508 38 508 55.5 511.5 c 128,-1,5
 73 515 73 515 88 504 c 0,6,7
 103 494 103 494 106.5 476 c 128,-1,8
 110 458 110 458 99 444 c 0,9,10
 89 429 89 429 70.5 425.5 c 128,-1,11
 52 422 52 422 38 432 c 0,0,1
82 229 m 0,12,13
 101 215 101 215 104 195.5 c 128,-1,14
 107 176 107 176 96 158 c 0,15,16
 84 141 84 141 63.5 137.5 c 128,-1,17
 43 134 43 134 26 146 c 0,18,19
 8 159 8 159 4.5 178.5 c 128,-1,20
 1 198 1 198 13 217 c 0,21,22
 25 234 25 234 45 237 c 128,-1,23
 65 240 65 240 82 229 c 0,12,13
EndSplineSet
EndChar

StartChar: semicolon
Encoding: 59 59 27
AltUni2: 00037e.ffffffff.0
Width: 149
GlyphClass: 2
Flags: W
LayerCount: 2
Fore
SplineSet
78 495 m 0,0,1
 95 484 95 484 98 464.5 c 128,-1,2
 101 445 101 445 90 429 c 0,3,4
 79 412 79 412 60 409 c 128,-1,5
 41 406 41 406 25 418 c 0,6,7
 7 429 7 429 4 448.5 c 128,-1,8
 1 468 1 468 12 484 c 128,-1,9
 23 500 23 500 42.5 503 c 128,-1,10
 62 506 62 506 78 495 c 0,0,1
75 227 m 0,11,12
 81 224 81 224 88.5 211.5 c 128,-1,13
 96 199 96 199 96 179.5 c 128,-1,14
 96 160 96 160 85 136.5 c 128,-1,15
 74 113 74 113 43 87 c 1,16,-1
 16 101 l 1,17,18
 36 116 36 116 45.5 135.5 c 128,-1,19
 55 155 55 155 54 161 c 1,20,21
 44 156 44 156 33 161 c 128,-1,22
 22 166 22 166 18 168 c 0,23,24
 4 176 4 176 2 193 c 128,-1,25
 0 210 0 210 10 221 c 128,-1,26
 20 232 20 232 37 235 c 128,-1,27
 54 238 54 238 75 227 c 0,11,12
EndSplineSet
EndChar

StartChar: less
Encoding: 60 60 28
Width: 199
GlyphClass: 2
Flags: W
LayerCount: 2
Fore
SplineSet
127 468 m 1,0,-1
 149 437 l 1,1,-1
 41 346 l 1,2,-1
 145 265 l 1,3,-1
 117 225 l 1,4,-1
 1 336 l 1,5,-1
 127 468 l 1,0,-1
EndSplineSet
EndChar

StartChar: equal
Encoding: 61 61 29
Width: 307
GlyphClass: 2
Flags: W
LayerCount: 2
Fore
SplineSet
254 386 m 1,0,-1
 256 358 l 1,1,-1
 9 365 l 1,2,-1
 13 405 l 1,3,-1
 254 386 l 1,0,-1
5 295 m 1,4,-1
 3 324 l 1,5,-1
 248 336 l 1,6,-1
 248 296 l 1,7,-1
 5 295 l 1,4,-1
EndSplineSet
EndChar

StartChar: greater
Encoding: 62 62 30
Width: 200
GlyphClass: 2
Flags: W
LayerCount: 2
Fore
SplineSet
24 226 m 1,0,-1
 1 257 l 1,1,-1
 110 348 l 1,2,-1
 3 431 l 1,3,-1
 33 471 l 1,4,-1
 151 358 l 1,5,-1
 24 226 l 1,0,-1
EndSplineSet
EndChar

StartChar: question
Encoding: 63 63 31
Width: 531
GlyphClass: 2
Flags: W
LayerCount: 2
Fore
SplineSet
291 92 m 0,0,1
 304 88 304 88 311 72 c 128,-1,2
 318 56 318 56 313 37 c 0,3,4
 308 19 308 19 294.5 8.5 c 128,-1,5
 281 -2 281 -2 267 2 c 0,6,7
 254 5 254 5 247 21 c 128,-1,8
 240 37 240 37 245 56 c 0,9,10
 250 74 250 74 263.5 84.5 c 128,-1,11
 277 95 277 95 291 92 c 0,0,1
466 579 m 0,12,13
 483 548 483 548 482.5 519 c 128,-1,14
 482 490 482 490 469.5 465.5 c 128,-1,15
 457 441 457 441 435.5 419 c 128,-1,16
 414 397 414 397 388 379 c 0,17,18
 329 337 329 337 243 304 c 1,19,-1
 293 156 l 1,20,-1
 233 142 l 1,21,-1
 187 335 l 1,22,23
 260 355 260 355 310 388 c 0,24,25
 333 401 333 401 351.5 417.5 c 128,-1,26
 370 434 370 434 381.5 454.5 c 128,-1,27
 393 475 393 475 394 499.5 c 128,-1,28
 395 524 395 524 382 551 c 0,29,30
 366 586 366 586 337 600 c 128,-1,31
 308 614 308 614 270 616.5 c 128,-1,32
 232 619 232 619 178 601 c 128,-1,33
 124 583 124 583 58 516 c 1,34,-1
 -1 575 l 1,35,36
 17 590 17 590 52 608.5 c 128,-1,37
 87 627 87 627 131 644 c 128,-1,38
 175 661 175 661 224 666 c 128,-1,39
 273 671 273 671 319.5 666 c 128,-1,40
 366 661 366 661 404 640.5 c 128,-1,41
 442 620 442 620 466 579 c 0,12,13
EndSplineSet
EndChar

StartChar: at
Encoding: 64 64 32
Width: 475
GlyphClass: 2
Flags: W
LayerCount: 2
Fore
SplineSet
216 235 m 0,0,1
 231 233 231 233 242 243 c 128,-1,2
 253 253 253 253 259.5 269 c 128,-1,3
 266 285 266 285 268.5 305 c 128,-1,4
 271 325 271 325 268 341.5 c 128,-1,5
 265 358 265 358 257.5 369.5 c 128,-1,6
 250 381 250 381 235 381 c 0,7,8
 215 382 215 382 201 361 c 128,-1,9
 187 340 187 340 182.5 314 c 128,-1,10
 178 288 178 288 185 264.5 c 128,-1,11
 192 241 192 241 216 235 c 0,0,1
232 498 m 0,12,13
 235 498 235 498 250.5 497 c 128,-1,14
 266 496 266 496 287 490.5 c 128,-1,15
 308 485 308 485 332.5 474 c 128,-1,16
 357 463 357 463 376.5 442.5 c 128,-1,17
 396 422 396 422 409.5 391 c 128,-1,18
 423 360 423 360 423 316 c 0,19,20
 420 279 420 279 407.5 258.5 c 128,-1,21
 395 238 395 238 381.5 227.5 c 128,-1,22
 368 217 368 217 355.5 215 c 128,-1,23
 343 213 343 213 341 213 c 1,24,25
 345 213 345 213 340 212.5 c 128,-1,26
 335 212 335 212 326 214 c 128,-1,27
 317 216 317 216 306 221.5 c 128,-1,28
 295 227 295 227 285 239 c 1,29,30
 284 233 284 233 276 225 c 128,-1,31
 268 217 268 217 257 211 c 128,-1,32
 246 205 246 205 234 201 c 128,-1,33
 222 197 222 197 212 197 c 0,34,35
 198 197 198 197 182 206 c 128,-1,36
 166 215 166 215 153.5 230.5 c 128,-1,37
 141 246 141 246 135.5 267.5 c 128,-1,38
 130 289 130 289 137 316 c 0,39,40
 140 329 140 329 148 345.5 c 128,-1,41
 156 362 156 362 169 377 c 128,-1,42
 182 392 182 392 201.5 401.5 c 128,-1,43
 221 411 221 411 246 411 c 0,44,45
 269 408 269 408 281.5 395 c 128,-1,46
 294 382 294 382 299 364 c 128,-1,47
 304 346 304 346 305.5 324 c 128,-1,48
 307 302 307 302 310 285 c 128,-1,49
 313 268 313 268 319.5 257.5 c 128,-1,50
 326 247 326 247 341 249 c 0,51,52
 356 252 356 252 365.5 268.5 c 128,-1,53
 375 285 375 285 377.5 307.5 c 128,-1,54
 380 330 380 330 374 356 c 128,-1,55
 368 382 368 382 350.5 404 c 128,-1,56
 333 426 333 426 304.5 440 c 128,-1,57
 276 454 276 454 233 454 c 0,58,59
 172 453 172 453 138 429.5 c 128,-1,60
 104 406 104 406 87.5 377 c 128,-1,61
 71 348 71 348 66.5 321.5 c 128,-1,62
 62 295 62 295 62 287 c 0,63,64
 61 270 61 270 66 247.5 c 128,-1,65
 71 225 71 225 82 202.5 c 128,-1,66
 93 180 93 180 111.5 160.5 c 128,-1,67
 130 141 130 141 158.5 130.5 c 128,-1,68
 187 120 187 120 225 121 c 128,-1,69
 263 122 263 122 313 142 c 0,70,71
 314 142 314 142 316 136 c 128,-1,72
 318 130 318 130 321 121 c 0,73,74
 325 111 325 111 329 99 c 1,75,76
 319 92 319 92 291.5 85.5 c 128,-1,77
 264 79 264 79 227.5 78 c 128,-1,78
 191 77 191 77 151.5 84.5 c 128,-1,79
 112 92 112 92 79 115 c 128,-1,80
 46 138 46 138 24.5 179 c 128,-1,81
 3 220 3 220 2 284 c 0,82,83
 3 359 3 359 33.5 402.5 c 128,-1,84
 64 446 64 446 103.5 468 c 128,-1,85
 143 490 143 490 180 495 c 128,-1,86
 217 500 217 500 232 498 c 0,12,13
EndSplineSet
EndChar

StartChar: A
Encoding: 65 65 33
AltUni2: 000430.ffffffff.0 0003b1.ffffffff.0 000061.ffffffff.0 000410.ffffffff.0 000391.ffffffff.0
Width: 496
GlyphClass: 2
Flags: W
AnchorPoint: "bottomattside" 395 4 basechar 0
AnchorPoint: "bottom" 225 5 basechar 0
AnchorPoint: "top" 207 683 basechar 0
LayerCount: 2
Fore
SplineSet
0 0 m 1,0,-1
 206 705 l 1,1,-1
 480 10 l 1,2,-1
 365 2 l 1,3,-1
 388 33 l 1,4,-1
 304.983481008 252.463882655 l 1,5,-1
 129 242 l 1,6,-1
 65 27 l 1,7,-1
 90 0 l 1,8,-1
 1 1 l 1,9,-1
 0 0 l 1,0,-1
285.227328954 304.6915825 m 1,10,-1
 200 530 l 1,11,-1
 140 294 l 1,12,-1
 285.227328954 304.6915825 l 1,10,-1
EndSplineSet
Substitution2: "mark-downsizer-1" A.mark
EndChar

StartChar: B
Encoding: 66 66 34
AltUni2: 000432.ffffffff.0 0003b2.ffffffff.0 000062.ffffffff.0 000412.ffffffff.0 000392.ffffffff.0
Width: 495
GlyphClass: 2
Flags: W
AnchorPoint: "bottomattside" 310 23 basechar 0
AnchorPoint: "bottom" 237 -15 basechar 0
AnchorPoint: "top" 215 685 basechar 0
LayerCount: 2
Fore
SplineSet
1 699 m 1,0,1
 23 699 23 699 57.5 699.5 c 128,-1,2
 92 700 92 700 130 698.5 c 128,-1,3
 168 697 168 697 207.5 689.5 c 128,-1,4
 247 682 247 682 278.5 667.5 c 128,-1,5
 310 653 310 653 330.5 627.5 c 128,-1,6
 351 602 351 602 353 563 c 0,7,8
 355 514 355 514 329.5 478.5 c 128,-1,9
 304 443 304 443 272 421 c 0,10,11
 234 397 234 397 197 388 c 1,12,13
 264 396 264 396 325 377 c 0,14,15
 351 367 351 367 375.5 351.5 c 128,-1,16
 400 336 400 336 421 307 c 128,-1,17
 442 278 442 278 451 250.5 c 128,-1,18
 460 223 460 223 459 189 c 0,19,20
 458 144 458 144 438 111.5 c 128,-1,21
 418 79 418 79 385.5 57 c 128,-1,22
 353 35 353 35 310.5 22.5 c 128,-1,23
 268 10 268 10 220 5 c 128,-1,24
 172 0 172 0 123 1 c 128,-1,25
 74 2 74 2 27 7 c 1,26,27
 27 26 27 26 26.5 36 c 128,-1,28
 26 46 26 46 26 51.5 c 128,-1,29
 26 57 26 57 26 58.5 c 128,-1,30
 26 60 26 60 26 62 c 2,31,-1
 51.5 56.5 l 2,32,33
 54.2389497122 55.9092461405 54.2389497122 55.9092461405 57.1336470824 55.3531028717 c 2,34,-1
 60 642 l 2,35,36
 59 642 59 642 50 642 c 128,-1,37
 41 642 41 642 29 641 c 2,38,-1
 0 639 l 1,39,-1
 1 699 l 1,0,1
117.439593625 406.156906926 m 1,40,41
 165.555533573 415.121941569 165.555533573 415.121941569 204 432 c 0,42,43
 221 440 221 440 238 450.5 c 128,-1,44
 255 461 255 461 267.5 477 c 128,-1,45
 280 493 280 493 286.5 513.5 c 128,-1,46
 293 534 293 534 292 560 c 0,47,48
 291 588 291 588 277.5 604.5 c 128,-1,49
 264 621 264 621 243.5 630 c 128,-1,50
 223 639 223 639 200 642 c 128,-1,51
 177 645 177 645 156.5 645 c 128,-1,52
 136 645 136 645 109 644 c 1,53,-1
 117.439593625 406.156906926 l 1,40,41
119.830613652 338.773615261 m 1,54,-1
 130.156088386 47.7829636574 l 1,55,56
 163.296861799 46.5352814064 163.296861799 46.5352814064 201.5 49 c 0,57,58
 248 52 248 52 287.5 67 c 128,-1,59
 327 82 327 82 355 114.5 c 128,-1,60
 383 147 383 147 386 204 c 0,61,62
 386 245 386 245 367 271 c 128,-1,63
 348 297 348 297 317.5 313 c 128,-1,64
 287 329 287 329 250 334 c 128,-1,65
 213 339 213 339 182 340 c 128,-1,66
 151 341 151 341 130 339.5 c 2,67,-1
 119.830613652 338.773615261 l 1,54,-1
EndSplineSet
Substitution2: "mark-downsizer-1" B.mark
EndChar

StartChar: C
Encoding: 67 67 35
AltUni2: 000441.ffffffff.0 000063.ffffffff.0 000421.ffffffff.0
Width: 520
GlyphClass: 2
Flags: W
AnchorPoint: "bottomattside" 438 11 basechar 0
AnchorPoint: "bottom" 305 -30 basechar 0
AnchorPoint: "top" 262 689 basechar 0
LayerCount: 2
Fore
SplineSet
473 688 m 1,0,-1
 440 608 l 1,1,2
 338 634 338 634 259 617 c 0,3,4
 225 609 225 609 193.5 591.5 c 128,-1,5
 162 574 162 574 138.5 541.5 c 128,-1,6
 115 509 115 509 102 459 c 128,-1,7
 89 409 89 409 93 337 c 0,8,9
 96 260 96 260 111.5 209 c 128,-1,10
 127 158 127 158 149.5 126.5 c 128,-1,11
 172 95 172 95 200.5 79.5 c 128,-1,12
 229 64 229 64 258 60 c 0,13,14
 326 50 326 50 410 88 c 1,15,-1
 444 11 l 1,16,17
 318 -9 318 -9 221 19 c 0,18,19
 179 30 179 30 140.5 54 c 128,-1,20
 102 78 102 78 72 117 c 128,-1,21
 42 156 42 156 24.5 215 c 128,-1,22
 7 274 7 274 10 356 c 0,23,24
 14 440 14 440 52 506.5 c 128,-1,25
 90 573 90 573 153 617.5 c 128,-1,26
 216 662 216 662 299 680.5 c 128,-1,27
 382 699 382 699 473 688 c 1,0,-1
EndSplineSet
Substitution2: "mark-downsizer-1" C.mark
EndChar

StartChar: D
Encoding: 68 68 36
AltUni2: 000064.ffffffff.0
Width: 572
GlyphClass: 2
Flags: W
AnchorPoint: "bottom" 265 -10 basechar 0
AnchorPoint: "bottomattside" 378 56 basechar 0
AnchorPoint: "top" 244 691 basechar 0
LayerCount: 2
Fore
SplineSet
2 679 m 1,0,1
 127 702 127 702 233 683 c 0,2,3
 278 675 278 675 323 657.5 c 128,-1,4
 368 640 368 640 407 608 c 128,-1,5
 446 576 446 576 475.5 527.5 c 128,-1,6
 505 479 505 479 520 410 c 0,7,8
 536 319 536 319 523.5 254 c 128,-1,9
 511 189 511 189 479.5 143 c 128,-1,10
 448 97 448 97 402.5 69.5 c 128,-1,11
 357 42 357 42 308 27 c 0,12,13
 190 -9 190 -9 32 8 c 1,14,-1
 30 64 l 1,15,16
 49.8918760768 60.7120865989 49.8918760768 60.7120865989 69 58.5592625237 c 1,17,-1
 69 629 l 1,18,-1
 8 620 l 1,19,-1
 2 679 l 1,0,1
134.681794334 54.4905964717 m 1,20,21
 193.105660228 54.0687448372 193.105660228 54.0687448372 243 66 c 0,22,23
 283 75 283 75 320.5 94.5 c 128,-1,24
 358 114 358 114 389 148 c 128,-1,25
 420 182 420 182 435.5 233 c 128,-1,26
 451 284 451 284 446 357 c 0,27,28
 443 417 443 417 426 459.5 c 128,-1,29
 409 502 409 502 384.5 533.5 c 128,-1,30
 360 565 360 565 331.5 583.5 c 128,-1,31
 303 602 303 602 272 613 c 0,32,33
 203 638 203 638 122 632 c 1,34,-1
 134.681794334 54.4905964717 l 1,20,21
EndSplineSet
Substitution2: "mark-downsizer-1" D.mark
EndChar

StartChar: E
Encoding: 69 69 37
AltUni2: 000435.ffffffff.0 0003b5.ffffffff.0 000065.ffffffff.0 000415.ffffffff.0 000395.ffffffff.0
Width: 498
GlyphClass: 2
Flags: W
AnchorPoint: "bottom" 230 -20 basechar 0
AnchorPoint: "bottomattside" 395 4 basechar 0
AnchorPoint: "top" 232 681 basechar 0
LayerCount: 2
Fore
SplineSet
0 700 m 1,0,-1
 463 693 l 1,1,-1
 462 575 l 1,2,3
 441 592 441 592 423 607 c 128,-1,4
 405 622 405 622 385 638 c 1,5,-1
 114 641 l 1,6,-1
 116 401 l 1,7,-1
 305 410 l 1,8,-1
 305 346 l 1,9,-1
 117 346 l 1,10,-1
 124 57 l 1,11,12
 349 61 349 61 350 62 c 0,13,14
 353 63 353 63 433 116 c 1,15,-1
 433 2 l 1,16,-1
 24 2 l 1,17,-1
 24 57 l 1,18,-1
 53 55 l 1,19,-1
 53 643 l 1,20,-1
 0 643 l 1,21,-1
 0 700 l 1,0,-1
EndSplineSet
Substitution2: "mark-downsizer-1" E.mark
EndChar

StartChar: F
Encoding: 70 70 38
AltUni2: 000066.ffffffff.0
Width: 501
GlyphClass: 2
Flags: W
AnchorPoint: "bottom" 90 -30 basechar 0
AnchorPoint: "bottomattside" 47 3 basechar 0
AnchorPoint: "top" 240 700 basechar 0
LayerCount: 2
Fore
SplineSet
0 698 m 1,0,-1
 471 696 l 1,1,-1
 468 563 l 1,2,3
 456 581 456 581 445 597 c 0,4,5
 436 610 436 610 426.5 622.5 c 128,-1,6
 417 635 417 635 410 637 c 0,7,8
 407 638 407 638 391 638.5 c 128,-1,9
 375 639 375 639 102 636 c 1,10,-1
 107 398 l 1,11,-1
 285 404 l 1,12,-1
 283 341 l 1,13,-1
 108 342 l 1,14,15
 117 57 117 57 118 54 c 0,16,17
 120 49 120 49 185 1 c 1,18,-1
 10 1 l 1,19,20
 48 37 48 37 49 41 c 0,21,22
 49 43 49 43 45 343.5 c 0,23,24
 41.1309328969 634.163666121 41.1309328969 634.163666121 43.8111009024 639 c 1,25,-1
 2 639 l 1,26,-1
 0 698 l 1,0,-1
EndSplineSet
Substitution2: "mark-downsizer-1" F.mark
EndChar

StartChar: G
Encoding: 71 71 39
AltUni2: 000067.ffffffff.0
Width: 544
GlyphClass: 2
Flags: W
AnchorPoint: "bottom" 335 -25 basechar 0
AnchorPoint: "bottomattside" 492 17 basechar 0
AnchorPoint: "top" 274 670 basechar 0
LayerCount: 2
Fore
SplineSet
477 693 m 1,0,-1
 480 576 l 1,1,-1
 457 605 l 2,2,3
 448 617 448 617 439.5 626.5 c 128,-1,4
 431 636 431 636 426 637 c 0,5,6
 367 643 367 643 310.5 627 c 128,-1,7
 254 611 254 611 206.5 575 c 128,-1,8
 159 539 159 539 129.5 483.5 c 128,-1,9
 100 428 100 428 96 355 c 0,10,11
 91 285 91 285 108.5 226 c 128,-1,12
 126 167 126 167 168.5 126 c 128,-1,13
 211 85 211 85 272 65.5 c 128,-1,14
 333 46 333 46 418 60 c 1,15,-1
 392 339 l 1,16,-1
 210 331 l 1,17,-1
 207 390 l 1,18,-1
 444 394 l 1,19,-1
 492 17 l 5,20,21
 355 -10 355 -10 244 14 c 0,22,23
 197 24 197 24 152.5 46.5 c 128,-1,24
 108 69 108 69 75.5 109 c 128,-1,25
 43 149 43 149 25.5 209.5 c 128,-1,26
 8 270 8 270 15 357 c 0,27,28
 18 416 18 416 43 465.5 c 128,-1,29
 68 515 68 515 105.5 557.5 c 128,-1,30
 143 600 143 600 190.5 628 c 128,-1,31
 238 656 238 656 288.5 673 c 128,-1,32
 339 690 339 690 388 694 c 128,-1,33
 437 698 437 698 477 693 c 1,0,-1
EndSplineSet
Substitution2: "mark-downsizer-1" G.mark
EndChar

StartChar: H
Encoding: 72 72 40
AltUni2: 00043d.ffffffff.0 0003b7.ffffffff.0 000068.ffffffff.0 00041d.ffffffff.0 000397.ffffffff.0
Width: 522
GlyphClass: 2
Flags: W
AnchorPoint: "bottom" 235 -15 basechar 0
AnchorPoint: "bottomattside" 393 5 basechar 0
AnchorPoint: "top" 245 710 basechar 0
LayerCount: 2
Fore
SplineSet
363 3 m 1,0,1
 377 20 377 20 390 43 c 1,2,3
 391 123 391 123 386 228 c 1,4,-1
 71 215 l 1,5,-1
 69 1 l 1,6,-1
 2 1 l 1,7,-1
 1 696 l 1,8,-1
 109.55584672 699.983700797 l 2,9,10
 105.852907453 697.927927928 105.852907453 697.927927928 79 647 c 0,11,12
 74 630 74 630 71 267 c 1,13,-1
 383 275 l 1,14,-1
 364 689 l 1,15,-1
 436 693 l 1,16,-1
 464 2 l 1,17,-1
 363 3 l 1,0,1
109.55584672 699.983700797 m 2,18,-1
 110 700 l 2,19,20
 109.851924652 700.148075348 109.851924652 700.148075348 109.55584672 699.983700797 c 2,18,-1
EndSplineSet
Substitution2: "mark-downsizer-1" H.mark
EndChar

StartChar: I
Encoding: 73 73 41
AltUni2: 000456.ffffffff.0 0003b9.ffffffff.0 000131.ffffffff.0 000399.ffffffff.0 000406.ffffffff.0
Width: 216
GlyphClass: 2
Flags: W
AnchorPoint: "top" 80 695 basechar 0
AnchorPoint: "bottom" 80 -20 basechar 0
AnchorPoint: "bottomattside" 39 2 basechar 0
LayerCount: 2
Fore
SplineSet
2 699 m 1,0,-1
 138 699 l 1,1,2
 129 691 129 691 122 684 c 0,3,4
 117 678 117 678 111 672 c 128,-1,5
 105 666 105 666 104 662 c 0,6,7
 104 661 104 661 106 359 c 128,-1,8
 108 57 108 57 109 56 c 0,9,10
 111 53 111 53 169 2 c 1,11,-1
 4 0 l 1,12,13
 32 27 32 27 37 37 c 0,14,15
 39 41 39 41 41.5 345.5 c 128,-1,16
 44 650 44 650 44 653 c 0,17,18
 41 658 41 658 35 665.5 c 128,-1,19
 29 673 29 673 2 699 c 1,0,-1
EndSplineSet
Substitution2: "mark-downsizer-1" I.mark
EndChar

StartChar: J
Encoding: 74 74 42
AltUni2: 00006a.ffffffff.0 000237.ffffffff.0
Width: 356
GlyphClass: 2
Flags: W
AnchorPoint: "bottom" 155 -15 basechar 0
AnchorPoint: "bottomattside" 229 26 basechar 0
AnchorPoint: "top" 210 690 basechar 0
LayerCount: 2
Fore
SplineSet
258 699 m 1,0,1
 271 599 271 599 277.5 552 c 128,-1,2
 284 505 284 505 290 445.5 c 128,-1,3
 296 386 296 386 300 324.5 c 128,-1,4
 304 263 304 263 300.5 203 c 128,-1,5
 297 143 297 143 278.5 98 c 128,-1,6
 260 53 260 53 229.5 26 c 128,-1,7
 199 -1 199 -1 153 1 c 0,8,9
 124 2 124 2 103.5 14 c 128,-1,10
 83 26 83 26 66.5 44 c 128,-1,11
 50 62 50 62 39 85 c 128,-1,12
 28 108 28 108 20 131 c 0,13,14
 3 186 3 186 0 255 c 1,15,-1
 66 252 l 1,16,17
 66 238 66 238 68 205 c 128,-1,18
 70 172 70 172 78.5 140.5 c 128,-1,19
 87 109 87 109 112.5 84 c 128,-1,20
 138 59 138 59 165 63 c 0,21,22
 204 68 204 68 222 99 c 128,-1,23
 240 130 240 130 243.5 171.5 c 128,-1,24
 247 213 247 213 244.5 265 c 128,-1,25
 242 317 242 317 236 369 c 0,26,27
 221 496 221 496 186 697 c 1,28,-1
 258 699 l 1,0,1
EndSplineSet
Substitution2: "mark-downsizer-1" J.mark
EndChar

StartChar: K
Encoding: 75 75 43
AltUni2: 00043a.ffffffff.0 0003ba.ffffffff.0 00006b.ffffffff.0 00041a.ffffffff.0 00039a.ffffffff.0
Width: 510
GlyphClass: 2
Flags: W
AnchorPoint: "bottom" 250 -5 basechar 0
AnchorPoint: "bottomattside" 445 69 basechar 0
AnchorPoint: "top" 255 670 basechar 0
LayerCount: 2
Fore
SplineSet
0 699 m 1,0,-1
 141 697 l 1,1,-1
 112 677 l 2,2,3
 82 656 82 656 82 654 c 2,4,-1
 87 470 l 1,5,-1
 385 666 l 1,6,-1
 430 625 l 1,7,-1
 179 477 l 1,8,-1
 488 103 l 1,9,-1
 425 51 l 1,10,-1
 133 448 l 1,11,-1
 85 419 l 1,12,-1
 95 43 l 2,13,14
 96 40 96 40 122 22 c 2,15,-1
 149 4 l 1,16,-1
 3 0 l 1,17,18
 27 41 27 41 27 42 c 2,19,-1
 25 355.5 l 2,20,21
 23 669 23 669 23 670 c 1,22,23
 22 670 22 670 0 699 c 1,0,-1
EndSplineSet
Substitution2: "mark-downsizer-1" K.mark
EndChar

StartChar: L
Encoding: 76 76 44
AltUni2: 00006c.ffffffff.0
Width: 487
GlyphClass: 2
Flags: W
AnchorPoint: "bottom" 240 -25 basechar 0
AnchorPoint: "bottomattside" 446 3 basechar 0
AnchorPoint: "top" 81 728 basechar 0
LayerCount: 2
Fore
SplineSet
0 700 m 1,0,-1
 152 700 l 1,1,2
 115 676 115 676 108.5 668.5 c 128,-1,3
 102 661 102 661 101 659 c 0,4,5
 100 658 100 658 99 630.5 c 128,-1,6
 98 603 98 603 97 55 c 1,7,8
 395 62 395 62 398 65 c 0,9,10
 403 66 403 66 448 123 c 1,11,-1
 447 1 l 1,12,-1
 32 -1 l 1,13,-1
 28 675 l 1,14,15
 15 686 15 686 0 700 c 1,0,-1
EndSplineSet
Substitution2: "mark-downsizer-1" L.mark
EndChar

StartChar: M
Encoding: 77 77 45
AltUni2: 00043c.ffffffff.0 0003bc.ffffffff.0 00006d.ffffffff.0 00041c.ffffffff.0 00039c.ffffffff.0
Width: 608
GlyphClass: 2
Flags: W
AnchorPoint: "bottom" 305 0 basechar 0
AnchorPoint: "bottomattside" 494 32 basechar 0
AnchorPoint: "top" 315 660 basechar 0
LayerCount: 2
Fore
SplineSet
10 699 m 1,0,-1
 138 696 l 1,1,-1
 318 298 l 1,2,-1
 492 656 l 1,3,-1
 555 660 l 1,4,-1
 554 31 l 1,5,-1
 436 30 l 1,6,7
 447 35 447 35 457 40 c 0,8,9
 465 44 465 44 485 57 c 0,10,11
 486 58 486 58 488 545 c 1,12,-1
 298 162 l 1,13,-1
 95 606 l 1,14,15
 105 35 105 35 107 34 c 0,16,17
 109 31 109 31 123 25 c 128,-1,18
 137 19 137 19 181 1 c 1,19,-1
 1 1 l 1,20,21
 13 10 13 10 25 19 c 0,22,23
 34 27 34 27 42 34.5 c 128,-1,24
 50 42 50 42 51 46 c 0,25,26
 51 49 51 49 48.5 349.5 c 128,-1,27
 46 650 46 650 45 651 c 0,28,29
 43 654 43 654 37.5 662 c 128,-1,30
 32 670 32 670 26 679 c 0,31,32
 19 689 19 689 10 699 c 1,0,-1
EndSplineSet
Substitution2: "mark-downsizer-1" M.mark
EndChar

StartChar: N
Encoding: 78 78 46
AltUni2: 0003bd.ffffffff.0 00006e.ffffffff.0 00039d.ffffffff.0
Width: 530
GlyphClass: 2
Flags: W
AnchorPoint: "bottom" 260 -10 basechar 0
AnchorPoint: "bottomattside" 476 25 basechar 0
AnchorPoint: "top" 217 687 basechar 0
LayerCount: 2
Fore
SplineSet
6 660 m 1,0,-1
 80 663 l 1,1,-1
 423 199 l 1,2,3
 417 657 417 657 416 660 c 0,4,5
 413 663 413 663 406 670 c 128,-1,6
 399 677 399 677 391 684 c 2,7,-1
 370 698 l 1,8,-1
 471 699 l 1,9,-1
 477 2 l 1,10,-1
 63 553 l 1,11,12
 82 48 82 48 83 43 c 0,13,14
 86 38 86 38 94 30 c 128,-1,15
 102 22 102 22 111 16 c 0,16,17
 122 8 122 8 135 1 c 1,18,-1
 0 1 l 1,19,-1
 28 33 l 1,20,-1
 6 660 l 1,0,-1
EndSplineSet
Substitution2: "mark-downsizer-1" N.mark
EndChar

StartChar: O
Encoding: 79 79 47
AltUni2: 00043e.ffffffff.0 00006f.ffffffff.0 00041e.ffffffff.0 00039f.ffffffff.0 0003bf.ffffffff.0
Width: 639
GlyphClass: 2
Flags: W
AnchorPoint: "bottom" 315 -20 basechar 0
AnchorPoint: "bottomattside" 396 19 basechar 0
AnchorPoint: "top" 291 689 basechar 0
LayerCount: 2
Fore
SplineSet
519 344 m 4,0,1
 524 415 524 415 511.5 466 c 132,-1,2
 499 517 499 517 476.5 553 c 132,-1,3
 454 589 454 589 427 611.5 c 132,-1,4
 400 634 400 634 369 646.5 c 132,-1,5
 338 659 338 659 300 660 c 4,6,7
 295 660 295 660 279.5 659.5 c 132,-1,8
 264 659 264 659 243.5 654.5 c 132,-1,9
 223 650 223 650 201.5 638.5 c 132,-1,10
 180 627 180 627 157 605.5 c 132,-1,11
 134 584 134 584 117 542 c 132,-1,12
 100 500 100 500 93 439 c 4,13,14
 82 347 82 347 99 272.5 c 132,-1,15
 116 198 116 198 149 145.5 c 132,-1,16
 182 93 182 93 226 65.5 c 132,-1,17
 270 38 270 38 313 40 c 4,18,19
 335 40 335 40 367 48.5 c 132,-1,20
 399 57 399 57 430 87 c 132,-1,21
 461 117 461 117 486 177.5 c 132,-1,22
 511 238 511 238 519 344 c 4,0,1
297 701 m 4,23,24
 378 700 378 700 444 670 c 4,25,26
 473 658 473 658 500 637 c 132,-1,27
 527 616 527 616 549.5 583.5 c 132,-1,28
 572 551 572 551 586 505.5 c 132,-1,29
 600 460 600 460 603 401 c 4,30,31
 604 302 604 302 579 228 c 132,-1,32
 554 154 554 154 512 104 c 132,-1,33
 470 54 470 54 416.5 28 c 132,-1,34
 363 2 363 2 307 1 c 132,-1,35
 251 0 251 0 195.5 21 c 132,-1,36
 140 42 140 42 96.5 87.5 c 132,-1,37
 53 133 53 133 28 204 c 132,-1,38
 3 275 3 275 9 373 c 4,39,40
 13 465 13 465 39.5 525 c 132,-1,41
 66 585 66 585 101 621 c 132,-1,42
 136 657 136 657 183.5 678.5 c 132,-1,43
 231 700 231 700 297 701 c 4,23,24
EndSplineSet
Substitution2: "mark-downsizer-1" O.mark
EndChar

StartChar: P
Encoding: 80 80 48
AltUni2: 000440.ffffffff.0 000070.ffffffff.0 000420.ffffffff.0 0003a1.ffffffff.0 0003c1.ffffffff.0
Width: 484
GlyphClass: 2
Flags: W
AnchorPoint: "bottom" 105 -20 basechar 0
AnchorPoint: "bottomattside" 69 6 basechar 0
AnchorPoint: "top" 250 685 basechar 0
LayerCount: 2
Fore
SplineSet
1 689 m 1,0,1
 124 702 124 702 222 695 c 0,2,3
 264 691 264 691 303.5 681.5 c 128,-1,4
 343 672 343 672 374.5 656.5 c 128,-1,5
 406 641 406 641 425.5 617 c 128,-1,6
 445 593 445 593 445 559 c 0,7,8
 445 514 445 514 427.5 484 c 128,-1,9
 410 454 410 454 381 435 c 128,-1,10
 352 416 352 416 316 407 c 128,-1,11
 280 398 280 398 243 394 c 0,12,13
 206.496227274 390.053646192 206.496227274 390.053646192 120.351259087 386.107292384 c 1,14,15
 132 64.7447831552 132 64.7447831552 132 64 c 0,16,17
 134 62 134 62 142.5 53 c 128,-1,18
 151 44 151 44 161 35 c 0,19,20
 173 23 173 23 187 10 c 1,21,-1
 30 3 l 1,22,23
 38 10 38 10 44 15 c 0,24,25
 50 21 50 21 54.5 25.5 c 128,-1,26
 59 30 59 30 60 32 c 0,27,28
 60 34 60 34 55 638 c 1,29,-1
 4 632 l 1,30,-1
 1 689 l 1,0,1
118.906840194 425.952856367 m 1,31,32
 194.719261062 424.173614739 194.719261062 424.173614739 252 438 c 0,33,34
 277 444 277 444 300.5 453 c 128,-1,35
 324 462 324 462 341.5 475 c 128,-1,36
 359 488 359 488 367.5 505.5 c 128,-1,37
 376 523 376 523 373 547 c 0,38,39
 365 592 365 592 333 614 c 128,-1,40
 301 636 301 636 260.5 644 c 128,-1,41
 220 652 220 652 178.5 649.5 c 128,-1,42
 137 647 137 647 111 644 c 1,43,44
 115.418192019 522.184134335 115.418192019 522.184134335 118.906840194 425.952856367 c 1,31,32
EndSplineSet
Substitution2: "mark-downsizer-1" P.mark
EndChar

StartChar: Q
Encoding: 81 81 49
AltUni2: 000071.ffffffff.0
Width: 624
GlyphClass: 2
Flags: W
AnchorPoint: "bottom" 300 -20 basechar 0
AnchorPoint: "bottomattside" 389 21 basechar 0
AnchorPoint: "top" 310 695 basechar 0
LayerCount: 2
Fore
SplineSet
448 100 m 1,0,1
 469 126 469 126 484.5 166.5 c 128,-1,2
 500 207 500 207 507 268 c 0,3,4
 517 359 517 359 499 432 c 128,-1,5
 481 505 481 505 448 557 c 128,-1,6
 415 609 415 609 371 636 c 128,-1,7
 327 663 327 663 286 661 c 0,8,9
 264 660 264 660 237.5 651 c 128,-1,10
 211 642 211 642 175.5 612 c 128,-1,11
 140 582 140 582 116 522.5 c 128,-1,12
 92 463 92 463 85 358 c 0,13,14
 82 288 82 288 95 237.5 c 128,-1,15
 108 187 108 187 130 152 c 128,-1,16
 152 117 152 117 179.5 95 c 128,-1,17
 207 73 207 73 232 61.5 c 128,-1,18
 257 50 257 50 277 45.5 c 128,-1,19
 297 41 297 41 302 41 c 0,20,21
 311 39 311 39 338 41 c 128,-1,22
 365 43 365 43 398 60 c 1,23,-1
 292 186 l 1,24,-1
 332 217 l 1,25,-1
 448 100 l 1,0,1
589 336 m 0,26,27
 584 230 584 230 552.5 167 c 128,-1,28
 521 104 521 104 479 69 c 1,29,-1
 556 -8 l 1,30,-1
 496 -57 l 1,31,-1
 421 33 l 1,32,33
 400 24 400 24 381.5 18.5 c 128,-1,34
 363 13 363 13 348 11 c 128,-1,35
 333 9 333 9 323 8.5 c 128,-1,36
 313 8 313 8 309 8 c 0,37,38
 304 8 304 8 279.5 8.5 c 128,-1,39
 255 9 255 9 222.5 16.5 c 128,-1,40
 190 24 190 24 153 41 c 128,-1,41
 116 58 116 58 84 90 c 128,-1,42
 52 122 52 122 29.5 173 c 128,-1,43
 7 224 7 224 3 300 c 0,44,45
 1 397 1 397 25 471.5 c 128,-1,46
 49 546 49 546 89.5 595.5 c 128,-1,47
 130 645 130 645 183 671 c 128,-1,48
 236 697 236 697 291 699 c 0,49,50
 346 700 346 700 401.5 680 c 128,-1,51
 457 660 457 660 500 615 c 128,-1,52
 543 570 543 570 568.5 500.5 c 128,-1,53
 594 431 594 431 589 336 c 0,26,27
EndSplineSet
Substitution2: "mark-downsizer-1" Q.mark
EndChar

StartChar: R
Encoding: 82 82 50
AltUni2: 000072.ffffffff.0
Width: 600
GlyphClass: 2
Flags: W
AnchorPoint: "bottom" 300 0 basechar 0
AnchorPoint: "bottomattside" 533 51 basechar 0
AnchorPoint: "top" 232 681 basechar 0
LayerCount: 2
Fore
SplineSet
122 350 m 1,0,1
 207 352 207 352 275 367 c 0,2,3
 303 374 303 374 335 386.5 c 128,-1,4
 367 399 367 399 387 417.5 c 128,-1,5
 407 436 407 436 420 460.5 c 128,-1,6
 433 485 433 485 431 519 c 0,7,8
 427 552 427 552 410.5 575.5 c 128,-1,9
 394 599 394 599 371.5 614 c 128,-1,10
 349 629 349 629 320 637 c 128,-1,11
 291 645 291 645 255 650 c 0,12,13
 186 656 186 656 106 646 c 1,14,-1
 122 350 l 1,0,1
576 84 m 1,15,-1
 513 33 l 1,16,17
 457 118 457 118 414 185 c 0,18,19
 393 215 393 215 374.5 242 c 128,-1,20
 356 269 356 269 341 291 c 0,21,22
 326 316 326 316 311 334 c 1,23,24
 303 332 303 332 276 327 c 128,-1,25
 249 322 249 322 214 317 c 0,26,27
 172 311 172 311 126 308 c 1,28,29
 139 75 139 75 139 73 c 0,30,31
 139 70 139 70 148 59.5 c 128,-1,32
 157 49 157 49 169 36 c 0,33,34
 181 22 181 22 197 7 c 1,35,-1
 46 1 l 1,36,37
 54 12 54 12 60 23 c 0,38,39
 66 32 66 32 70 38.5 c 128,-1,40
 74 45 74 45 74 47 c 128,-1,41
 74 49 74 49 51 642 c 1,42,-1
 6 638 l 1,43,-1
 0 697 l 1,44,45
 49 699 49 699 104.5 700 c 128,-1,46
 160 701 160 701 216 699 c 128,-1,47
 272 697 272 697 323.5 688.5 c 128,-1,48
 375 680 375 680 415 659 c 128,-1,49
 455 638 455 638 479.5 603.5 c 128,-1,50
 504 569 504 569 506 515 c 0,51,52
 506 462 506 462 482.5 430 c 128,-1,53
 459 398 459 398 431 380 c 0,54,55
 398 360 398 360 356 347 c 1,56,-1
 576 84 l 1,15,-1
EndSplineSet
Substitution2: "mark-downsizer-1" R.mark
EndChar

StartChar: S
Encoding: 83 83 51
AltUni2: 00017f.ffffffff.0 000073.ffffffff.0
Width: 380
GlyphClass: 2
Flags: W
AnchorPoint: "bottom" 204 -3 basechar 0
AnchorPoint: "bottomattside" 288 43 basechar 0
AnchorPoint: "top" 166 664 basechar 0
LayerCount: 2
Fore
SplineSet
331 698 m 1,0,-1
 331 632 l 1,1,2
 319 636 319 636 301 640 c 128,-1,3
 283 644 283 644 267.5 644.5 c 128,-1,4
 252 645 252 645 222.5 639.5 c 128,-1,5
 193 634 193 634 164 615 c 128,-1,6
 135 596 135 596 107.5 565.5 c 128,-1,7
 80 535 80 535 78 477 c 0,8,9
 78 438 78 438 102 407 c 128,-1,10
 126 376 126 376 153.5 356.5 c 128,-1,11
 181 337 181 337 213 318.5 c 128,-1,12
 245 300 245 300 273.5 277.5 c 128,-1,13
 302 255 302 255 321.5 225.5 c 128,-1,14
 341 196 341 196 342 153 c 0,15,16
 343 119 343 119 331 94 c 128,-1,17
 319 69 319 69 299 51.5 c 128,-1,18
 279 34 279 34 253 24 c 128,-1,19
 227 14 227 14 200 9 c 0,20,21
 136 -3 136 -3 53 4 c 1,22,-1
 75 120 l 1,23,24
 81 105 81 105 85 92 c 0,25,26
 90 81 90 81 94.5 71 c 128,-1,27
 99 61 99 61 103 56 c 0,28,29
 106 53 106 53 123 51 c 128,-1,30
 140 49 140 49 162 51.5 c 128,-1,31
 184 54 184 54 208 62.5 c 128,-1,32
 232 71 232 71 248 88 c 128,-1,33
 264 105 264 105 267 133 c 128,-1,34
 270 161 270 161 251 203 c 1,35,36
 230 237 230 237 205.5 258.5 c 128,-1,37
 181 280 181 280 154 296 c 128,-1,38
 127 312 127 312 101 325.5 c 128,-1,39
 75 339 75 339 54 356 c 128,-1,40
 33 373 33 373 18.5 396.5 c 128,-1,41
 4 420 4 420 3 457 c 0,42,43
 1 513 1 513 27 558.5 c 128,-1,44
 53 604 53 604 98.5 635.5 c 128,-1,45
 144 667 144 667 203.5 683.5 c 128,-1,46
 263 700 263 700 331 698 c 1,0,-1
EndSplineSet
Substitution2: "mark-downsizer-1" S.mark
EndChar

StartChar: T
Encoding: 84 84 52
AltUni2: 000442.ffffffff.0 0003c4.ffffffff.0 000074.ffffffff.0 000422.ffffffff.0 0003a4.ffffffff.0
Width: 550
GlyphClass: 2
Flags: W
AnchorPoint: "bottom" 248 -10 basechar 0
AnchorPoint: "bottomattside" 200 3 basechar 0
AnchorPoint: "top" 240 678 basechar 0
LayerCount: 2
Fore
SplineSet
513 698 m 1,0,-1
 515 584 l 1,1,2
 508 595 508 595 501 607 c 0,3,4
 496 616 496 616 489.5 624.5 c 128,-1,5
 483 633 483 633 478 636 c 0,6,7
 472 640 472 640 269 635 c 1,8,9
 288 63 288 63 288 61 c 0,10,11
 289 55 289 55 310 31 c 2,12,-1
 335 0 l 1,13,-1
 146 1 l 1,14,15
 188 27 188 27 198 35 c 128,-1,16
 208 43 208 43 213 47 c 0,17,18
 217 52 217 52 204 634 c 1,19,20
 52 633 52 633 48 632 c 2,21,-1
 27 610 l 2,22,23
 15 596 15 596 1 580 c 1,24,-1
 2 678 l 1,25,-1
 513 698 l 1,0,-1
EndSplineSet
Substitution2: "mark-downsizer-1" T.mark
EndChar

StartChar: U
Encoding: 85 85 53
AltUni2: 000075.ffffffff.0
Width: 540
GlyphClass: 2
Flags: W
AnchorPoint: "bottom" 295 -25 basechar 0
AnchorPoint: "bottomattside" 404 39 basechar 0
AnchorPoint: "top" 232 702 basechar 0
LayerCount: 2
Fore
SplineSet
1 699 m 1,0,-1
 131 696 l 1,1,2
 121 682 121 682 112 670 c 0,3,4
 104 658 104 658 97.5 647 c 128,-1,5
 91 636 91 636 90 628 c 0,6,7
 90 566 90 566 91.5 502.5 c 128,-1,8
 93 439 93 439 99 378.5 c 128,-1,9
 105 318 105 318 117 262.5 c 128,-1,10
 129 207 129 207 149 164 c 128,-1,11
 169 121 169 121 202.5 93.5 c 128,-1,12
 236 66 236 66 281 59 c 0,13,14
 324 54 324 54 353 92 c 128,-1,15
 382 130 382 130 398 191.5 c 128,-1,16
 414 253 414 253 416.5 327 c 128,-1,17
 419 401 419 401 418 467 c 128,-1,18
 417 533 417 533 409.5 582 c 128,-1,19
 402 631 402 631 392 642 c 0,20,21
 391 644 391 644 384 650.5 c 128,-1,22
 377 657 377 657 369 664 c 2,23,-1
 349 682 l 1,24,-1
 419 682 l 1,25,-1
 488 683 l 1,26,27
 489 613 489 613 491.5 532.5 c 128,-1,28
 494 452 494 452 491.5 373 c 128,-1,29
 489 294 489 294 479.5 222 c 128,-1,30
 470 150 470 150 445.5 98 c 128,-1,31
 421 46 421 46 380 20 c 128,-1,32
 339 -6 339 -6 276 5 c 0,33,34
 202 19 202 19 155 64 c 128,-1,35
 108 109 108 109 79.5 170.5 c 128,-1,36
 51 232 51 232 38 304.5 c 128,-1,37
 25 377 25 377 20.5 445 c 128,-1,38
 16 513 16 513 16 571 c 128,-1,39
 16 629 16 629 13 661 c 1,40,-1
 6 684 l 2,41,42
 3 691 3 691 1 699 c 1,0,-1
EndSplineSet
Substitution2: "mark-downsizer-1" U.mark
EndChar

StartChar: V
Encoding: 86 86 54
AltUni2: 000076.ffffffff.0
Width: 537
GlyphClass: 2
Flags: W
AnchorPoint: "bottom" 285 -20 basechar 0
AnchorPoint: "bottomattside" 304 44 basechar 0
AnchorPoint: "top" 290 685 basechar 0
LayerCount: 2
Fore
SplineSet
3 688 m 1,0,-1
 151 699 l 1,1,2
 137 683 137 683 128 671 c 0,3,4
 117 659 117 659 105 638 c 0,5,6
 105 636 105 636 289 170 c 1,7,-1
 435 692 l 1,8,-1
 501 692 l 1,9,-1
 291 1 l 1,10,-1
 3 688 l 1,0,-1
EndSplineSet
Substitution2: "mark-downsizer-1" V.mark
EndChar

StartChar: W
Encoding: 87 87 55
AltUni2: 000077.ffffffff.0
Width: 675
GlyphClass: 2
Flags: W
AnchorPoint: "bottom" 330 -15 basechar 0
AnchorPoint: "bottomattside" 485 8 basechar 0
AnchorPoint: "top" 320 660 basechar 0
LayerCount: 2
Fore
SplineSet
0 688 m 1,0,-1
 116 688 l 1,1,-1
 83 661 l 2,2,3
 77 653 77 653 76 649 c 2,4,-1
 180 102 l 1,5,-1
 337 471 l 1,6,-1
 483 125 l 1,7,8
 551 564 551 564 552.5 585 c 128,-1,9
 554 606 554 606 552 608 c 0,10,11
 550 613 550 613 541 621 c 128,-1,12
 532 629 532 629 522 637 c 0,13,14
 509 646 509 646 494 655 c 1,15,-1
 648 659 l 1,16,17
 643 650 643 650 637 637 c 0,18,19
 631 625 631 625 627 606 c 2,20,-1
 523 7 l 1,21,-1
 455 6 l 1,22,-1
 332 334 l 1,23,-1
 199 4 l 1,24,-1
 130 2 l 1,25,-1
 0 688 l 1,0,-1
EndSplineSet
Substitution2: "mark-downsizer-1" W.mark
EndChar

StartChar: X
Encoding: 88 88 56
AltUni2: 000445.ffffffff.0 000078.ffffffff.0 000425.ffffffff.0 0003a7.ffffffff.0 0003c7.ffffffff.0
Width: 561
GlyphClass: 2
Flags: W
AnchorPoint: "bottom" 270 10 basechar 0
AnchorPoint: "bottomattside" 493 17 basechar 0
AnchorPoint: "top" 285 670 basechar 0
LayerCount: 2
Fore
SplineSet
471 2 m 1,0,-1
 258 317 l 1,1,-1
 55 26 l 1,2,-1
 1 58 l 1,3,-1
 225 369 l 1,4,-1
 29 661 l 1,5,-1
 102 700 l 1,6,-1
 273 427 l 1,7,-1
 432 670 l 1,8,-1
 489 650 l 1,9,-1
 307 378 l 1,10,-1
 538 47 l 1,11,-1
 471 2 l 1,0,-1
EndSplineSet
Substitution2: "mark-downsizer-1" X.mark
EndChar

StartChar: Y
Encoding: 89 89 57
AltUni2: 0003c5.ffffffff.0 000079.ffffffff.0 0003a5.ffffffff.0
Width: 550
GlyphClass: 2
Flags: W
AnchorPoint: "bottom" 275 -30 basechar 0
AnchorPoint: "bottomattside" 234 3 basechar 0
AnchorPoint: "top" 259 695 basechar 0
LayerCount: 2
Fore
SplineSet
0 699 m 1,0,-1
 117 694 l 1,1,-1
 103 683 l 2,2,3
 98 679 98 679 94 674 c 128,-1,4
 90 669 90 669 89 667 c 0,5,6
 89 665 89 665 259 403 c 1,7,8
 419 649 419 649 418 651 c 0,9,10
 416 655 416 655 410 661 c 128,-1,11
 404 667 404 667 397 674 c 0,12,13
 389 682 389 682 379 691 c 1,14,-1
 536 685 l 1,15,-1
 490 643 l 1,16,-1
 297 347 l 1,17,-1
 315 35 l 1,18,-1
 358 1 l 1,19,-1
 178 1 l 1,20,21
 219 25 219 25 229 33 c 128,-1,22
 239 41 239 41 241 46 c 0,23,24
 242 49 242 49 242 64 c 128,-1,25
 242 79 242 79 242 102 c 128,-1,26
 242 125 242 125 241 153 c 128,-1,27
 240 181 240 181 239 210 c 0,28,29
 235 278 235 278 232 353 c 1,30,31
 143 494 143 494 115.5 534.5 c 128,-1,32
 88 575 88 575 63.5 609.5 c 128,-1,33
 39 644 39 644 21 669 c 128,-1,34
 3 694 3 694 0 699 c 1,0,-1
EndSplineSet
Substitution2: "mark-downsizer-1" Y.mark
EndChar

StartChar: Z
Encoding: 90 90 58
AltUni2: 0003b6.ffffffff.0 00007a.ffffffff.0 000396.ffffffff.0
Width: 511
GlyphClass: 2
Flags: W
AnchorPoint: "bottom" 235 -15 basechar 0
AnchorPoint: "bottomattside" 475 7 basechar 0
AnchorPoint: "top" 225 688 basechar 0
LayerCount: 2
Fore
SplineSet
449 694 m 1,0,-1
 102 82 l 1,1,2
 408 76 408 76 410 77 c 0,3,4
 436 97 436 97 448 107 c 0,5,6
 461 119 461 119 474 134 c 1,7,-1
 475 4 l 1,8,-1
 1 19 l 1,9,-1
 353 630 l 1,10,-1
 100 614 l 1,11,12
 84 605 84 605 68 585 c 0,13,14
 50 568 50 568 32 547 c 1,15,-1
 29 676 l 1,16,-1
 449 694 l 1,0,-1
EndSplineSet
Substitution2: "mark-downsizer-1" Z.mark
EndChar

StartChar: bracketleft
Encoding: 91 91 59
Width: 181
GlyphClass: 2
Flags: W
LayerCount: 2
Fore
SplineSet
128 697 m 1,0,-1
 128 626 l 1,1,-1
 62 626 l 1,2,-1
 72 46 l 1,3,-1
 149 54 l 1,4,-1
 149 6 l 1,5,-1
 35 1 l 1,6,-1
 1 670 l 1,7,-1
 128 697 l 1,0,-1
EndSplineSet
EndChar

StartChar: backslash
Encoding: 92 92 60
Width: 291
GlyphClass: 2
Flags: W
LayerCount: 2
Fore
SplineSet
255 73 m 1,0,-1
 222 62 l 1,1,-1
 9 550 l 1,2,-1
 69 560 l 1,3,-1
 255 73 l 1,0,-1
EndSplineSet
EndChar

StartChar: bracketright
Encoding: 93 93 61
Width: 190
GlyphClass: 2
Flags: W
LayerCount: 2
Fore
SplineSet
31 0 m 1,0,-1
 30 72 l 1,1,-1
 93 73 l 1,2,-1
 77 654 l 1,3,-1
 3 643 l 1,4,-1
 1 689 l 1,5,-1
 107 699 l 1,6,-1
 151 30 l 1,7,-1
 31 0 l 1,0,-1
EndSplineSet
EndChar

StartChar: asciicircum
Encoding: 94 94 62
Width: 215
GlyphClass: 2
Flags: W
LayerCount: 2
Fore
SplineSet
2 507 m 1,0,-1
 70 653 l 1,1,-1
 166 543 l 1,2,-1
 148 531 l 1,3,-1
 74 621 l 1,4,-1
 35 493 l 1,5,-1
 2 507 l 1,0,-1
EndSplineSet
EndChar

StartChar: underscore
Encoding: 95 95 63
Width: 360
GlyphClass: 2
Flags: W
LayerCount: 2
Fore
SplineSet
3 -15 m 1,0,-1
 311 1 l 1,1,-1
 308 -52 l 1,2,-1
 7 -46 l 1,3,-1
 3 -15 l 1,0,-1
EndSplineSet
EndChar

StartChar: grave
Encoding: 96 96 64
Width: 149
GlyphClass: 2
Flags: W
LayerCount: 2
Fore
SplineSet
61 786 m 1,0,-1
 111 721 l 1,1,-1
 101 713 l 1,2,-1
 44 770 l 1,3,-1
 61 786 l 1,0,-1
EndSplineSet
EndChar

StartChar: braceleft
Encoding: 123 123 65
Width: 249
GlyphClass: 2
Flags: W
LayerCount: 2
Fore
SplineSet
146 697 m 0,0,1
 147 695 147 695 148.5 686 c 128,-1,2
 150 677 150 677 152 665 c 2,3,-1
 156 633 l 1,4,5
 126 633 126 633 102 624 c 0,6,7
 82 616 82 616 65 599.5 c 128,-1,8
 48 583 48 583 48 550 c 128,-1,9
 48 517 48 517 56.5 487 c 128,-1,10
 65 457 65 457 76 431.5 c 128,-1,11
 87 406 87 406 95.5 385.5 c 128,-1,12
 104 365 104 365 102 352 c 0,13,14
 100 326 100 326 88 315 c 128,-1,15
 76 304 76 304 70 300 c 1,16,17
 72 296 72 296 75.5 295 c 128,-1,18
 79 294 79 294 82 290 c 128,-1,19
 85 286 85 286 88 277 c 128,-1,20
 91 268 91 268 94 250 c 0,21,22
 96 237 96 237 95 217.5 c 128,-1,23
 94 198 94 198 94 175 c 128,-1,24
 94 152 94 152 97.5 129.5 c 128,-1,25
 101 107 101 107 112.5 90.5 c 128,-1,26
 124 74 124 74 146.5 66.5 c 128,-1,27
 169 59 169 59 205 67 c 1,28,-1
 206 7 l 1,29,30
 171 -2 171 -2 141 4 c 0,31,32
 115 9 115 9 90.5 29 c 128,-1,33
 66 49 66 49 57 98 c 0,34,35
 54 133 54 133 57 162 c 128,-1,36
 60 191 60 191 58.5 214.5 c 128,-1,37
 57 238 57 238 45.5 258.5 c 128,-1,38
 34 279 34 279 1 297 c 1,39,40
 28 304 28 304 39 323.5 c 128,-1,41
 50 343 50 343 49.5 369 c 128,-1,42
 49 395 49 395 41 424.5 c 128,-1,43
 33 454 33 454 23.5 481 c 128,-1,44
 14 508 14 508 7 531.5 c 128,-1,45
 0 555 0 555 1 568 c 0,46,47
 1 581 1 581 5 603.5 c 128,-1,48
 9 626 9 626 24 647.5 c 128,-1,49
 39 669 39 669 68 684.5 c 128,-1,50
 97 700 97 700 146 697 c 0,0,1
EndSplineSet
EndChar

StartChar: bar
Encoding: 124 124 66
Width: 149
GlyphClass: 2
Flags: W
LayerCount: 2
Fore
SplineSet
39 658 m 1,0,-1
 98 653 l 1,1,-1
 72 68 l 1,2,-1
 39 68 l 1,3,-1
 39 658 l 1,0,-1
EndSplineSet
EndChar

StartChar: braceright
Encoding: 125 125 67
Width: 250
GlyphClass: 2
Flags: W
LayerCount: 2
Fore
SplineSet
59 1 m 0,0,1
 57 3 57 3 56 12.5 c 128,-1,2
 55 22 55 22 53 34 c 0,3,4
 51 48 51 48 49 65 c 1,5,6
 78 65 78 65 101 74 c 0,7,8
 121 82 121 82 136.5 98.5 c 128,-1,9
 152 115 152 115 153 148 c 128,-1,10
 154 181 154 181 145.5 211 c 128,-1,11
 137 241 137 241 126.5 266.5 c 128,-1,12
 116 292 116 292 107.5 311.5 c 128,-1,13
 99 331 99 331 100 345 c 0,14,15
 101 358 101 358 105.5 367 c 128,-1,16
 110 376 110 376 115 382 c 128,-1,17
 120 388 120 388 124.5 391 c 128,-1,18
 129 394 129 394 132 397 c 0,19,20
 130 400 130 400 127 401.5 c 128,-1,21
 124 403 124 403 121 407 c 128,-1,22
 118 411 118 411 114.5 419.5 c 128,-1,23
 111 428 111 428 108 446 c 0,24,25
 106 459 106 459 107.5 479 c 128,-1,26
 109 499 109 499 109 522 c 128,-1,27
 109 545 109 545 105.5 567.5 c 128,-1,28
 102 590 102 590 91 606 c 128,-1,29
 80 622 80 622 58.5 629 c 128,-1,30
 37 636 37 636 2 629 c 1,31,-1
 1 689 l 1,32,33
 35 697 35 697 64 691 c 0,34,35
 89 686 89 686 112 666 c 128,-1,36
 135 646 135 646 145 599 c 1,37,38
 148 564 148 564 145 535 c 128,-1,39
 142 506 142 506 143 482 c 128,-1,40
 144 458 144 458 155 437.5 c 128,-1,41
 166 417 166 417 198 400 c 1,42,43
 171 392 171 392 161 373 c 128,-1,44
 151 354 151 354 151.5 328.5 c 128,-1,45
 152 303 152 303 159.5 273.5 c 128,-1,46
 167 244 167 244 176 216.5 c 128,-1,47
 185 189 185 189 192 166 c 128,-1,48
 199 143 199 143 198 129 c 0,49,50
 198 117 198 117 194 94 c 128,-1,51
 190 71 190 71 175.5 49.5 c 128,-1,52
 161 28 161 28 133.5 13 c 128,-1,53
 106 -2 106 -2 59 1 c 0,0,1
EndSplineSet
EndChar

StartChar: asciitilde
Encoding: 126 126 68
Width: 270
GlyphClass: 2
Flags: W
LayerCount: 2
Fore
SplineSet
0 273 m 1,0,1
 15 293 15 293 32 309 c 0,2,3
 46 323 46 323 62.5 334.5 c 128,-1,4
 79 346 79 346 93 348 c 0,5,6
 107 349 107 349 116.5 340.5 c 128,-1,7
 126 332 126 332 133.5 320.5 c 128,-1,8
 141 309 141 309 148.5 300 c 128,-1,9
 156 291 156 291 165 291 c 0,10,11
 172 291 172 291 176 303 c 128,-1,12
 180 315 180 315 183 330 c 0,13,14
 186 348 186 348 188 370 c 1,15,-1
 222 361 l 2,16,17
 223 361 223 361 218 345 c 128,-1,18
 213 329 213 329 205 310 c 128,-1,19
 197 291 197 291 186.5 275 c 128,-1,20
 176 259 176 259 166 259 c 0,21,22
 150 259 150 259 142 266 c 128,-1,23
 134 273 134 273 128.5 281 c 128,-1,24
 123 289 123 289 117 296.5 c 128,-1,25
 111 304 111 304 98 304 c 0,26,27
 84 305 84 305 71.5 296.5 c 128,-1,28
 59 288 59 288 50 277 c 0,29,30
 39 265 39 265 30 248 c 1,31,-1
 0 273 l 1,0,1
EndSplineSet
EndChar

StartChar: exclamdown
Encoding: 161 161 69
Width: 186
GlyphClass: 2
Flags: W
LayerCount: 2
Fore
SplineSet
109 600 m 0,0,1
 93 598 93 598 79 608.5 c 128,-1,2
 65 619 65 619 62 639 c 0,3,4
 59 657 59 657 68 672 c 128,-1,5
 77 687 77 687 93 691 c 0,6,7
 109 693 109 693 122 682.5 c 128,-1,8
 135 672 135 672 139 652 c 0,9,10
 142 634 142 634 133 619 c 128,-1,11
 124 604 124 604 109 600 c 0,0,1
83 541 m 1,12,-1
 125 534 l 1,13,-1
 113 18 l 1,14,-1
 13 27 l 1,15,-1
 83 541 l 1,12,-1
EndSplineSet
EndChar

StartChar: cent
Encoding: 162 162 70
Width: 299
GlyphClass: 2
Flags: W
LayerCount: 2
Fore
SplineSet
212 615 m 2,0,1
 231 615 231 615 246.5 608 c 128,-1,2
 262 601 262 601 273 589 c 128,-1,3
 284 577 284 577 290 562 c 128,-1,4
 296 547 296 547 296 531 c 2,5,-1
 296 339 l 2,6,7
 296 325 296 325 287 318 c 128,-1,8
 278 311 278 311 267.5 311 c 128,-1,9
 257 311 257 311 248.5 318 c 128,-1,10
 240 325 240 325 240 339 c 2,11,-1
 240 517 l 1,12,-1
 226 517 l 1,13,-1
 226 35 l 2,14,15
 226 16 226 16 215 6.5 c 128,-1,16
 204 -3 204 -3 191 -3 c 128,-1,17
 178 -3 178 -3 167 6.5 c 128,-1,18
 156 16 156 16 156 35 c 2,19,-1
 156 316 l 1,20,-1
 142 316 l 1,21,-1
 142 35 l 2,22,23
 142 16 142 16 130.5 6.5 c 128,-1,24
 119 -3 119 -3 104.5 -3 c 128,-1,25
 90 -3 90 -3 78.5 6.5 c 128,-1,26
 67 16 67 16 67 35 c 2,27,-1
 67 517 l 1,28,-1
 53 517 l 1,29,-1
 53 339 l 2,30,31
 53 325 53 325 45 318 c 128,-1,32
 37 311 37 311 27 311 c 128,-1,33
 17 311 17 311 9 318 c 128,-1,34
 1 325 1 325 1 339 c 2,35,-1
 1 531 l 2,36,37
 1 566 1 566 23.5 590.5 c 128,-1,38
 46 615 46 615 81 615 c 2,39,-1
 212 615 l 2,0,1
146 629 m 0,40,41
 122 629 122 629 104 647 c 128,-1,42
 86 665 86 665 86 690 c 0,43,44
 86 718 86 718 104 736.5 c 128,-1,45
 122 755 122 755 146 755 c 0,46,47
 175 755 175 755 193.5 736.5 c 128,-1,48
 212 718 212 718 212 690 c 0,49,50
 212 665 212 665 193.5 647 c 128,-1,51
 175 629 175 629 146 629 c 0,40,41
EndSplineSet
EndChar

StartChar: sterling
Encoding: 163 163 71
Width: 410
GlyphClass: 2
Flags: W
LayerCount: 2
Fore
SplineSet
324 142 m 0,0,1
 328 142 328 142 335 148 c 128,-1,2
 342 154 342 154 347 162 c 0,3,4
 353 171 353 171 361 181 c 1,5,-1
 361 83 l 1,6,-1
 53 83 l 1,7,-1
 45 123 l 1,8,-1
 85 124 l 1,9,10
 83 142 83 142 79 171 c 0,11,12
 76 198 76 198 70.5 239.5 c 128,-1,13
 65 281 65 281 60 342 c 1,14,-1
 3 340 l 1,15,-1
 1 368 l 1,16,-1
 57 373 l 1,17,18
 49 462 49 462 65 512 c 128,-1,19
 81 562 81 562 107 585.5 c 128,-1,20
 133 609 133 609 166.5 611.5 c 128,-1,21
 200 614 200 614 229 607.5 c 128,-1,22
 258 601 258 601 277.5 591 c 128,-1,23
 297 581 297 581 297 580 c 2,24,-1
 264 501 l 1,25,26
 260 508 260 508 257 517 c 0,27,28
 249 529 249 529 239 543 c 1,29,30
 196 568 196 568 169 560.5 c 128,-1,31
 142 553 142 553 127.5 527 c 128,-1,32
 113 501 113 501 108.5 460 c 128,-1,33
 104 419 104 419 108 374 c 1,34,-1
 169 381 l 1,35,-1
 172 343 l 1,36,-1
 110 342 l 1,37,38
 112 301 112 301 115 262.5 c 128,-1,39
 118 224 118 224 121 195 c 0,40,41
 126 160 126 160 130 127 c 1,42,43
 180 129 180 129 222 133 c 0,44,45
 240 134 240 134 257 135 c 128,-1,46
 274 136 274 136 288 137.5 c 128,-1,47
 302 139 302 139 311.5 140 c 128,-1,48
 321 141 321 141 324 142 c 0,0,1
EndSplineSet
EndChar

StartChar: dieresis
Encoding: 168 168 72
Width: 199
GlyphClass: 2
Flags: W
LayerCount: 2
Fore
SplineSet
120 525 m 0,0,1
 127 535 127 535 136.5 535.5 c 128,-1,2
 146 536 146 536 154 530 c 0,3,4
 162 522 162 522 163.5 511.5 c 128,-1,5
 165 501 165 501 160 491 c 0,6,7
 153 482 153 482 143.5 480.5 c 128,-1,8
 134 479 134 479 124 487 c 0,9,10
 117 493 117 493 115.5 504.5 c 128,-1,11
 114 516 114 516 120 525 c 0,0,1
54 500 m 0,12,13
 46 488 46 488 34 487.5 c 128,-1,14
 22 487 22 487 12 494 c 0,15,16
 3 502 3 502 1.5 514.5 c 128,-1,17
 0 527 0 527 7 538 c 0,18,19
 14 547 14 547 25.5 549 c 128,-1,20
 37 551 37 551 46 544 c 0,21,22
 56 535 56 535 57.5 522.5 c 128,-1,23
 59 510 59 510 54 500 c 0,12,13
EndSplineSet
EndChar

StartChar: copyright
Encoding: 169 169 73
Width: 285
GlyphClass: 2
Flags: W
LayerCount: 2
Fore
SplineSet
116 12 m 0,0,1
 132 11 132 11 151.5 16.5 c 128,-1,2
 171 22 171 22 187.5 34.5 c 128,-1,3
 204 47 204 47 214.5 66.5 c 128,-1,4
 225 86 225 86 224 114 c 0,5,6
 223 140 223 140 210.5 157 c 128,-1,7
 198 174 198 174 182 184 c 128,-1,8
 166 194 166 194 150.5 198 c 128,-1,9
 135 202 135 202 128 202 c 0,10,11
 79 205 79 205 45.5 175.5 c 128,-1,12
 12 146 12 146 12 96 c 0,13,14
 12 73 12 73 22 57 c 128,-1,15
 32 41 32 41 47.5 31 c 128,-1,16
 63 21 63 21 81 16.5 c 128,-1,17
 99 12 99 12 116 12 c 0,0,1
121 209 m 128,-1,19
 136 209 136 209 155.5 205 c 128,-1,20
 175 201 175 201 193.5 189.5 c 128,-1,21
 212 178 212 178 225 158 c 128,-1,22
 238 138 238 138 240 105 c 0,23,24
 239 76 239 76 227.5 56 c 128,-1,25
 216 36 216 36 198 23.5 c 128,-1,26
 180 11 180 11 158.5 5.5 c 128,-1,27
 137 0 137 0 117 0 c 0,28,29
 101 0 101 0 79.5 3.5 c 128,-1,30
 58 7 58 7 39 18.5 c 128,-1,31
 20 30 20 30 8 50.5 c 128,-1,32
 -4 71 -4 71 -2 104 c 128,-1,33
 0 137 0 137 14 157.5 c 128,-1,34
 28 178 28 178 47 189.5 c 128,-1,35
 66 201 66 201 86 205 c 128,-1,18
 106 209 106 209 121 209 c 128,-1,19
163 171 m 1,36,-1
 163 154 l 1,37,38
 139 161 139 161 120 159 c 0,39,40
 103 157 103 157 87.5 148 c 128,-1,41
 72 139 72 139 67 115 c 0,42,43
 65 106 65 106 65.5 93.5 c 128,-1,44
 66 81 66 81 74.5 70.5 c 128,-1,45
 83 60 83 60 101 54 c 128,-1,46
 119 48 119 48 152 51 c 1,47,48
 152 48 152 48 153 45 c 0,49,50
 153 43 153 43 153.5 42.5 c 128,-1,51
 154 42 154 42 154 41 c 2,52,-1
 154 39 l 1,53,54
 139 37 139 37 118.5 39 c 128,-1,55
 98 41 98 41 81.5 50.5 c 128,-1,56
 65 60 65 60 56.5 79 c 128,-1,57
 48 98 48 98 56 131 c 0,58,59
 64 154 64 154 81.5 163 c 128,-1,60
 99 172 99 172 117 174 c 0,61,62
 138 176 138 176 163 171 c 1,36,-1
EndSplineSet
EndChar

StartChar: logicalnot
Encoding: 172 172 74
Width: 267
GlyphClass: 2
Flags: W
LayerCount: 2
Fore
SplineSet
0 353 m 1,0,-1
 204 351 l 1,1,-1
 216 296 l 1,2,-1
 190 295 l 1,3,-1
 189 333 l 1,4,-1
 1 328 l 1,5,-1
 0 353 l 1,0,-1
EndSplineSet
EndChar

StartChar: registered
Encoding: 174 174 75
Width: 265
GlyphClass: 2
Flags: W
LayerCount: 2
Fore
SplineSet
104 13 m 0,0,1
 119 12 119 12 136.5 16.5 c 128,-1,2
 154 21 154 21 169 32.5 c 128,-1,3
 184 44 184 44 193 62 c 128,-1,4
 202 80 202 80 201 105 c 0,5,6
 200 128 200 128 188.5 143.5 c 128,-1,7
 177 159 177 159 162.5 168 c 128,-1,8
 148 177 148 177 134.5 181 c 128,-1,9
 121 185 121 185 115 185 c 0,10,11
 70 187 70 187 40 160.5 c 128,-1,12
 10 134 10 134 10 89 c 0,13,14
 10 68 10 68 19 53.5 c 128,-1,15
 28 39 28 39 42 30 c 128,-1,16
 56 21 56 21 72.5 17 c 128,-1,17
 89 13 89 13 104 13 c 0,0,1
109 191 m 128,-1,19
 122 191 122 191 140 187 c 128,-1,20
 158 183 158 183 174.5 173 c 128,-1,21
 191 163 191 163 202.5 145 c 128,-1,22
 214 127 214 127 216 97 c 0,23,24
 215 71 215 71 204.5 52.5 c 128,-1,25
 194 34 194 34 177.5 23 c 128,-1,26
 161 12 161 12 142 7 c 128,-1,27
 123 2 123 2 105 2 c 0,28,29
 91 2 91 2 71.5 5.5 c 128,-1,30
 52 9 52 9 35 19 c 128,-1,31
 18 29 18 29 7 47.5 c 128,-1,32
 -4 66 -4 66 -2 96 c 0,33,34
 0 125 0 125 12.5 144 c 128,-1,35
 25 163 25 163 42 173.5 c 128,-1,36
 59 184 59 184 77.5 187.5 c 128,-1,18
 96 191 96 191 109 191 c 128,-1,19
80 102 m 1,37,38
 96 100 96 100 109 103 c 0,39,40
 120 105 120 105 129.5 110.5 c 128,-1,41
 139 116 139 116 139 129 c 0,42,43
 139 140 139 140 129.5 145.5 c 128,-1,44
 120 151 120 151 109 153 c 0,45,46
 96 155 96 155 80 153 c 1,47,-1
 80 102 l 1,37,38
68 161 m 2,48,49
 69 161 69 161 83 162 c 128,-1,50
 97 163 97 163 113 160.5 c 128,-1,51
 129 158 129 158 142.5 151 c 128,-1,52
 156 144 156 144 155 129 c 0,53,54
 154 115 154 115 145 107.5 c 128,-1,55
 136 100 136 100 125 96 c 0,56,57
 112 92 112 92 95 90 c 1,58,-1
 143 36 l 1,59,-1
 121 36 l 1,60,-1
 81 88 l 1,61,-1
 80 35 l 1,62,-1
 70 36 l 1,63,-1
 68 161 l 2,48,49
EndSplineSet
EndChar

StartChar: acute
Encoding: 180 180 76
Width: 174
GlyphClass: 2
Flags: W
LayerCount: 2
Fore
SplineSet
108.96875 817.373046875 m 5,0,-1
 134.337890625 793.263671875 l 5,1,-1
 49.2763671875 707.374023438 l 5,2,-1
 34.353515625 719.428710938 l 5,3,-1
 108.96875 817.373046875 l 5,0,-1
EndSplineSet
EndChar

StartChar: cedilla
Encoding: 184 184 77
Width: 135
GlyphClass: 2
Flags: W
LayerCount: 2
Fore
SplineSet
46 67 m 21,0,1
 43 62 43 62 40 57 c 0,2,3
 38 52 38 52 37 47.5 c 128,-1,4
 36 43 36 43 40 40 c 0,5,6
 43 37 43 37 49 36 c 128,-1,7
 55 35 55 35 61 34 c 128,-1,8
 67 33 67 33 73 30 c 128,-1,9
 79 27 79 27 83 20 c 0,10,11
 91 5 91 5 70.5 -12.5 c 128,-1,12
 50 -30 50 -30 -2 -30 c 1,13,-1
 -2 -17 l 1,14,-1
 -2 -4 l 1,15,16
 16 -7 16 -7 31 -6 c 0,17,18
 43 -5 43 -5 53.5 -1 c 128,-1,19
 64 3 64 3 65 14 c 0,20,21
 66 23 66 23 60 25 c 128,-1,22
 54 27 54 27 46 26.5 c 128,-1,23
 38 26 38 26 30 25.5 c 128,-1,24
 22 25 22 25 18 30 c 0,25,26
 14 34 14 34 12.5 41 c 128,-1,27
 11 48 11 48 10.5 54 c 128,-1,28
 10 60 10 60 10 64 c 2,29,-1
 10 66.0612244898 l 10,30,-1
 46 67 l 21,0,1
EndSplineSet
EndChar

StartChar: questiondown
Encoding: 191 191 78
Width: 514
GlyphClass: 2
Flags: W
LayerCount: 2
Fore
SplineSet
192 577 m 0,0,1
 179 581 179 581 172 597 c 128,-1,2
 165 613 165 613 170 632 c 0,3,4
 175 650 175 650 188.5 660.5 c 128,-1,5
 202 671 202 671 216 667 c 0,6,7
 229 664 229 664 236 648 c 128,-1,8
 243 632 243 632 238 613 c 0,9,10
 233 595 233 595 219.5 584.5 c 128,-1,11
 206 574 206 574 192 577 c 0,0,1
17 90 m 0,12,13
 0 121 0 121 0.5 150 c 128,-1,14
 1 179 1 179 13.5 203.5 c 128,-1,15
 26 228 26 228 47.5 250 c 128,-1,16
 69 272 69 272 95 290 c 0,17,18
 154 332 154 332 240 365 c 1,19,-1
 190 513 l 1,20,-1
 250 527 l 1,21,-1
 296 334 l 1,22,23
 223 314 223 314 173 281 c 0,24,25
 150 268 150 268 131.5 251.5 c 128,-1,26
 113 235 113 235 101.5 214.5 c 128,-1,27
 90 194 90 194 89 169.5 c 128,-1,28
 88 145 88 145 101 118 c 0,29,30
 117 83 117 83 146 69 c 128,-1,31
 175 55 175 55 213 52.5 c 128,-1,32
 251 50 251 50 305 68 c 128,-1,33
 359 86 359 86 425 153 c 1,34,-1
 484 94 l 1,35,36
 466 79 466 79 431 60.5 c 128,-1,37
 396 42 396 42 352 25 c 128,-1,38
 308 8 308 8 259 3 c 128,-1,39
 210 -2 210 -2 163.5 3 c 128,-1,40
 117 8 117 8 79 28.5 c 128,-1,41
 41 49 41 49 17 90 c 0,12,13
EndSplineSet
EndChar

StartChar: AE
Encoding: 198 198 85
AltUni2: 0000e6.ffffffff.0
Width: 740
GlyphClass: 2
Flags: W
AnchorPoint: "top" 365 695 basechar 0
LayerCount: 2
Fore
SplineSet
277 701 m 1,0,-1
 692 692 l 1,1,-1
 691 564 l 2,2,3
 691 565 691 565 678.5 577.5 c 128,-1,4
 666 590 666 590 650 605 c 128,-1,5
 634 620 634 620 620.5 632 c 128,-1,6
 607 644 607 644 603 645 c 0,7,8
 601 645 601 645 388 636 c 1,9,-1
 395 365 l 1,10,-1
 566 381 l 1,11,-1
 566 315 l 1,12,-1
 395 315 l 1,13,-1
 400 55 l 1,14,15
 588 60 588 60 590 61 c 0,16,17
 592 63 592 63 604 71.5 c 128,-1,18
 616 80 616 80 628 89 c 2,19,-1
 663 114 l 1,20,-1
 663 1 l 1,21,-1
 365 1 l 1,22,-1
 320 1 l 1,23,-1
 261 1 l 1,24,-1
 289 15 l 2,25,26
 299 20 299 20 308 25 c 128,-1,27
 317 30 317 30 318 32 c 2,28,-1
 318.5 56.5 l 2,29,30
 319 81 319 81 321 120 c 128,-1,31
 323 159 323 159 325 210 c 128,-1,32
 327 261 327 261 329.5 312.5 c 0,33,34
 329.604701365 314.656848128 329.604701365 314.656848128 329.708525741 316.806680336 c 2,35,-1
 220 316 l 1,36,-1
 152 174 l 2,37,38
 139 148 139 148 126.5 122.5 c 128,-1,39
 114 97 114 97 105 76.5 c 128,-1,40
 96 56 96 56 90.5 43 c 2,41,-1
 85 30 l 2,42,43
 85 27 85 27 92.5 23 c 128,-1,44
 100 19 100 19 111 14 c 0,45,46
 123 8 123 8 138 1 c 1,47,-1
 -1 1 l 1,48,-1
 309.780120482 634 l 1,49,-1
 278 634 l 1,50,-1
 277 701 l 1,0,-1
331.344020295 351.41343231 m 1,51,52
 332.767024443 382.216830517 332.767024443 382.216830517 334 411.5 c 0,53,54
 336 459 336 459 338 494.5 c 128,-1,55
 340 530 340 530 340.5 547 c 2,56,-1
 341 555 l 1,57,-1
 233 346 l 1,58,-1
 331.344020295 351.41343231 l 1,51,52
EndSplineSet
Substitution2: "mark-downsizer-1" AE.mark
EndChar

StartChar: Eth
Encoding: 208 208 95
AltUni2: 0000f0.ffffffff.0 000110.ffffffff.0 000111.ffffffff.0
Width: 572
GlyphClass: 2
Flags: W
AnchorPoint: "top" 244 691 basechar 0
LayerCount: 2
Fore
SplineSet
0 374 m 25,0,-1
 248 393 l 25,1,-1
 245 328 l 25,2,-1
 3 336 l 25,3,-1
 0 374 l 25,0,-1
EndSplineSet
Refer: 36 68 N 1 0 0 1 0 0 2
Substitution2: "mark-downsizer-1" Eth.mark
EndChar

StartChar: multiply
Encoding: 215 215 102
Width: 439
GlyphClass: 2
Flags: W
LayerCount: 2
Fore
SplineSet
399 162 m 1,0,-1
 340 160 l 1,1,-1
 194 309 l 1,2,-1
 87 166 l 1,3,-1
 11 167 l 1,4,-1
 158 348 l 1,5,-1
 4 506 l 1,6,-1
 67 507 l 1,7,-1
 187 382 l 1,8,-1
 278 495 l 1,9,-1
 334 493 l 1,10,-1
 223 346 l 1,11,-1
 399 162 l 1,0,-1
EndSplineSet
EndChar

StartChar: Oslash
Encoding: 216 216 103
AltUni2: 0000f8.ffffffff.0
Width: 639
GlyphClass: 2
Flags: W
AnchorPoint: "top" 291 689 basechar 0
LayerCount: 2
Fore
SplineSet
10 77 m 25,0,-1
 545 705 l 25,1,-1
 581 687 l 25,2,-1
 63 26 l 25,3,-1
 10 77 l 25,0,-1
EndSplineSet
Refer: 47 79 N 1 0 0 1 0 0 2
Substitution2: "mark-downsizer-1" Oslash.mark
EndChar

StartChar: Thorn
Encoding: 222 222 109
AltUni2: 0000fe.ffffffff.0
Width: 494
GlyphClass: 2
Flags: W
AnchorPoint: "top" 255 670 basechar 0
LayerCount: 2
Fore
SplineSet
141 217 m 1,0,1
 162 216 162 216 188.5 215.5 c 128,-1,2
 215 215 215 215 243.5 219 c 128,-1,3
 272 223 272 223 299.5 233 c 128,-1,4
 327 243 327 243 349 262 c 128,-1,5
 371 281 371 281 383.5 311 c 128,-1,6
 396 341 396 341 395 384 c 0,7,8
 388 450 388 450 355 482 c 128,-1,9
 322 514 322 514 279.5 525.5 c 128,-1,10
 237 537 237 537 193.5 533.5 c 128,-1,11
 150 530 150 530 121 524 c 1,12,13
 123 491 123 491 125.5 451.5 c 128,-1,14
 128 412 128 412 130.5 372 c 128,-1,15
 133 332 133 332 136 292.5 c 128,-1,16
 139 253 139 253 141 217 c 1,0,1
462 409 m 0,17,18
 473 356 473 356 460.5 317.5 c 128,-1,19
 448 279 448 279 421.5 252 c 128,-1,20
 395 225 395 225 358 209 c 128,-1,21
 321 193 321 193 282 183 c 128,-1,22
 243 173 243 173 206.5 170 c 128,-1,23
 170 167 170 167 145 167 c 1,24,25
 150 119 150 119 152.5 89.5 c 128,-1,26
 155 60 155 60 156 58 c 0,27,28
 158 56 158 56 169 49 c 128,-1,29
 180 42 180 42 194 35 c 0,30,31
 210 26 210 26 229 15 c 1,32,-1
 52 2 l 1,33,34
 59 9 59 9 66 15 c 0,35,36
 80 29 80 29 84 39 c 0,37,38
 89 51 89 51 89.5 98.5 c 128,-1,39
 90 146 90 146 88 210 c 128,-1,40
 86 274 86 274 83.5 346.5 c 128,-1,41
 81 419 81 419 76.5 483 c 128,-1,42
 72 547 72 547 67.5 593.5 c 128,-1,43
 63 640 63 640 59 653 c 0,44,45
 57 658 57 658 48 665 c 128,-1,46
 39 672 39 672 28 680 c 0,47,48
 16 689 16 689 0 698 c 1,49,-1
 148 698 l 1,50,51
 139 690 139 690 132 684 c 0,52,53
 127 678 127 678 121 672 c 128,-1,54
 115 666 115 666 114 662 c 0,55,56
 114 661 114 661 114.5 640 c 128,-1,57
 115 619 115 619 118 585 c 1,58,59
 189 596 189 596 247.5 593 c 128,-1,60
 306 590 306 590 349 570 c 128,-1,61
 392 550 392 550 420.5 511 c 128,-1,62
 449 472 449 472 462 409 c 0,17,18
EndSplineSet
Substitution2: "mark-downsizer-1" Thorn.mark
EndChar

StartChar: divide
Encoding: 247 247 110
Width: 394
GlyphClass: 2
Flags: W
LayerCount: 2
Fore
SplineSet
155 372 m 128,-1,1
 144 380 144 380 141.5 394 c 128,-1,2
 139 408 139 408 147 419 c 128,-1,3
 155 430 155 430 168.5 432.5 c 128,-1,4
 182 435 182 435 193 427 c 0,5,6
 205 419 205 419 207.5 405.5 c 128,-1,7
 210 392 210 392 202 381 c 128,-1,8
 194 370 194 370 180 367 c 128,-1,0
 166 364 166 364 155 372 c 128,-1,1
189 217 m 0,9,10
 203 207 203 207 205.5 192 c 128,-1,11
 208 177 208 177 199 163 c 0,12,13
 190 150 190 150 174.5 147.5 c 128,-1,14
 159 145 159 145 146 154 c 0,15,16
 132 164 132 164 129.5 179 c 128,-1,17
 127 194 127 194 136 208 c 0,18,19
 145 221 145 221 160.5 223.5 c 128,-1,20
 176 226 176 226 189 217 c 0,9,10
1 305 m 1,21,-1
 342 323 l 1,22,-1
 339 265 l 1,23,-1
 5 272 l 1,24,-1
 1 305 l 1,21,-1
EndSplineSet
EndChar

StartChar: Eogonek
Encoding: 280 280 113
AltUni2: 000119.ffffffff.0
Width: 498
GlyphClass: 2
Flags: W
LayerCount: 2
Fore
SplineSet
365 2 m 1024
EndSplineSet
Refer: 194 731 S 1 0 0 1 359 0 2
Refer: 37 69 N 1 0 0 1 0 0 2
EndChar

StartChar: Lslash
Encoding: 321 321 114
AltUni2: 000142.ffffffff.0
Width: 487
GlyphClass: 2
Flags: W
LayerCount: 2
Fore
SplineSet
-112 259 m 25,0,-1
 274 498 l 25,1,-1
 278 458 l 25,2,-1
 -70 215 l 25,3,-1
 -112 259 l 25,0,-1
EndSplineSet
Refer: 44 76 N 1 0 0 1 0 0 2
EndChar

StartChar: OE
Encoding: 338 338 116
AltUni2: 000153.ffffffff.0
Width: 685
GlyphClass: 2
Flags: W
AnchorPoint: "top" 335 695 basechar 0
LayerCount: 2
Fore
SplineSet
77 373 m 0,0,1
 77 315 77 315 88 256.5 c 128,-1,2
 99 198 99 198 126 152 c 128,-1,3
 153 106 153 106 195.5 78.5 c 128,-1,4
 238 51 238 51 307 55 c 1,5,-1
 306 638 l 1,6,7
 248 638 248 638 208 620.5 c 128,-1,8
 168 603 168 603 144.5 576.5 c 128,-1,9
 121 550 121 550 106.5 518 c 128,-1,10
 92 486 92 486 85.5 457 c 128,-1,11
 79 428 79 428 78 405 c 128,-1,12
 77 382 77 382 77 373 c 0,0,1
648 695 m 1,13,-1
 647 566 l 2,14,15
 647 568 647 568 636.5 580 c 128,-1,16
 626 592 626 592 612 606 c 128,-1,17
 598 620 598 620 586 632 c 128,-1,18
 574 644 574 644 570 645 c 0,19,20
 568 645 568 645 362 638 c 1,21,-1
 369 402 l 1,22,-1
 543 411 l 1,23,-1
 543 346 l 1,24,-1
 370 346 l 1,25,-1
 376 55 l 1,26,27
 544 60 544 60 545 61 c 0,28,29
 547 62 547 62 614 114 c 1,30,-1
 614 0 l 1,31,-1
 280 0 l 1,32,33
 191 7 191 7 137.5 46 c 128,-1,34
 84 85 84 85 54 137 c 128,-1,35
 24 189 24 189 13.5 245.5 c 128,-1,36
 3 302 3 302 2 344 c 0,37,38
 1 372 1 372 4.5 408.5 c 128,-1,39
 8 445 8 445 20 483.5 c 128,-1,40
 32 522 32 522 53 559 c 128,-1,41
 74 596 74 596 109 626.5 c 128,-1,42
 144 657 144 657 194 676.5 c 128,-1,43
 244 696 244 696 313 698 c 2,44,-1
 648 695 l 1,13,-1
EndSplineSet
Substitution2: "mark-downsizer-1" OE.mark
EndChar

StartChar: circumflex
Encoding: 710 710 123
Width: 215
GlyphClass: 2
Flags: W
LayerCount: 2
Fore
SplineSet
1 550 m 1,0,-1
 80 725 l 1,1,-1
 195 593 l 1,2,-1
 173 581 l 1,3,-1
 86 687 l 1,4,-1
 41 536 l 1,5,-1
 1 550 l 1,0,-1
EndSplineSet
EndChar

StartChar: caron
Encoding: 711 711 124
Width: 200
GlyphClass: 2
Flags: W
LayerCount: 2
Fore
SplineSet
0 539 m 1,0,-1
 30 548 l 1,1,-1
 64 459 l 1,2,-1
 132 522 l 1,3,-1
 149 514 l 1,4,-1
 60 437 l 1,5,-1
 0 539 l 1,0,-1
EndSplineSet
EndChar

StartChar: breve
Encoding: 728 728 125
Width: 165
GlyphClass: 2
Flags: W
LayerCount: 2
Fore
SplineSet
115 692 m 1,0,1
 107 679 107 679 98 668 c 0,2,3
 90 659 90 659 79.5 651.5 c 128,-1,4
 69 644 69 644 55 644 c 0,5,6
 38 644 38 644 27.5 651.5 c 128,-1,7
 17 659 17 659 11 668 c 0,8,9
 4 679 4 679 0 692 c 1,10,-1
 16 694 l 1,11,12
 19 685 19 685 24 677 c 0,13,14
 29 670 29 670 35.5 663.5 c 128,-1,15
 42 657 42 657 53 655 c 0,16,17
 63 653 63 653 71.5 659.5 c 128,-1,18
 80 666 80 666 85 674 c 0,19,20
 91 683 91 683 96 695 c 1,21,-1
 115 692 l 1,0,1
EndSplineSet
EndChar

StartChar: tilde
Encoding: 732 732 126
Width: 200
GlyphClass: 2
Flags: W
LayerCount: 2
Fore
SplineSet
0 513 m 1,0,1
 11 525 11 525 22 536 c 0,2,3
 30 544 30 544 40.5 551.5 c 128,-1,4
 51 559 51 559 60 562 c 0,5,6
 69 563 69 563 74.5 556.5 c 128,-1,7
 80 550 80 550 85 542 c 128,-1,8
 90 534 90 534 94.5 528 c 128,-1,9
 99 522 99 522 105 522 c 0,10,11
 109 522 109 522 112 530 c 128,-1,12
 115 538 115 538 117 549 c 0,13,14
 120 559 120 559 121 575 c 1,15,-1
 138 571 l 1,16,17
 133 552 133 552 128 538 c 0,18,19
 124 525 124 525 118.5 515 c 128,-1,20
 113 505 113 505 107 505 c 0,21,22
 97 504 97 504 92 509.5 c 128,-1,23
 87 515 87 515 83 523 c 128,-1,24
 79 531 79 531 74.5 538.5 c 128,-1,25
 70 546 70 546 62 546 c 0,26,27
 53 546 53 546 45.5 538.5 c 128,-1,28
 38 531 38 531 31 522 c 0,29,30
 23 513 23 513 16 499 c 1,31,-1
 0 513 l 1,0,1
EndSplineSet
EndChar

StartChar: afii10018
Encoding: 1041 1041 127
AltUni2: 000431.ffffffff.0
Width: 553
GlyphClass: 2
Flags: W
LayerCount: 2
Fore
SplineSet
52 707 m 25,0,-1
 463 702 l 1,1,-1
 463 594 l 1,2,-1
 404 654 l 1,3,-1
 111.154296875 655.502929688 l 1,4,-1
 115.73046875 386.62109375 l 1,5,6
 176 387 176 387 216 382 c 0,7,8
 261 377 261 377 306 367.5 c 128,-1,9
 351 358 351 358 390 340 c 128,-1,10
 429 322 429 322 458.5 295 c 0,11,12
 491 266 491 266 503 230 c 0,13,14
 520 182 520 182 506.5 142.5 c 0,15,16
 494 106 494 106 462.5 80.5 c 128,-1,17
 431 55 431 55 385.5 40 c 0,18,19
 333 23 333 23 291 16 c 0,20,21
 173 -3 173 -3 15 6 c 1,22,-1
 13 52.4873046875 l 1,23,24
 54 49 54 49 57.7255859375 49.26953125 c 1,25,-1
 52 707 l 25,0,-1
124.236328125 47.8349609375 m 1,26,27
 172 47 172 47 226 53.38671875 c 0,28,29
 266 58 266 58 303.5 67.787109375 c 0,30,31
 341 78 341 78 372 94.787109375 c 0,32,33
 403 112 403 112 418.5 137.086914062 c 0,34,35
 433 160 433 160 429 199.186523438 c 0,36,37
 426 230 426 230 409 250.936523438 c 128,-1,38
 392 272 392 272 367.5 287.836914062 c 0,39,40
 343 304 343 304 314.5 313.037109375 c 128,-1,41
 286 322 286 322 255 327.88671875 c 0,42,43
 190 339 190 339 117.750976562 337.11328125 c 1,44,-1
 124.236328125 47.8349609375 l 1,26,27
EndSplineSet
Substitution2: "mark-downsizer-1" afii10018.mark
EndChar

StartChar: afii10020
Encoding: 1043 1043 128
AltUni2: 000433.ffffffff.0 0003b3.ffffffff.0 000393.ffffffff.0
Width: 487
GlyphClass: 2
Flags: W
LayerCount: 2
Fore
SplineSet
33 24 m 1,0,-1
 37 648 l 1,1,-1
 1 649 l 1,2,-1
 0 700 l 5,3,-1
 452 698 l 1,4,-1
 453 586 l 1,5,6
 420 631 420 631 413 634 c 0,7,8
 407 637 407 637 98 649 c 1,9,10
 113 96 113 96 114 68.5 c 128,-1,11
 115 41 115 41 116 40 c 0,12,13
 117 38 117 38 123.5 30.5 c 128,-1,14
 130 23 130 23 167 -1 c 1,15,-1
 5 -1 l 1,16,17
 20 13 20 13 33 24 c 1,0,-1
EndSplineSet
Substitution2: "mark-downsizer-1" afii10020.mark
EndChar

StartChar: afii10021
Encoding: 1044 1044 129
AltUni2: 000434.ffffffff.0
Width: 558
GlyphClass: 2
Flags: W
LayerCount: 2
Fore
SplineSet
476 641 m 21,0,-1
 476 64.0924855491 l 1,1,-1
 524 64 l 1,2,-1
 516 -65 l 1,3,-1
 477 1 l 1,4,-1
 43 8 l 1,5,-1
 8 -61 l 1,6,-1
 5 65 l 1,7,-1
 62.8457194063 64.8885438932 l 1,8,-1
 140 700 l 1,9,-1
 490 698 l 9,10,-1
 476 641 l 21,0,-1
408 64.2235067437 m 1,11,-1
 408 634.825704903 l 2,12,13
 406.655868846 635.868826231 406.655868846 635.868826231 406 636 c 0,14,15
 403 639 403 639 205 646 c 1,16,-1
 134.800712837 64.7499022874 l 1,17,-1
 408 64.2235067437 l 1,11,-1
EndSplineSet
Substitution2: "mark-downsizer-1" afii10021.mark
EndChar

StartChar: afii10024
Encoding: 1046 1046 130
AltUni2: 000436.ffffffff.0
Width: 666
GlyphClass: 2
Flags: W
LayerCount: 2
Fore
SplineSet
565 2 m 1,0,-1
 345 333 l 1,1,-1
 343 54 l 1,2,3
 385 4 l 1,4,-1
 243 8 l 1,5,6
 281 53 l 1,7,-1
 279 338 l 1,8,-1
 59 6 l 1,9,-1
 5 38 l 1,10,-1
 219 369 l 1,11,-1
 13 651 l 1,12,-1
 86 690 l 1,13,-1
 283 414 l 1,14,-1
 284 664 l 1,15,16
 263 696 l 1,17,-1
 374 691 l 1,18,19
 349 663 l 5,20,-1
 347 417 l 1,21,-1
 556 690 l 1,22,-1
 613 670 l 1,23,-1
 401 378 l 1,24,-1
 632 47 l 1,25,-1
 565 2 l 1,0,-1
EndSplineSet
Substitution2: "mark-downsizer-1" afii10024.mark
EndChar

StartChar: afii10025
Encoding: 1047 1047 131
AltUni2: 000437.ffffffff.0
Width: 513
GlyphClass: 2
Flags: W
LayerCount: 2
Fore
SplineSet
5 669 m 1,0,1
 54 687 54 687 107 694.5 c 128,-1,2
 160 702 160 702 212 701 c 128,-1,3
 264 700 264 700 312 689 c 128,-1,4
 360 678 360 678 397 659 c 128,-1,5
 434 640 434 640 455 615.5 c 128,-1,6
 476 591 476 591 477 556 c 0,7,8
 479 494 479 494 452.5 454 c 128,-1,9
 426 414 426 414 393 391 c 128,-1,10
 360 368 360 368 332 357.5 c 128,-1,11
 304 347 304 347 304 346 c 2,12,-1
 324 338 l 2,13,14
 344 329 344 329 369.5 309 c 128,-1,15
 395 289 395 289 418 256.5 c 128,-1,16
 441 224 441 224 445 178 c 0,17,18
 446 134 446 134 429.5 105.5 c 128,-1,19
 413 77 413 77 385 56.5 c 128,-1,20
 357 36 357 36 321 23.5 c 128,-1,21
 285 11 285 11 247 6 c 0,22,23
 153 -10 153 -10 27 21 c 1,24,-1
 27 82 l 1,25,26
 118 59 118 59 197 62 c 0,27,28
 226 67 226 67 253 75.5 c 128,-1,29
 280 84 280 84 302 99 c 128,-1,30
 324 114 324 114 336.5 135 c 128,-1,31
 349 156 349 156 349 187 c 0,32,33
 349 213 349 213 338.5 232 c 128,-1,34
 328 251 328 251 312.5 263.5 c 128,-1,35
 297 276 297 276 276 283.5 c 128,-1,36
 255 291 255 291 234 295 c 0,37,38
 183 304 183 304 119 297 c 1,39,-1
 119 367 l 2,40,41
 121 368 121 368 140.5 367.5 c 128,-1,42
 160 367 160 367 189.5 369 c 128,-1,43
 219 371 219 371 253.5 379 c 128,-1,44
 288 387 288 387 317.5 405 c 128,-1,45
 347 423 347 423 366 451.5 c 128,-1,46
 385 480 385 480 384 527 c 0,47,48
 384 566 384 566 359 589 c 128,-1,49
 334 612 334 612 297 621 c 128,-1,50
 260 630 260 630 216.5 627.5 c 128,-1,51
 173 625 173 625 133.5 616.5 c 128,-1,52
 94 608 94 608 66 595 c 128,-1,53
 38 582 38 582 28 573 c 1,54,-1
 5 669 l 1,0,1
EndSplineSet
Substitution2: "mark-downsizer-1" afii10025.mark
EndChar

StartChar: Iicyrillic
Encoding: 1048 1048 132
AltUni2: 000438.ffffffff.0
Width: 550
GlyphClass: 2
Flags: W
LayerCount: 2
Fore
SplineSet
486 36 m 1,0,-1
 516 5 l 1,1,-1
 377 0 l 1,2,3
 390 8 390 8 401 16 c 0,4,5
 410 23 410 23 418 31 c 128,-1,6
 426 39 426 39 429 45 c 0,7,8
 430 50 430 50 431 564 c 1,9,-1
 24 -11 l 1,10,-1
 5 699 l 1,11,-1
 109 701 l 1,12,13
 80 685 80 685 73 674.5 c 128,-1,14
 66 664 66 664 63 661 c 0,15,16
 62 658 62 658 72 191 c 1,17,-1
 410 676 l 1,18,-1
 486 675 l 1,19,-1
 486 36 l 1,0,-1
EndSplineSet
Substitution2: "mark-downsizer-1" Iicyrillic.mark
EndChar

StartChar: afii10029
Encoding: 1051 1051 134
AltUni2: 00043b.ffffffff.0
Width: 606
GlyphClass: 2
Flags: W
LayerCount: 2
Fore
SplineSet
0 0 m 1,0,1
 0 117 l 1,2,-1
 32 75 l 1,3,4
 204 133 204 133 204.147460938 629.706054688 c 1,5,-1
 184 702 l 1,6,-1
 540 700 l 1,7,-1
 544 24 l 1,8,9
 557 13 557 13 572 -1 c 1,10,11
 420 -1 l 1,12,13
 457 23 457 23 463.5 30.5 c 128,-1,14
 470 38 470 38 471 40 c 0,15,16
 472 41 472 41 473 68.5 c 128,-1,17
 474 96 474 96 475 644 c 1,18,-1
 272 638 l 1,19,20
 277 13 277 13 0 0 c 1,0,1
EndSplineSet
Substitution2: "mark-downsizer-1" afii10029.mark
EndChar

StartChar: afii10033
Encoding: 1055 1055 135
AltUni2: 00043f.ffffffff.0 0003c0.ffffffff.0 0003a0.ffffffff.0
Width: 521
GlyphClass: 2
Flags: W
LayerCount: 2
Fore
SplineSet
33 24 m 1,0,-1
 37 700 l 1,1,-1
 487 698 l 1,2,-1
 466.852416732 625.705730627 l 1,3,-1
 439 4 l 1,4,-1
 371 4 l 1,5,-1
 399 629 l 1,6,-1
 408.984141012 629 l 1,7,8
 404.407415591 633.718516882 404.407415591 633.718516882 403 634 c 0,9,10
 400 637 400 637 102 644 c 1,11,12
 103 96 103 96 104 68.5 c 128,-1,13
 105 41 105 41 106 40 c 0,14,15
 107 38 107 38 113.5 30.5 c 128,-1,16
 120 23 120 23 157 -1 c 1,17,-1
 5 -1 l 1,18,19
 20 13 20 13 33 24 c 1,0,-1
EndSplineSet
Substitution2: "mark-downsizer-1" afii10033.mark
EndChar

StartChar: Ucyrillic
Encoding: 1059 1059 136
AltUni2: 000443.ffffffff.0
Width: 575
GlyphClass: 2
Flags: W
LayerCount: 2
Fore
SplineSet
5 699 m 1,0,-1
 142 694 l 1,1,-1
 128 683 l 2,2,3
 123 679 123 679 119 674 c 128,-1,4
 115 669 115 669 114 667 c 0,5,6
 114 665 114 665 334 387 c 1,7,8
 421 649 421 649 420 651 c 0,9,10
 418 655 418 655 412 661 c 128,-1,11
 406 667 406 667 399 674 c 0,12,13
 391 682 391 682 381 691 c 1,14,-1
 541 685 l 1,15,-1
 495 643 l 1,16,-1
 397 350 l 2,17,18
 337 180 337 180 316.5 132.5 c 128,-1,19
 296 85 296 85 282.5 64.5 c 128,-1,20
 269 44 269 44 254.5 28.5 c 128,-1,21
 240 13 240 13 215 4 c 128,-1,22
 190 -5 190 -5 158.5 0 c 128,-1,23
 127 5 127 5 93 36 c 2,24,-1
 25 101 l 1,25,-1
 107 179 l 1,26,-1
 98 132 l 1,27,28
 116 105 116 105 139 87.5 c 128,-1,29
 162 70 162 70 184 73.5 c 128,-1,30
 206 77 206 77 227 115 c 128,-1,31
 248 153 248 153 305 301 c 1,32,33
 148 494 148 494 120.5 534.5 c 128,-1,34
 93 575 93 575 68.5 609.5 c 128,-1,35
 44 644 44 644 26 669 c 128,-1,36
 8 694 8 694 5 699 c 1,0,-1
EndSplineSet
Substitution2: "mark-downsizer-1" Ucyrillic.mark
EndChar

StartChar: afii10038
Encoding: 1060 1060 137
AltUni2: 000444.ffffffff.0 0003c6.ffffffff.0 0003a6.ffffffff.0
Width: 688
GlyphClass: 2
Flags: W
LayerCount: 2
Fore
SplineSet
509 179 m 0,0,1
 517 187 517 187 528 199 c 128,-1,2
 539 211 539 211 550.5 226.5 c 128,-1,3
 562 242 562 242 569.5 265 c 128,-1,4
 577 288 577 288 580.5 315.5 c 128,-1,5
 584 343 584 343 579 390 c 128,-1,6
 574 437 574 437 542 476.5 c 128,-1,7
 510 516 510 516 464 534 c 128,-1,8
 418 552 418 552 355 559 c 1,9,-1
 358 116 l 1,10,11
 403 114 403 114 443 135.5 c 128,-1,12
 483 157 483 157 509 179 c 0,0,1
180 157 m 128,-1,14
 236 116 236 116 281 116 c 1,15,-1
 287 563 l 1,16,17
 259 566 259 566 223 556 c 128,-1,18
 187 546 187 546 165 532.5 c 128,-1,19
 143 519 143 519 129.5 506 c 128,-1,20
 116 493 116 493 104 478.5 c 128,-1,21
 92 464 92 464 82.5 443.5 c 128,-1,22
 73 423 73 423 72 395.5 c 128,-1,23
 71 368 71 368 73 334 c 128,-1,24
 75 300 75 300 99.5 249 c 128,-1,13
 124 198 124 198 180 157 c 128,-1,14
355 616 m 1,25,26
 397 612 397 612 442 604.5 c 128,-1,27
 487 597 487 597 545 564 c 1,28,29
 612 513 612 513 633 447 c 128,-1,30
 654 381 654 381 652 326.5 c 128,-1,31
 650 272 650 272 632.5 230.5 c 128,-1,32
 615 189 615 189 576 148.5 c 128,-1,33
 537 108 537 108 474 81.5 c 128,-1,34
 411 55 411 55 359 56 c 1,35,-1
 360 23 l 1,36,-1
 380 0 l 1,37,-1
 259 1 l 1,38,-1
 281 22 l 1,39,-1
 280 57 l 1,40,41
 233 60 233 60 184 83 c 128,-1,42
 135 106 135 106 91 152 c 0,43,44
 39 205 39 205 22 260.5 c 128,-1,45
 5 316 5 316 5.5 366.5 c 128,-1,46
 6 417 6 417 21 451.5 c 128,-1,47
 36 486 36 486 61.5 515 c 128,-1,48
 87 544 87 544 128.5 570 c 128,-1,49
 170 596 170 596 209 605 c 128,-1,50
 248 614 248 614 288 617 c 1,51,-1
 290 663 l 2,52,53
 289 674 289 674 264 699 c 1,54,-1
 383 701 l 1,55,56
 360 680 360 680 356 667 c 2,57,-1
 355 616 l 1,25,26
EndSplineSet
Substitution2: "mark-downsizer-1" afii10038.mark
EndChar

StartChar: afii10040
Encoding: 1062 1062 138
AltUni2: 000446.ffffffff.0
Width: 586
GlyphClass: 2
Flags: W
LayerCount: 2
Fore
SplineSet
5 700 m 1,0,-1
 189 700 l 1,1,2
 144 676 144 676 136 668.5 c 128,-1,3
 128 661 128 661 127 659 c 0,4,5
 126 658 126 658 124.5 630.5 c 128,-1,6
 123 603 123 603 122 55 c 1,7,8
 425 53 425 53 429 56 c 0,9,10
 430.609010408 56.2681684013 430.609010408 56.2681684013 439.984764295 56.6801653856 c 1,11,-1
 426 681 l 1,12,-1
 508 681 l 1,13,-1
 508 58.887876407 l 1,14,15
 526.372574597 59.4045414368 526.372574597 59.4045414368 549 60 c 1,16,-1
 552 -77 l 1,17,18
 523 -21 523 -21 499 -1 c 1,19,-1
 44 -1 l 1,20,-1
 39 675 l 1,21,22
 23 686 23 686 5 700 c 1,0,-1
EndSplineSet
Substitution2: "mark-downsizer-1" afii10040.mark
EndChar

StartChar: afii10041
Encoding: 1063 1063 139
AltUni2: 000447.ffffffff.0
Width: 543
GlyphClass: 2
Flags: W
LayerCount: 2
Fore
SplineSet
436 353 m 5,0,-1
 438 672 l 1,1,-1
 409 702 l 1,2,-1
 509 704 l 1,3,-1
 503 0 l 1,4,-1
 405 1 l 1,5,-1
 435 32 l 1,6,-1
 436.279755897 305.014591347 l 1,7,8
 370 297 370 297 331.5 296.5 c 0,9,10
 288 296 288 296 232 304 c 128,-1,11
 176 312 176 312 127.5 342 c 128,-1,12
 79 372 79 372 61.5 400 c 128,-1,13
 44 428 44 428 32.5 471 c 128,-1,14
 21 514 21 514 18.5 554 c 128,-1,15
 16 594 16 594 17.5 628.5 c 128,-1,16
 19 663 19 663 16 682 c 1,17,-1
 10 696 l 2,18,19
 7 700 7 700 5 705 c 1,20,-1
 139 698 l 1,21,22
 128 692 128 692 119 684 c 128,-1,23
 110 676 110 676 103 670.5 c 128,-1,24
 96 665 96 665 95 659 c 0,25,26
 93 624 93 624 93 586 c 128,-1,27
 93 548 93 548 97.5 512.5 c 128,-1,28
 102 477 102 477 113 444 c 0,29,30
 121 420 121 420 143.5 394.5 c 0,31,32
 168.495001515 367.377764314 168.495001515 367.377764314 197 360 c 0,33,34
 284 338 284 338 436 353 c 5,0,-1
EndSplineSet
Substitution2: "mark-downsizer-1" afii10041.mark
EndChar

StartChar: afii10042
Encoding: 1064 1064 140
AltUni2: 000448.ffffffff.0
Width: 701
GlyphClass: 2
Flags: W
LayerCount: 2
Fore
SplineSet
5 700 m 1,0,-1
 189 700 l 1,1,2
 144 676 144 676 136 668.5 c 128,-1,3
 128 661 128 661 127 659 c 0,4,5
 126 658 126 658 124.5 630.5 c 128,-1,6
 123 603 123 603 122 55 c 1,7,8
 232.166204491 56.7526441624 232.166204491 56.7526441624 315 58.254532279 c 1,9,-1
 315 695 l 1,10,-1
 386 695 l 1,11,-1
 386 59.5945899129 l 1,12,13
 563.46631765 63.0997382377 563.46631765 63.0997382377 566 65 c 0,14,15
 568.195211619 65.3658686032 568.195211619 65.3658686032 576.81569531 73.2278879562 c 1,16,-1
 563 690 l 1,17,-1
 645 690 l 1,18,-1
 645 66.4634146341 l 1,19,-1
 667 1 l 1,20,-1
 44 -1 l 1,21,-1
 39 675 l 1,22,23
 23 686 23 686 5 700 c 1,0,-1
EndSplineSet
Substitution2: "mark-downsizer-1" afii10042.mark
EndChar

StartChar: afii10043
Encoding: 1065 1065 141
AltUni2: 000449.ffffffff.0
Width: 731
GlyphClass: 2
Flags: W
LayerCount: 2
Fore
SplineSet
5 700 m 1,0,-1
 189 700 l 1,1,2
 144 676 144 676 136 668.5 c 128,-1,3
 128 661 128 661 127 659 c 0,4,5
 126 658 126 658 124.5 630.5 c 128,-1,6
 123 603 123 603 122 55 c 1,7,-1
 315 59.6991304348 l 1,8,-1
 315 695 l 1,9,-1
 386 695 l 1,10,-1
 386 61.427826087 l 1,11,-1
 577.801606082 66.097778235 l 1,12,-1
 564 699 l 1,13,-1
 646 699 l 1,14,-1
 646 67.7582608696 l 1,15,-1
 697 69 l 1,16,-1
 689 -78 l 1,17,18
 660 -15 660 -15 636 -2 c 1,19,-1
 44 -1 l 1,20,-1
 39 675 l 1,21,22
 23 686 23 686 5 700 c 1,0,-1
EndSplineSet
Substitution2: "mark-downsizer-1" afii10043.mark
EndChar

StartChar: afii10044
Encoding: 1066 1066 142
AltUni2: 00044a.ffffffff.0
Width: 610
GlyphClass: 2
Flags: W
LayerCount: 2
Fore
SplineSet
2 712 m 1,0,-1
 173 707 l 1,1,-1
 172.8828125 386.079101562 l 1,2,3
 248 385 248 385 273 382 c 0,4,5
 318 377 318 377 363 367.5 c 128,-1,6
 408 358 408 358 447 340 c 128,-1,7
 486 322 486 322 515.5 295 c 0,8,9
 548 266 548 266 560 230 c 0,10,11
 577 182 577 182 563.5 142.5 c 0,12,13
 551 106 551 106 519.5 80.5 c 128,-1,14
 488 55 488 55 442.5 40 c 0,15,16
 390 23 390 23 348 16 c 0,17,18
 230 -3 230 -3 72 6 c 1,19,-1
 70 52.4873046875 l 1,20,21
 90 51 90 51 109 49.791015625 c 1,22,-1
 108.08203125 654 l 1,23,-1
 44 656 l 1,24,-1
 2 610 l 1,25,-1
 2 712 l 1,0,-1
175.475585938 47.1962890625 m 1,26,27
 217 46 217 46 283 53.38671875 c 0,28,29
 323 58 323 58 360.5 67.787109375 c 0,30,31
 398 78 398 78 429 94.787109375 c 0,32,33
 460 112 460 112 475.5 137.086914062 c 0,34,35
 490 160 490 160 486 199.186523438 c 0,36,37
 483 230 483 230 466 250.936523438 c 128,-1,38
 449 272 449 272 424.5 287.836914062 c 0,39,40
 400 304 400 304 371.5 313.037109375 c 128,-1,41
 343 322 343 322 312 327.88671875 c 0,42,43
 258 337 258 337 174.0390625 336.54296875 c 1,44,-1
 175.475585938 47.1962890625 l 1,26,27
EndSplineSet
Substitution2: "mark-downsizer-1" afii10044.mark
EndChar

StartChar: afii10045
Encoding: 1067 1067 143
AltUni2: 00044b.ffffffff.0
Width: 722
GlyphClass: 2
Flags: W
LayerCount: 2
Fore
SplineSet
510 700 m 1,0,-1
 646 700 l 1,1,2
 637 692 637 692 630 685 c 0,3,4
 625 679 625 679 619 673 c 128,-1,5
 613 667 613 667 612 663 c 0,6,7
 612 662 612 662 614 360 c 128,-1,8
 616 58 616 58 617 57 c 0,9,10
 619 54 619 54 677 3 c 1,11,-1
 512 1 l 1,12,13
 540 28 540 28 545 38 c 0,14,15
 547 42 547 42 549.5 346.5 c 128,-1,16
 552 651 552 651 552 654 c 0,17,18
 549 659 549 659 543 666.5 c 128,-1,19
 537 674 537 674 510 700 c 1,0,-1
51 708 m 25,20,-1
 116 707 l 17,21,-1
 115.8828125 386.079101562 l 1,22,23
 191 385 191 385 216 382 c 0,24,25
 261 377 261 377 306 367.5 c 128,-1,26
 351 358 351 358 390 340 c 128,-1,27
 429 322 429 322 458.5 295 c 0,28,29
 491 266 491 266 503 230 c 0,30,31
 520 182 520 182 506.5 142.5 c 0,32,33
 494 106 494 106 462.5 80.5 c 128,-1,34
 431 55 431 55 385.5 40 c 0,35,36
 333 23 333 23 291 16 c 0,37,38
 173 -3 173 -3 15 6 c 1,39,-1
 13 52.4873046875 l 1,40,41
 33 51 33 51 52 49.791015625 c 9,42,-1
 51 708 l 25,20,-1
118.475585938 47.1962890625 m 1,43,44
 160 46 160 46 226 53.38671875 c 0,45,46
 266 58 266 58 303.5 67.787109375 c 0,47,48
 341 78 341 78 372 94.787109375 c 0,49,50
 403 112 403 112 418.5 137.086914062 c 0,51,52
 433 160 433 160 429 199.186523438 c 0,53,54
 426 230 426 230 409 250.936523438 c 128,-1,55
 392 272 392 272 367.5 287.836914062 c 0,56,57
 343 304 343 304 314.5 313.037109375 c 128,-1,58
 286 322 286 322 255 327.88671875 c 0,59,60
 201 337 201 337 117.0390625 336.54296875 c 1,61,-1
 118.475585938 47.1962890625 l 1,43,44
EndSplineSet
Substitution2: "mark-downsizer-1" afii10045.mark
EndChar

StartChar: afii10046
Encoding: 1068 1068 144
AltUni2: 00044c.ffffffff.0
Width: 553
GlyphClass: 2
Flags: W
LayerCount: 2
Fore
SplineSet
51 708 m 25,0,-1
 116 707 l 17,1,-1
 115.8828125 386.079101562 l 1,2,3
 191 385 191 385 216 382 c 0,4,5
 261 377 261 377 306 367.5 c 128,-1,6
 351 358 351 358 390 340 c 128,-1,7
 429 322 429 322 458.5 295 c 0,8,9
 491 266 491 266 503 230 c 0,10,11
 520 182 520 182 506.5 142.5 c 0,12,13
 494 106 494 106 462.5 80.5 c 128,-1,14
 431 55 431 55 385.5 40 c 0,15,16
 333 23 333 23 291 16 c 0,17,18
 173 -3 173 -3 15 6 c 1,19,-1
 13 52.4873046875 l 1,20,21
 33 51 33 51 52 49.791015625 c 9,22,-1
 51 708 l 25,0,-1
118.475585938 47.1962890625 m 1,23,24
 160 46 160 46 226 53.38671875 c 0,25,26
 266 58 266 58 303.5 67.787109375 c 0,27,28
 341 78 341 78 372 94.787109375 c 0,29,30
 403 112 403 112 418.5 137.086914062 c 0,31,32
 433 160 433 160 429 199.186523438 c 0,33,34
 426 230 426 230 409 250.936523438 c 128,-1,35
 392 272 392 272 367.5 287.836914062 c 0,36,37
 343 304 343 304 314.5 313.037109375 c 128,-1,38
 286 322 286 322 255 327.88671875 c 0,39,40
 201 337 201 337 117.0390625 336.54296875 c 1,41,-1
 118.475585938 47.1962890625 l 1,23,24
EndSplineSet
Substitution2: "mark-downsizer-1" afii10046.mark
EndChar

StartChar: afii10047
Encoding: 1069 1069 145
AltUni2: 00044d.ffffffff.0
Width: 511
GlyphClass: 2
Flags: W
LayerCount: 2
Fore
SplineSet
5 39 m 1,0,-1
 25 100 l 1,1,2
 139 61 139 61 203 62 c 1,3,4
 255 67 255 67 287.5 80 c 128,-1,5
 320 93 320 93 344 126 c 128,-1,6
 368 159 368 159 381 225 c 0,7,8
 390 270 390 270 390.366667252 319 c 1,9,-1
 118 319 l 1,10,-1
 118 374 l 1,11,-1
 388.429088362 374 l 1,12,13
 384 445 384 445 368.5 494 c 0,14,15
 352 546 352 546 328.5 577.5 c 128,-1,16
 305 609 305 609 275.5 624.5 c 128,-1,17
 246 640 246 640 216 644 c 0,18,19
 159 651 159 651 91 626.927711413 c 1,20,21
 52 554 l 1,22,-1
 23 692 l 1,23,24
 150 713 150 713 254 686 c 0,25,26
 297 675 297 675 337 651 c 128,-1,27
 377 627 377 627 408.5 587.5 c 128,-1,28
 440 548 440 548 458.5 488.5 c 128,-1,29
 477 429 477 429 475 346 c 0,30,31
 472 261 472 261 448.5 190.5 c 128,-1,32
 425 120 425 120 358 67 c 128,-1,33
 291 14 291 14 192.5 4 c 128,-1,34
 94 -6 94 -6 5 39 c 1,0,-1
EndSplineSet
Substitution2: "mark-downsizer-1" afii10047.mark
EndChar

StartChar: afii10048
Encoding: 1070 1070 146
AltUni2: 00044e.ffffffff.0
Width: 862
GlyphClass: 2
Flags: W
LayerCount: 2
Fore
SplineSet
109 702 m 1,0,-1
 107 392 l 1,1,-1
 233.97028072 390.29570093 l 1,2,3
 239.533066363 470.735244595 239.533066363 470.735244595 263.5 525 c 0,4,5
 290 585 290 585 325 621 c 128,-1,6
 360 657 360 657 407.5 678.5 c 128,-1,7
 455 700 455 700 521 701 c 0,8,9
 602 700 602 700 668 670 c 0,10,11
 697 658 697 658 724 637 c 128,-1,12
 751 616 751 616 773.5 583.5 c 128,-1,13
 796 551 796 551 810 505.5 c 128,-1,14
 824 460 824 460 827 401 c 0,15,16
 828 302 828 302 803 228 c 128,-1,17
 778 154 778 154 736 104 c 128,-1,18
 694 54 694 54 640.5 28 c 128,-1,19
 587 2 587 2 531 1 c 128,-1,20
 475 0 475 0 419.5 21 c 128,-1,21
 364 42 364 42 320.5 87.5 c 128,-1,22
 277 133 277 133 252 204 c 0,23,24
 230.802372744 264.201261408 230.802372744 264.201261408 231.891979792 343.813984953 c 1,25,-1
 106 336 l 1,26,-1
 109 3 l 1,27,-1
 30 0 l 1,28,-1
 4 698 l 1,29,-1
 109 702 l 1,0,-1
746 338 m 0,30,31
 751 409 751 409 738.5 460 c 128,-1,32
 726 511 726 511 703.5 547 c 128,-1,33
 681 583 681 583 654 605.5 c 128,-1,34
 627 628 627 628 596 640.5 c 128,-1,35
 565 653 565 653 527 654 c 0,36,37
 522 654 522 654 506.5 653.5 c 128,-1,38
 491 653 491 653 470.5 648.5 c 128,-1,39
 450 644 450 644 428.5 632.5 c 128,-1,40
 407 621 407 621 384 599.5 c 128,-1,41
 361 578 361 578 344 536 c 128,-1,42
 327 494 327 494 320 433 c 0,43,44
 309 341 309 341 326 266.5 c 128,-1,45
 343 192 343 192 376 139.5 c 128,-1,46
 409 87 409 87 453 59.5 c 128,-1,47
 497 32 497 32 540 34 c 0,48,49
 562 34 562 34 594 42.5 c 128,-1,50
 626 51 626 51 657 81 c 128,-1,51
 688 111 688 111 713 171.5 c 128,-1,52
 738 232 738 232 746 338 c 0,30,31
EndSplineSet
Substitution2: "mark-downsizer-1" afii10048.mark
EndChar

StartChar: afii10049
Encoding: 1071 1071 147
AltUni2: 00044f.ffffffff.0
Width: 501
GlyphClass: 2
Flags: W
LayerCount: 2
Fore
SplineSet
465 636 m 1,0,-1
 412 641 l 1,1,2
 424 29 424 29 424 27 c 0,3,4
 425 25 425 25 430 20.5 c 128,-1,5
 435 16 435 16 441 10 c 0,6,7
 447 5 447 5 456 -2 c 1,8,-1
 293 1 l 1,9,10
 307 15 307 15 319 27 c 0,11,12
 329 37 329 37 337.5 46 c 128,-1,13
 346 55 346 55 348 57 c 0,14,15
 348 57.712299503 348 57.712299503 351.044223492 355.743760024 c 1,16,-1
 47 2 l 1,17,-1
 5 54 l 1,18,-1
 270.404080646 367.018101758 l 1,19,20
 240.800207836 368.85402316 240.800207836 368.85402316 223 371.5 c 0,21,22
 186 377 186 377 147.5 390.5 c 128,-1,23
 109 404 109 404 79.5 424.5 c 128,-1,24
 50 445 50 445 31 475 c 128,-1,25
 12 505 12 505 11 550 c 0,26,27
 10 585 10 585 29.5 609.5 c 128,-1,28
 49 634 49 634 81 650.5 c 128,-1,29
 113 667 113 667 153.5 678 c 128,-1,30
 194 689 194 689 238 694 c 0,31,32
 339 704 339 704 467 694 c 1,33,-1
 465 636 l 1,0,-1
351.740386801 423.890221814 m 1,34,35
 352.737332668 521.469046023 352.737332668 521.469046023 354 645 c 1,36,37
 327 648 327 648 284 649 c 128,-1,38
 241 650 241 650 199.5 641 c 128,-1,39
 158 632 158 632 125 609 c 128,-1,40
 92 586 92 586 85 540 c 0,41,42
 83 515 83 515 92.5 498 c 128,-1,43
 102 481 102 481 120.5 468 c 128,-1,44
 139 455 139 455 163.5 446.5 c 128,-1,45
 188 438 188 438 214 433 c 0,46,47
 273.151143891 420.183918824 273.151143891 420.183918824 351.740386801 423.890221814 c 1,34,35
EndSplineSet
Substitution2: "mark-downsizer-1" afii10049.mark
EndChar

StartChar: endash
Encoding: 8211 8211 148
Width: 241
GlyphClass: 2
Flags: W
LayerCount: 2
Fore
SplineSet
7 379 m 1,0,-1
 187 408 l 1,1,-1
 192 378 l 1,2,-1
 28 330 l 1,3,-1
 7 379 l 1,0,-1
EndSplineSet
EndChar

StartChar: emdash
Encoding: 8212 8212 149
Width: 359
GlyphClass: 2
Flags: W
LayerCount: 2
Fore
SplineSet
0 339 m 1,0,-1
 307 355 l 1,1,-1
 305 301 l 1,2,-1
 3 308 l 1,3,-1
 0 339 l 1,0,-1
EndSplineSet
EndChar

StartChar: quoteleft
Encoding: 8216 8216 150
Width: 141
GlyphClass: 2
Flags: W
LayerCount: 2
Fore
SplineSet
18 644 m 0,0,1
 7 663 7 663 8 682 c 0,2,3
 10 698 10 698 21.5 717 c 128,-1,4
 33 736 33 736 70 753 c 1,5,-1
 84 736 l 1,6,7
 59 729 59 729 50 720.5 c 128,-1,8
 41 712 41 712 40 704 c 1,9,10
 65 708 65 708 80 683 c 0,11,12
 89 668 89 668 86.5 651.5 c 128,-1,13
 84 635 84 635 70 627 c 0,14,15
 56 621 56 621 41.5 625.5 c 128,-1,16
 27 630 27 630 18 644 c 0,0,1
EndSplineSet
EndChar

StartChar: quoteright
Encoding: 8217 8217 151
Width: 139
GlyphClass: 2
Flags: W
LayerCount: 2
Fore
SplineSet
66 740 m 0,0,1
 83 725 83 725 88 707 c 0,2,3
 93 691 93 691 87 669.5 c 128,-1,4
 81 648 81 648 54 619 c 1,5,-1
 33 632 l 1,6,7
 55 647 55 647 60.5 657.5 c 128,-1,8
 66 668 66 668 65 676 c 1,9,10
 55 671 55 671 43 672.5 c 128,-1,11
 31 674 31 674 21 683 c 0,12,13
 7 695 7 695 4.5 711 c 128,-1,14
 2 727 2 727 12 739 c 0,15,16
 22 750 22 750 37 750 c 128,-1,17
 52 750 52 750 66 740 c 0,0,1
EndSplineSet
EndChar

StartChar: quotedblleft
Encoding: 8220 8220 152
Width: 200
GlyphClass: 2
Flags: W
LayerCount: 2
Fore
SplineSet
103 686 m 1,0,1
 124 684 124 684 130 660 c 0,2,3
 133 646 133 646 126.5 633 c 128,-1,4
 120 620 120 620 109 617 c 0,5,6
 96 615 96 615 85 622 c 128,-1,7
 74 629 74 629 71 642 c 2,8,-1
 71 640 l 1,9,10
 67 658 67 658 72 674 c 0,11,12
 77 687 77 687 92 700.5 c 128,-1,13
 107 714 107 714 139 720 c 1,14,-1
 148 701 l 1,15,16
 125 701 125 701 115.5 696.5 c 128,-1,17
 106 692 106 692 103 686 c 1,0,1
28 709 m 1,18,19
 49 712 49 712 61 691 c 0,20,21
 68 678 68 678 66 664 c 128,-1,22
 64 650 64 650 53 643 c 0,23,24
 42 638 42 638 30 641.5 c 128,-1,25
 18 645 18 645 9 657 c 0,26,27
 1 673 1 673 2 688 c 128,-1,28
 3 703 3 703 13.5 718.5 c 128,-1,29
 24 734 24 734 54 751 c 1,30,-1
 66 734 l 1,31,32
 44 728 44 728 36.5 721.5 c 128,-1,33
 29 715 29 715 28 709 c 1,18,19
EndSplineSet
EndChar

StartChar: quotedblright
Encoding: 8221 8221 153
Width: 181
GlyphClass: 2
Flags: W
LayerCount: 2
Fore
SplineSet
51 668 m 1,0,1
 33 658 33 658 16 672 c 0,2,3
 5 682 5 682 2.5 695 c 128,-1,4
 0 708 0 708 8 718 c 0,5,6
 16 727 16 727 27.5 728 c 128,-1,7
 39 729 39 729 50 720 c 0,8,9
 63 710 63 710 68 695 c 0,10,11
 72 682 72 682 67.5 663.5 c 128,-1,12
 63 645 63 645 43 621 c 1,13,-1
 26 632 l 1,14,15
 43 644 43 644 48 653 c 128,-1,16
 53 662 53 662 51 668 c 1,0,1
122 694 m 1,17,18
 108 680 108 680 86 688 c 0,19,20
 73 694 73 694 67 706 c 128,-1,21
 61 718 61 718 66 730 c 0,22,23
 71 741 71 741 82 745 c 128,-1,24
 93 749 93 749 105 744 c 0,25,26
 121 737 121 737 129 724 c 0,27,28
 136 713 136 713 138 694.5 c 128,-1,29
 140 676 140 676 127 647 c 1,30,-1
 109 652 l 1,31,32
 122 669 122 669 123 678.5 c 128,-1,33
 124 688 124 688 122 694 c 1,17,18
EndSplineSet
EndChar

StartChar: fraction
Encoding: 8260 8260 154
Width: 287
GlyphClass: 2
Flags: W
LayerCount: 2
Fore
SplineSet
186 560 m 1,0,-1
 246 550 l 1,1,-1
 33 62 l 1,2,-1
 0 73 l 1,3,-1
 186 560 l 1,0,-1
EndSplineSet
EndChar

StartChar: Euro
Encoding: 8364 8364 155
Width: 407
GlyphClass: 2
Flags: W
LayerCount: 2
Fore
SplineSet
347 122 m 1,0,1
 273 111 273 111 214 127 c 0,2,3
 188 134 188 134 163.5 147.5 c 128,-1,4
 139 161 139 161 119.5 184 c 128,-1,5
 100 207 100 207 86.5 241 c 128,-1,6
 73 275 73 275 70 321 c 1,7,-1
 33 323 l 1,8,-1
 31 352 l 1,9,-1
 70 356 l 1,10,-1
 70 362 l 2,11,12
 70 368 70 368 70.5 372.5 c 128,-1,13
 71 377 71 377 71 382 c 1,14,-1
 4 377 l 1,15,-1
 0 411 l 1,16,-1
 75 412 l 1,17,18
 84 474 84 474 106 511.5 c 128,-1,19
 128 549 128 549 155 570.5 c 128,-1,20
 182 592 182 592 213.5 599.5 c 128,-1,21
 245 607 245 607 271 605.5 c 128,-1,22
 297 604 297 604 316.5 596.5 c 128,-1,23
 336 589 336 589 342 582 c 1,24,-1
 343 523 l 1,25,26
 322 542 322 542 311 553 c 1,27,28
 283 564 283 564 265 565 c 128,-1,29
 247 566 247 566 228 562.5 c 128,-1,30
 209 559 209 559 192 546 c 128,-1,31
 175 533 175 533 157.5 500.5 c 128,-1,32
 140 468 140 468 137 412 c 1,33,-1
 186 412 l 1,34,-1
 185 387 l 1,35,-1
 135 384 l 1,36,-1
 135 368 l 1,37,-1
 135 360 l 1,38,-1
 216 367 l 1,39,-1
 215 318 l 1,40,-1
 138 320 l 1,41,42
 143 265 143 265 158 232.5 c 128,-1,43
 173 200 173 200 193 184 c 128,-1,44
 213 168 213 168 234 163.5 c 128,-1,45
 255 159 255 159 272.5 161.5 c 128,-1,46
 290 164 290 164 302 167.5 c 128,-1,47
 314 171 314 171 314 173 c 2,48,-1
 346 224 l 1,49,-1
 347 122 l 1,0,1
EndSplineSet
EndChar

StartChar: trademark
Encoding: 8482 8482 156
Width: 350
GlyphClass: 2
Flags: W
LayerCount: 2
Fore
SplineSet
146 554 m 1,0,-1
 146 703 l 1,1,-1
 156 703 l 1,2,-1
 216 585 l 1,3,-1
 271 702 l 1,4,-1
 289 702 l 1,5,-1
 299 555 l 1,6,-1
 275 555 l 1,7,-1
 270 673 l 1,8,-1
 212 557 l 1,9,-1
 158 668 l 1,10,-1
 163 553 l 1,11,-1
 146 554 l 1,0,-1
2 703 m 1,12,-1
 130 702 l 1,13,-1
 129 690 l 1,14,-1
 69 690 l 1,15,-1
 80 555 l 1,16,-1
 59 554 l 1,17,-1
 55 692 l 1,18,-1
 3 692 l 1,19,-1
 2 703 l 1,12,-1
EndSplineSet
EndChar

StartChar: minus
Encoding: 8722 8722 157
Width: 319
GlyphClass: 2
Flags: W
LayerCount: 2
Fore
SplineSet
0 405 m 1,0,-1
 257 421 l 1,1,-1
 255 367 l 1,2,-1
 3 374 l 1,3,-1
 0 405 l 1,0,-1
EndSplineSet
EndChar

StartChar: Scedilla
Encoding: 350 350 158
AltUni2: 00015f.ffffffff.0
Width: 380
Flags: W
LayerCount: 2
Fore
SplineSet
149 7 m 2,0,1
 148.714285714 6.42857142857 148.714285714 6.42857142857 149 6.0612244898 c 2,2,-1
 149 7 l 2,0,1
EndSplineSet
Refer: 77 184 S 1 0 0 1 140 -60 2
Refer: 51 83 N 1 0 0 1 0 0 2
EndChar

StartChar: yen
Encoding: 165 165 161
Width: 454
Flags: W
LayerCount: 2
Fore
SplineSet
293.249023438 292.5 m 25,0,-1
 293.249023438 264 l 25,1,-1
 110.999023438 263.25 l 25,2,-1
 109.499023438 285 l 25,3,-1
 293.249023438 292.5 l 25,0,-1
297.749023438 333 m 25,4,-1
 299.249023438 316 l 25,5,-1
 113.999023438 317.25 l 25,6,-1
 116.999023438 347.25 l 25,7,-1
 297.749023438 333 l 25,4,-1
EndSplineSet
Refer: 57 89 N 0.75 0 0 0.75 0 81 2
EndChar

StartChar: guillemotleft
Encoding: 171 171 162
Width: 281
Flags: W
LayerCount: 2
Fore
SplineSet
107 468 m 1,0,-1
 129 437 l 1,1,-1
 41 346 l 1,2,-1
 125 265 l 1,3,-1
 97 225 l 1,4,-1
 1 336 l 1,5,-1
 107 468 l 1,0,-1
209 468 m 1,6,-1
 231 437 l 1,7,-1
 143 346 l 1,8,-1
 227 265 l 1,9,-1
 199 225 l 1,10,-1
 103 336 l 1,11,-1
 209 468 l 1,6,-1
EndSplineSet
EndChar

StartChar: guillemotright
Encoding: 187 187 163
Width: 281
Flags: W
LayerCount: 2
Fore
SplineSet
125 225 m 1,0,-1
 103 256 l 1,1,-1
 191 347 l 1,2,-1
 107 428 l 1,3,-1
 135 468 l 1,4,-1
 231 357 l 1,5,-1
 125 225 l 1,0,-1
23 225 m 1,6,-1
 1 256 l 1,7,-1
 89 347 l 1,8,-1
 5 428 l 1,9,-1
 33 468 l 1,10,-1
 129 357 l 1,11,-1
 23 225 l 1,6,-1
EndSplineSet
EndChar

StartChar: uni00AD
Encoding: 173 173 168
Width: 280
Flags: W
LayerCount: 2
Fore
SplineSet
0 348 m 1,0,-1
 226 368 l 1,1,-1
 222 302 l 1,2,-1
 3 310 l 1,3,-1
 0 348 l 1,0,-1
EndSplineSet
EndChar

StartChar: degree
Encoding: 176 176 169
Width: 122
Flags: W
LayerCount: 2
Fore
SplineSet
60.099609375 676 m 128,-1,1
 66.400390625 676 66.400390625 676 73.599609375 677.799804688 c 128,-1,2
 80.7998046875 679.599609375 80.7998046875 679.599609375 87.5498046875 684.549804688 c 128,-1,3
 94.2998046875 689.5 94.2998046875 689.5 97.900390625 696.700195312 c 128,-1,4
 101.5 703.900390625 101.5 703.900390625 101.5 714.700195312 c 0,5,6
 100.599609375 725.5 100.599609375 725.5 96.099609375 731.349609375 c 128,-1,7
 91.599609375 737.200195312 91.599609375 737.200195312 85.75 741.25 c 128,-1,8
 79.900390625 745.299804688 79.900390625 745.299804688 73.599609375 746.650390625 c 128,-1,9
 67.2998046875 748 67.2998046875 748 64.599609375 748 c 0,10,11
 46.599609375 748.900390625 46.599609375 748.900390625 33.5498046875 738.099609375 c 128,-1,12
 20.5 727.299804688 20.5 727.299804688 20.5 707.5 c 0,13,14
 20.5 699.400390625 20.5 699.400390625 24.5498046875 693.549804688 c 128,-1,15
 28.599609375 687.700195312 28.599609375 687.700195312 34.4501953125 683.650390625 c 128,-1,16
 40.2998046875 679.599609375 40.2998046875 679.599609375 47.0498046875 677.799804688 c 128,-1,0
 53.7998046875 676 53.7998046875 676 60.099609375 676 c 128,-1,1
56.86328125 661.0703125 m 1,17,18
 33 662 33 662 22 668.5 c 128,-1,19
 11 675 11 675 5 685.5 c 128,-1,20
 -1 696 -1 696 0 712 c 0,21,22
 1 729 1 729 8 739.5 c 128,-1,23
 15 750 15 750 24.5 755.5 c 128,-1,24
 34 761 34 761 44 763 c 128,-1,25
 54 765 54 765 62 765 c 128,-1,26
 70 765 70 765 79.5 763 c 128,-1,27
 89 761 89 761 98.5 755.5 c 128,-1,28
 108 750 108 750 114.5 740 c 0,29,30
 123 727 123 727 122 713 c 0,31,32
 121 698 121 698 115.5 688 c 128,-1,33
 110 678 110 678 97 669 c 0,34,35
 85.142578125 660.791015625 85.142578125 660.791015625 56.86328125 661.0703125 c 1,17,18
EndSplineSet
EndChar

StartChar: ordmasculine
Encoding: 186 186 170
Width: 122
Flags: W
LayerCount: 2
Fore
SplineSet
-2 640 m 1,0,-1
 116 649 l 1,1,-1
 113 618 l 1,2,-1
 0 618 l 1,3,-1
 -2 640 l 1,0,-1
EndSplineSet
Refer: 169 176 S 1 0 0 1 0 0 2
EndChar

StartChar: macron
Encoding: 175 175 174
Width: 200
Flags: W
LayerCount: 2
Fore
SplineSet
0 671 m 1,0,-1
 196 679 l 1,1,-1
 200 641 l 1,2,-1
 3 643 l 1,3,-1
 0 671 l 1,0,-1
EndSplineSet
EndChar

StartChar: Etatonos
Encoding: 905 905 179
AltUni2: 0003ae.ffffffff.0
Width: 642
Flags: W
LayerCount: 2
Fore
SplineSet
229.555664062 664.91796875 m 2,0,-1
 230 664.93359375 l 2,1,2
 229.8515625 665.07421875 229.8515625 665.07421875 229.555664062 664.91796875 c 2,0,-1
EndSplineSet
Refer: 240 -1 N 1 0 0 1 120 0 2
Refer: 175 900 N 1 0 0 1 -8 0 2
EndChar

StartChar: Omegatonos
Encoding: 911 911 183
AltUni2: 0003ce.ffffffff.0
Width: 639
Flags: W
LayerCount: 2
Fore
SplineSet
472.52734375 57.6484375 m 1,0,-1
 509 58.900390625 l 2,1,2
 512 59.849609375 512 59.849609375 592 110.200195312 c 1,3,-1
 597 9.5 l 1,4,-1
 401 6.650390625 l 1,5,-1
 401.55859375 56.513671875 l 2,6,7
 402 57 402 57 430 82.650390625 c 0,8,9
 461 111.150390625 461 111.150390625 486 168.625 c 0,10,11
 511 226.099609375 511 226.099609375 519 326.799804688 c 0,12,13
 524 394.25 524 394.25 511.5 442.700195312 c 0,14,15
 499 491.150390625 499 491.150390625 476.5 525.349609375 c 0,16,17
 454 559.549804688 454 559.549804688 427 580.924804688 c 0,18,19
 400 602.299804688 400 602.299804688 369 614.174804688 c 0,20,21
 338 626.049804688 338 626.049804688 300 627 c 0,22,23
 295 627 295 627 279.5 626.525390625 c 0,24,25
 264 626.049804688 264 626.049804688 243.5 621.775390625 c 0,26,27
 223 617.5 223 617.5 201.5 606.575195312 c 0,28,29
 180 595.650390625 180 595.650390625 157 575.224609375 c 0,30,31
 134 554.799804688 134 554.799804688 117 514.900390625 c 0,32,33
 100 475 100 475 93 417.049804688 c 0,34,35
 82 329.650390625 82 329.650390625 99 258.875 c 0,36,37
 116 188.099609375 116 188.099609375 149 138.224609375 c 0,38,39
 182 89.2998046875 182 89.2998046875 231 54.625 c 1,40,-1
 233 3.7998046875 l 1,41,-1
 3 0.9501953125 l 1,42,-1
 3 109.25 l 1,43,-1
 91 50.349609375 l 1,44,-1
 129.827148438 50.8076171875 l 1,45,46
 111 65.5498046875 111 65.5498046875 96.5 83.125 c 0,47,48
 46 143.450195312 46 143.450195312 28 193.799804688 c 0,49,50
 5 257.450195312 5 257.450195312 9 354.349609375 c 0,51,52
 13 441.75 13 441.75 39.5 498.75 c 0,53,54
 66 555.75 66 555.75 101 589.950195312 c 0,55,56
 136 624.150390625 136 624.150390625 183.5 644.575195312 c 0,57,58
 235 666.900390625 235 666.900390625 297 665.950195312 c 0,59,60
 371 665 371 665 444 636.5 c 0,61,62
 473 625.099609375 473 625.099609375 500 605.150390625 c 0,63,64
 527 585.200195312 527 585.200195312 549.5 554.325195312 c 0,65,66
 572 523.450195312 572 523.450195312 586 480.224609375 c 0,67,68
 602 432.25 602 432.25 603 380.950195312 c 0,69,70
 605 290.700195312 605 290.700195312 579 216.599609375 c 0,71,72
 554 146.299804688 554 146.299804688 512 98.7998046875 c 0,73,74
 484 67.4501953125 484 67.4501953125 472.52734375 57.6484375 c 1,0,-1
EndSplineSet
Refer: 175 900 N 1 0 0 1 0 0 2
EndChar

StartChar: Deltagreek
Encoding: 916 916 185
AltUni2: 0003b4.ffffffff.0
Width: 496
Flags: W
AnchorPoint: "top" 207 683 basechar 0
LayerCount: 2
Fore
SplineSet
382 48 m 1,0,-1
 200 530 l 1,1,-1
 69 40 l 1,2,-1
 382 48 l 1,0,-1
0 0 m 1,3,-1
 206 705 l 1,4,-1
 480 10 l 1,5,-1
 0 0 l 1,3,-1
EndSplineSet
Substitution2: "mark-downsizer-1" Deltagreek.mark
EndChar

StartChar: Theta
Encoding: 920 920 186
AltUni2: 0003b8.ffffffff.0
Width: 639
Flags: W
AnchorPoint: "top" 291 689 basechar 0
LayerCount: 2
Fore
SplineSet
193 423 m 1,0,-1
 225 384.978515625 l 1,1,-1
 362 386.17578125 l 1,2,-1
 404 426.48046875 l 1,3,-1
 398 285.48046875 l 1,4,-1
 360 323 l 1,5,-1
 229 329.83984375 l 1,6,-1
 197 300 l 1,7,-1
 193 423 l 1,0,-1
297 701 m 0,8,9
 378 700 378 700 444 670 c 0,10,11
 473 658 473 658 500 637 c 128,-1,12
 527 616 527 616 549.5 583.5 c 128,-1,13
 572 551 572 551 586 505.5 c 128,-1,14
 600 460 600 460 603 401 c 0,15,16
 604 302 604 302 579 228 c 128,-1,17
 554 154 554 154 512 104 c 128,-1,18
 470 54 470 54 416.5 28 c 128,-1,19
 363 2 363 2 307 1 c 128,-1,20
 251 0 251 0 195.5 21 c 128,-1,21
 140 42 140 42 96.5 87.5 c 128,-1,22
 53 133 53 133 28 204 c 128,-1,23
 3 275 3 275 9 373 c 0,24,25
 13 465 13 465 39.5 525 c 128,-1,26
 66 585 66 585 101 621 c 128,-1,27
 136 657 136 657 183.5 678.5 c 128,-1,28
 231 700 231 700 297 701 c 0,8,9
519 344 m 0,29,30
 524 415 524 415 511.5 466 c 128,-1,31
 499 517 499 517 476.5 553 c 128,-1,32
 454 589 454 589 427 611.5 c 128,-1,33
 400 634 400 634 369 646.5 c 128,-1,34
 338 659 338 659 300 660 c 0,35,36
 295 660 295 660 279.5 659.5 c 128,-1,37
 264 659 264 659 243.5 654.5 c 128,-1,38
 223 650 223 650 201.5 638.5 c 128,-1,39
 180 627 180 627 157 605.5 c 128,-1,40
 134 584 134 584 117 542 c 128,-1,41
 100 500 100 500 93 439 c 0,42,43
 82 347 82 347 99 272.5 c 128,-1,44
 116 198 116 198 149 145.5 c 128,-1,45
 182 93 182 93 226 65.5 c 128,-1,46
 270 38 270 38 313 40 c 0,47,48
 335 40 335 40 367 48.5 c 128,-1,49
 399 57 399 57 430 87 c 128,-1,50
 461 117 461 117 486 177.5 c 128,-1,51
 511 238 511 238 519 344 c 0,29,30
EndSplineSet
Substitution2: "mark-downsizer-1" Theta.mark
EndChar

StartChar: Lambda
Encoding: 923 923 187
AltUni2: 0003bb.ffffffff.0
Width: 551
Flags: W
LayerCount: 2
Fore
SplineSet
419 36 m 1,0,1
 235 530 l 1,2,-1
 85 43 l 1,3,-1
 115 0 l 1,4,-1
 5 9 l 1,5,-1
 236 700 l 1,6,-1
 497 48 l 1,7,-1
 539 17 l 1,8,-1
 390 0 l 1,9,-1
 419 36 l 1,0,1
EndSplineSet
Substitution2: "mark-downsizer-1" Lambda.mark
EndChar

StartChar: Xi
Encoding: 926 926 188
AltUni2: 0003be.ffffffff.0
Width: 556
Flags: W
LayerCount: 2
Fore
SplineSet
164 430 m 5,0,-1
 196 391.97826087 l 5,1,-1
 310 395.695652174 l 5,2,-1
 352 436 l 5,3,-1
 346 295 l 5,4,-1
 308 332.52 l 5,5,-1
 200 336.84 l 5,6,-1
 168 307 l 5,7,-1
 164 430 l 5,0,-1
9 686 m 1,8,-1
 500 670 l 1,9,-1
 502 576 l 1,10,-1
 454 622.551020408 l 1,11,-1
 48 627.52244898 l 1,12,-1
 8 597 l 1,13,-1
 9 686 l 1,8,-1
20 113 m 1,14,-1
 58 60.7644628099 l 1,15,-1
 454 68.9462809917 l 1,16,-1
 502 116 l 1,17,-1
 505 7 l 1,18,-1
 14 10 l 1,19,-1
 20 113 l 1,14,-1
EndSplineSet
Substitution2: "mark-downsizer-1" Xi.mark
EndChar

StartChar: Sigma
Encoding: 931 931 189
AltUni2: 0003c3.ffffffff.0 0003c2.ffffffff.0
Width: 502
Flags: W
LayerCount: 2
Fore
SplineSet
109 58 m 1,0,1
 347 62 347 62 352.5 62.5 c 128,-1,2
 358 63 358 63 438 116 c 1,3,-1
 438 2 l 1,4,-1
 29 2 l 1,5,-1
 29 57 l 1,6,-1
 233 379 l 1,7,-1
 5 643 l 1,8,-1
 5 700 l 1,9,-1
 468 693 l 1,10,-1
 467 575 l 1,11,12
 446 592 446 592 428 607 c 128,-1,13
 410 622 410 622 390 638 c 1,14,-1
 99 642 l 1,15,-1
 310 380 l 1,16,-1
 109 58 l 1,0,1
EndSplineSet
Substitution2: "mark-downsizer-1" Sigma.mark
EndChar

StartChar: Psi
Encoding: 936 936 190
AltUni2: 0003c8.ffffffff.0
Width: 558
Flags: W
LayerCount: 2
Fore
SplineSet
170 697 m 1,0,-1
 306 697 l 1,1,2
 297 689 297 689 291 682.5 c 128,-1,3
 285 676 285 676 278.5 669.5 c 128,-1,4
 272 663 272 663 272 660 c 0,5,6
 272 479.742264209 272 479.742264209 273.082643942 334.670456536 c 1,7,8
 278.023774622 334.236963113 278.023774622 334.236963113 283 334 c 0,9,10
 325 332 325 332 354 351 c 0,11,12
 412.634194831 389.415506958 412.634194831 389.415506958 416.317097416 466.207753479 c 0,13,14
 423.040581737 606.399206723 423.040581737 606.399206723 410.5 623.5 c 0,15,16
 403 633 403 633 399 638.25 c 2,17,-1
 391 646.75 l 2,18,19
 391 647 391 647 376 660.25 c 2,20,-1
 356 678.25 l 1,21,-1
 426 678.25 l 1,22,-1
 514 678 l 1,23,24
 490 618 490 618 493 589 c 128,-1,25
 496 560 496 560 491.5 486 c 128,-1,26
 487 412 487 412 482.5 398 c 0,27,28
 450.730668345 277.61095373 450.730668345 277.61095373 279 289.5 c 0,29,30
 276.209818951 289.71021912 276.209818951 289.71021912 273.449586252 289.951117039 c 1,31,32
 273.702695658 261.75739081 273.702695658 261.75739081 274 235 c 0,33,34
 276 55 276 55 277.5 53 c 128,-1,35
 279 51 279 51 337 0 c 1,36,-1
 172 -2 l 1,37,38
 200 25 200 25 205 34 c 128,-1,39
 210 43 210 43 211.5 298 c 2,40,-1
 211.503050768 300.153842343 l 1,41,42
 179.908070986 308.170211788 179.908070986 308.170211788 153.5 321.5 c 0,43,44
 101 348 101 348 74 376 c 0,45,46
 19.4 432.622222222 19.4 432.622222222 10.5 532.5 c 0,47,48
 2.66925064599 611.519379845 2.66925064599 611.519379845 9.5 662.75 c 1,49,-1
 2.5 685.75 l 2,50,51
 -1 692 -1 692 -2.5 700.75 c 1,52,-1
 127.5 697.75 l 1,53,54
 116 684 116 684 105.5 667 c 128,-1,55
 95 650 95 650 92 646 c 128,-1,56
 89 642 89 642 85 621 c 128,-1,57
 81 600 81 600 84 555 c 128,-1,58
 87 510 87 510 91 490 c 0,59,60
 102.58974359 432.051282051 102.58974359 432.051282051 139 392 c 0,61,62
 162 368 162 368 201.5 352 c 0,63,64
 206.515373735 349.968456209 206.515373735 349.968456209 211.571051865 348.162617037 c 1,65,-1
 212 651 l 1,66,67
 204.105263158 664.157894737 204.105263158 664.157894737 170 697 c 1,0,-1
EndSplineSet
Substitution2: "mark-downsizer-1" Psi.mark
EndChar

StartChar: Omegagreek
Encoding: 937 937 191
AltUni2: 0003c9.ffffffff.0
Width: 639
Flags: W
LayerCount: 2
Fore
SplineSet
472.52734375 60.6826171875 m 1,0,1
 509 62 l 2,2,3
 512 63 512 63 592 116 c 1,4,-1
 597 10 l 1,5,-1
 401 7 l 1,6,-1
 401.55859375 59.48828125 l 2,7,8
 402 60 402 60 430 87 c 0,9,10
 461 117 461 117 486 177.5 c 128,-1,11
 511 238 511 238 519 344 c 0,12,13
 524 415 524 415 511.5 466 c 128,-1,14
 499 517 499 517 476.5 553 c 128,-1,15
 454 589 454 589 427 611.5 c 128,-1,16
 400 634 400 634 369 646.5 c 128,-1,17
 338 659 338 659 300 660 c 0,18,19
 295 660 295 660 279.5 659.5 c 128,-1,20
 264 659 264 659 243.5 654.5 c 128,-1,21
 223 650 223 650 201.5 638.5 c 128,-1,22
 180 627 180 627 157 605.5 c 128,-1,23
 134 584 134 584 117 542 c 128,-1,24
 100 500 100 500 93 439 c 0,25,26
 82 347 82 347 99 272.5 c 128,-1,27
 116 198 116 198 149 145.5 c 0,28,29
 182 94 182 94 231 57.5 c 1,30,-1
 233 4 l 1,31,-1
 3 1 l 1,32,-1
 3 115 l 1,33,-1
 91 53 l 1,34,-1
 129.827148438 53.4814453125 l 1,35,36
 111 69 111 69 96.5 87.5 c 0,37,38
 46 151 46 151 28 204 c 0,39,40
 5 271 5 271 9 373 c 0,41,42
 13 465 13 465 39.5 525 c 128,-1,43
 66 585 66 585 101 621 c 128,-1,44
 136 657 136 657 183.5 678.5 c 0,45,46
 235 702 235 702 297 701 c 0,47,48
 371 700 371 700 444 670 c 0,49,50
 473 658 473 658 500 637 c 128,-1,51
 527 616 527 616 549.5 583.5 c 128,-1,52
 572 551 572 551 586 505.5 c 0,53,54
 602 455 602 455 603 401 c 0,55,56
 605 306 605 306 579 228 c 0,57,58
 554 154 554 154 512 104 c 0,59,60
 484 71 484 71 472.52734375 60.6826171875 c 1,0,1
EndSplineSet
Substitution2: "mark-downsizer-1" Omegagreek.mark
EndChar

StartChar: uni1E9E
Encoding: 7838 7838 193
AltUni2: 0000df.ffffffff.0
Width: 495
Flags: W
AnchorPoint: "top" 235 690 basechar 0
LayerCount: 2
Fore
SplineSet
168 75 m 25,0,-1
 199 36 l 1,1,2
 227 31 227 31 267.5 33.5 c 0,3,4
 321 36 321 36 350.25 84.25 c 0,5,6
 377 130 377 130 378 198 c 0,7,8
 378 235 378 235 369 263 c 128,-1,9
 360 291 360 291 344.5 310.5 c 128,-1,10
 329 330 329 330 308.5 342.5 c 128,-1,11
 288 355 288 355 267 362 c 0,12,13
 214 380 214 380 154 377 c 1,14,-1
 154 411 l 1,15,-1
 353 657 l 1,16,-1
 183.5 654 l 18,17,18
 140 653 140 653 107 630 c 0,19,20
 72 606 72 606 69 553 c 1,21,-1
 96 41 l 1,22,-1
 141 0 l 1,23,-1
 18 3 l 1,24,-1
 2 522 l 2,25,26
 1 553 1 553 9.5 590.5 c 0,27,28
 17 624 17 624 37.5 649.5 c 0,29,30
 65 684 65 684 96 687.5 c 0,31,32
 168 695 168 695 180 695.545898438 c 10,33,-1
 464 697 l 25,34,-1
 231 408 l 1,35,36
 235 407 235 407 248.5 405 c 128,-1,37
 262 403 262 403 286.5 398 c 128,-1,38
 311 393 311 393 340.5 381.5 c 128,-1,39
 370 370 370 370 396 347.5 c 128,-1,40
 422 325 422 325 439.5 290 c 128,-1,41
 457 255 457 255 460 202 c 0,42,43
 463 140 463 140 434.5 96 c 128,-1,44
 406 52 406 52 363.5 30 c 0,45,46
 312 3 312 3 267 3 c 0,47,48
 170 1 l 1,49,-1
 168 75 l 25,0,-1
EndSplineSet
Substitution2: "mark-downsizer-1" uni1E9E.mark
EndChar

StartChar: ogonek
Encoding: 731 731 194
Width: 89
Flags: W
LayerCount: 2
Fore
SplineSet
36.064453125 3.830078125 m 17,0,1
 24 -12 24 -12 24 -25 c 0,2,3
 23 -44 23 -44 29 -58.5 c 128,-1,4
 35 -73 35 -73 45.5 -80.5 c 128,-1,5
 56 -88 56 -88 66 -90 c 0,6,7
 81 -93 81 -93 89 -90 c 1,8,-1
 89 -134 l 2,9,10
 89 -135 89 -135 80.5 -135.5 c 128,-1,11
 72 -136 72 -136 56 -131.5 c 128,-1,12
 40 -127 40 -127 22 -111 c 0,13,14
 7 -95 7 -95 3 -74.5 c 128,-1,15
 -1 -54 -1 -54 1 -32 c 128,-1,16
 3 -10 3 -10 6 2 c 1,17,-1
 29 31 l 9,18,-1
 36.064453125 3.830078125 l 17,0,1
EndSplineSet
EndChar

StartChar: dotaccent
Encoding: 729 729 195
Width: 57
Flags: W
LayerCount: 2
Fore
SplineSet
52.5 700.5 m 0,0,1
 44.5 688.5 44.5 688.5 32.5 688 c 128,-1,2
 20.5 687.5 20.5 687.5 10.5 694.5 c 0,3,4
 1.5 702.5 1.5 702.5 0 715 c 128,-1,5
 -1.5 727.5 -1.5 727.5 5.5 738.5 c 0,6,7
 12.5 747.5 12.5 747.5 24 749.5 c 128,-1,8
 35.5 751.5 35.5 751.5 44.5 744.5 c 0,9,10
 54.5 735.5 54.5 735.5 56 723 c 128,-1,11
 57.5 710.5 57.5 710.5 52.5 700.5 c 0,0,1
EndSplineSet
EndChar

StartChar: mu
Encoding: 181 181 205
Width: 484
Flags: W
LayerCount: 2
Fore
SplineSet
390.400390625 23.2001953125 m 1,0,-1
 424.799804688 0 l 1,1,-1
 328 0 l 1,2,-1
 328.689808481 32.4285789183 l 1,3,4
 317 22 317 22 304 14.28125 c 0,5,6
 269 -5 269 -5 220.799804688 3.6923828125 c 0,7,8
 162 14 162 14 124 45.341796875 c 0,9,10
 87 77 87 77 63.9641252625 119.829955766 c 1,11,-1
 74.400390625 -112 l 1,12,-1
 120 -143.200195312 l 1,13,-1
 7.2001953125 -141.599609375 l 1,14,-1
 14.400390625 -116.799804688 l 1,15,-1
 13.7380758311 359.60161119 l 2,16,17
 13 382 13 382 12.7998046875 403.243164062 c 0,18,19
 13 444 13 444 10.400390625 466.775390625 c 1,20,-1
 4.7998046875 483.01171875 l 2,21,22
 2 488 2 488 0.7998046875 493.599609375 c 1,23,-1
 104.799804688 491.482421875 l 1,24,25
 97 482 97 482 89.599609375 473.12890625 c 0,26,27
 83 465 83 465 78 456.892578125 c 0,28,29
 73 449 73 449 72 443.479492188 c 0,30,31
 72 400 72 400 73.2001953125 354.887695312 c 0,32,33
 74 310 74 310 79.2001953125 267.353515625 c 0,34,35
 84 225 84 225 93.599609375 185.466796875 c 128,-1,36
 103 146 103 146 119.200195312 115.93359375 c 0,37,38
 135 86 135 86 162 66.166015625 c 0,39,40
 191 45 191 45 224.799804688 41.8115234375 c 0,41,42
 259 38 259 38 282.400390625 65.107421875 c 0,43,44
 306 92 306 92 318.400390625 135.345703125 c 0,45,46
 331 179 331 179 333.200195312 230.998046875 c 0,47,48
 336 320 336 320 334.400390625 329.827148438 c 0,49,50
 334 332 334 332 327.599609375 411.0078125 c 0,51,52
 327 418 327 418 313.599609375 453.362304688 c 0,53,54
 313 455 313 455 307.200195312 459.36328125 c 0,55,56
 302 464 302 464 295.200195312 468.892578125 c 2,57,-1
 279.200195312 481.599609375 l 1,58,-1
 335.200195312 481.599609375 l 1,59,-1
 398 482.305664062 l 1,60,61
 389 463 389 463 389 453 c 1,62,63
 387 448 387 448 390.400390625 23.2001953125 c 1,0,-1
EndSplineSet
EndChar

StartChar: paragraph
Encoding: 182 182 206
Width: 510
Flags: W
LayerCount: 2
Fore
SplineSet
327 642 m 1049,0,-1
472 688 m 1,1,2
 287 707 287 707 182.799804688 695 c 4,3,4
 150 691 150 691 117.599609375 681.5 c 4,5,6
 86 672 86 672 60.7998046875 656.5 c 4,7,8
 36 641 36 641 20 617 c 4,9,10
 4 591 4 591 4.3994140625 559 c 4,11,12
 5 514 5 514 18.3994140625 484 c 4,13,14
 33 454 33 454 55.599609375 435 c 4,15,16
 73 421 73 421 107.599609375 407 c 4,17,18
 132 398 132 398 166 394 c 4,19,20
 194 390 194 390 221.6484375 386.107421875 c 1,21,22
 210 65 210 65 210 64 c 0,23,24
 208 62 208 62 199.5 53 c 128,-1,25
 191 44 191 44 181 35 c 0,26,27
 169 23 169 23 155 10 c 1,28,-1
 263 6.9755859375 l 1,29,-1
 284 644 l 1,30,-1
 327 642 l 1,31,-1
 313 5.576171875 l 1,32,-1
 405 3 l 1,33,34
 397 10 397 10 391 15 c 0,35,36
 385 21 385 21 380.5 25.5 c 128,-1,37
 376 30 376 30 375 32 c 0,38,39
 375 34 375 34 380 638 c 1,40,-1
 430 634.067382812 l 1,41,-1
 468 570 l 1,42,-1
 472 688 l 1,1,2
EndSplineSet
EndChar

StartChar: ordfeminine
Encoding: 170 170 208
Width: 122
Flags: W
LayerCount: 2
Fore
SplineSet
122 764 m 1,0,-1
 122 670 l 1,1,-1
 131 661 l 1,2,-1
 100 661 l 1,3,-1
 103 764 l 25,4,-1
 122 764 l 1,0,-1
-2 640 m 1,5,-1
 116 649 l 1,6,-1
 113 618 l 1,7,-1
 0 618 l 1,8,-1
 -2 640 l 1,5,-1
EndSplineSet
Refer: 169 176 N 1 0 0 1 0 0 2
EndChar

StartChar: brokenbar
Encoding: 166 166 209
Width: 149
Flags: W
LayerCount: 2
Fore
SplineSet
39 422 m 1,0,-1
 39 658 l 1,1,-1
 98 653 l 1,2,-1
 88 417 l 9,3,-1
 39 422 l 1,0,-1
85 334 m 17,4,-1
 72 68 l 1,5,-1
 39 68 l 1,6,-1
 39.244140625 335 l 9,7,-1
 85 334 l 17,4,-1
EndSplineSet
EndChar

StartChar: section
Encoding: 167 167 210
Width: 431
Flags: W
LayerCount: 2
Fore
SplineSet
192 -77.5 m 0,0,1
 217 -80 217 -80 240 -67.5 c 0,2,3
 269 -52 269 -52 287 -0.5 c 0,4,5
 301 40 301 40 252 51.5 c 0,6,7
 200 64 200 64 163 78.5 c 0,8,9
 99 104 99 104 71.5 136.717773438 c 0,10,11
 47 166 47 166 25 207.5 c 0,12,13
 -21 296 -21 296 54 454.5 c 1,14,-1
 113 404.5 l 1,15,16
 80 328 80 328 77 301.5 c 0,17,18
 70 242 70 242 107 188 c 128,-1,19
 144 134 144 134 206 120 c 128,-1,20
 268 106 268 106 276 105.5 c 0,21,22
 298 104 298 104 320.8828125 101.5 c 0,23,24
 370 98 370 98 364 16.5 c 0,25,26
 361 -22 361 -22 341 -56.5 c 0,27,28
 304 -124 304 -124 199 -131.5 c 0,29,30
 165 -134 165 -134 124 -125.5 c 0,31,32
 76 -116 76 -116 34 -95 c 1,33,-1
 65 0 l 1,34,35
 86 -59 l 1,36,37
 118 -70 118 -70 192 -77.5 c 0,0,1
88 525.5 m 0,38,39
 102 447 102 447 223.540039062 425.255859375 c 0,40,41
 345 404 345 404 377 311.5 c 0,42,43
 402 240 402 240 387 179 c 128,-1,44
 372 118 372 118 335 60.5 c 1,45,-1
 281 83.5 l 1,46,47
 290 92 290 92 312.5 151.5 c 0,48,49
 335 210 335 210 323 293.5 c 0,50,51
 313 367 313 367 162 384.5 c 0,52,53
 76 394 76 394 29 486.5 c 0,54,55
 17 510 17 510 8 556 c 128,-1,56
 -1 602 -1 602 17 645 c 128,-1,57
 35 688 35 688 65 704 c 128,-1,58
 95 720 95 720 135.5 726.5 c 0,59,60
 176 732 176 732 220.5 730.5 c 0,61,62
 265 728 265 728 302 723.5 c 0,63,64
 339 718 339 718 362.5 712.5 c 0,65,66
 386.022872901 705.993673453 386.022872901 705.993673453 386 705.5 c 2,67,-1
 380 576 l 1,68,69
 334 654 l 1,70,71
 322 660 322 660 263.5 670.5 c 0,72,73
 142 693 142 693 102 617.5 c 0,74,75
 79 575 79 575 88 525.5 c 0,38,39
EndSplineSet
EndChar

StartChar: plusminus
Encoding: 177 177 211
Width: 296
Flags: W
LayerCount: 2
Fore
SplineSet
22 196 m 1,0,-1
 255 200 l 5,1,-1
 250 151 l 1,2,-1
 26 159 l 1,3,-1
 22 196 l 1,0,-1
254 309 m 1,4,-1
 155 311 l 1,5,-1
 152 219 l 1,6,-1
 121 219 l 1,7,-1
 117 311 l 1,8,-1
 0 311 l 1,9,-1
 6 348 l 1,10,-1
 117 348 l 1,11,-1
 115 462 l 1,12,-1
 157 462 l 1,13,-1
 155 348 l 1,14,-1
 256 349 l 1,15,-1
 254 309 l 1,4,-1
EndSplineSet
EndChar

StartChar: currency
Encoding: 164 164 212
Width: 358
Flags: W
LayerCount: 2
Fore
SplineSet
174.747070312 470 m 0,0,1
 215.573242188 469.606445312 215.573242188 469.606445312 248.83984375 457.817382812 c 0,2,3
 258.785253981 454.608778723 258.785253981 454.608778723 268.263662866 449.763183467 c 1,4,-1
 311 491 l 1,5,-1
 333 467 l 1,6,-1
 297.438835468 428.703361274 l 2,7,8
 299.771639187 426.353240373 299.771639187 426.353240373 302.015625 423.826171875 c 0,9,10
 313.356445312 411.0546875 313.356445312 411.0546875 320.413085938 393.173828125 c 128,-1,11
 327.46875 375.293945312 327.46875 375.293945312 328.98046875 352.109375 c 0,12,13
 329.485351562 313.205078125 329.485351562 313.205078125 316.883789062 284.125 c 0,14,15
 306.769394516 260.783426226 306.769394516 260.783426226 291.134276759 243.518171581 c 1,16,-1
 338 200 l 1,17,-1
 313 173 l 1,18,-1
 266.007115934 221.701716214 l 1,19,20
 251.592917724 211.826106581 251.592917724 211.826106581 234.978515625 205.53125 c 0,21,22
 208.013671875 195.314453125 208.013671875 195.314453125 179.787109375 194.921875 c 128,-1,23
 151.561523438 194.528320312 151.561523438 194.528320312 123.587890625 202.780273438 c 0,24,25
 106.621673734 207.785736832 106.621673734 207.785736832 91.8801668724 216.332487401 c 1,26,-1
 47 168 l 1,27,-1
 20 193 l 1,28,-1
 65.1705574622 236.585625621 l 1,29,30
 49.2046713599 252.457178806 49.2046713599 252.457178806 39.162109375 274.694335938 c 0,31,32
 26.5625 302.594726562 26.5625 302.594726562 29.5849609375 341.106445312 c 0,33,34
 31.6025390625 377.258789062 31.6025390625 377.258789062 44.9580078125 400.837890625 c 0,35,36
 50.8638830523 411.26233469 50.8638830523 411.26233469 57.6072700811 419.843374643 c 1,37,-1
 15 464 l 1,38,-1
 39 486 l 1,39,-1
 83.8250623202 444.376727846 l 1,40,41
 98.7390219732 454.524263698 98.7390219732 454.524263698 117.5390625 461.157226562 c 0,42,43
 141.481445312 469.606445312 141.481445312 469.606445312 174.747070312 470 c 0,0,1
275.887695312 329.912109375 m 0,44,45
 278.15625 355.022460938 278.15625 355.022460938 272.486328125 373.060546875 c 128,-1,46
 266.81640625 391.098632812 266.81640625 391.098632812 256.610351562 403.830078125 c 128,-1,47
 246.403320312 416.5625 246.403320312 416.5625 234.154296875 424.51953125 c 128,-1,48
 221.90625 432.477539062 221.90625 432.477539062 207.84375 436.8984375 c 128,-1,49
 193.78125 441.319335938 193.78125 441.319335938 176.543945312 441.673828125 c 0,50,51
 174.275390625 441.673828125 174.275390625 441.673828125 167.245117188 441.497070312 c 128,-1,52
 160.212890625 441.319335938 160.212890625 441.319335938 150.9140625 439.727539062 c 128,-1,53
 141.615234375 438.13671875 141.615234375 438.13671875 131.861328125 434.0703125 c 128,-1,54
 122.108398438 430.000976562 122.108398438 430.000976562 111.674804688 422.3984375 c 128,-1,55
 101.241210938 414.794921875 101.241210938 414.794921875 93.529296875 399.938476562 c 128,-1,56
 85.818359375 385.084960938 85.818359375 385.084960938 82.6435546875 363.51171875 c 0,57,58
 77.6533203125 330.974609375 77.6533203125 330.974609375 85.3642578125 304.625 c 128,-1,59
 93.076171875 278.276367188 93.076171875 278.276367188 108.046875 259.708007812 c 128,-1,60
 123.015625 241.140625 123.015625 241.140625 142.974609375 231.4140625 c 128,-1,61
 162.935546875 221.689453125 162.935546875 221.689453125 182.440429688 222.395507812 c 0,62,63
 192.419921875 222.395507812 192.419921875 222.395507812 206.936523438 225.40234375 c 128,-1,64
 221.453125 228.407226562 221.453125 228.407226562 235.516601562 239.018554688 c 128,-1,65
 249.578125 249.62890625 249.578125 249.62890625 260.91796875 271.026367188 c 128,-1,66
 272.258789062 292.423828125 272.258789062 292.423828125 275.887695312 329.912109375 c 0,44,45
EndSplineSet
EndChar

StartChar: onequarter
Encoding: 188 188 213
Width: 500
Flags: W
LayerCount: 2
Fore
SplineSet
427 820 m 5,0,-1
 480 792 l 5,1,-1
 38 65 l 5,2,-1
 3 97 l 5,3,-1
 427 820 l 5,0,-1
EndSplineSet
Refer: 199 8308 N 1 0 0 1 257 -516 2
Refer: 197 185 N 1 0 0 1 3 21 2
EndChar

StartChar: onehalf
Encoding: 189 189 214
Width: 501
Flags: W
LayerCount: 2
Fore
SplineSet
427 820 m 5,0,-1
 480 792 l 5,1,-1
 38 65 l 5,2,-1
 3 97 l 5,3,-1
 427 820 l 5,0,-1
EndSplineSet
Refer: 171 178 N 1 0 0 1 247 -516 2
Refer: 197 185 N 1 0 0 1 0 0 2
EndChar

StartChar: threequarters
Encoding: 190 190 215
Width: 500
Flags: W
LayerCount: 2
Fore
SplineSet
427 820 m 5,0,-1
 480 792 l 5,1,-1
 38 65 l 5,2,-1
 3 97 l 5,3,-1
 427 820 l 5,0,-1
EndSplineSet
Refer: 199 8308 N 1 0 0 1 257 -516 2
Refer: 196 179 N 1 0 0 1 0 0 2
EndChar

StartChar: uni0404
Encoding: 1028 1028 227
AltUni2: 000454.ffffffff.0
Width: 511
Flags: W
LayerCount: 2
Fore
SplineSet
475 39 m 1,0,1
 386 -6 386 -6 287.5 4 c 128,-1,2
 189 14 189 14 122 67 c 128,-1,3
 55 120 55 120 31.5 190.5 c 128,-1,4
 8 261 8 261 5 346 c 0,5,6
 3 429 3 429 21.5 488.5 c 128,-1,7
 40 548 40 548 71.5 587.5 c 128,-1,8
 103 627 103 627 143 651 c 128,-1,9
 183 675 183 675 226 686 c 0,10,11
 330 713 330 713 457 692 c 1,12,-1
 428 554 l 1,13,-1
 389 626.927734375 l 1,14,15
 321 651 321 651 264 644 c 0,16,17
 234 640 234 640 204.5 624.5 c 128,-1,18
 175 609 175 609 151.5 577.5 c 128,-1,19
 128 546 128 546 111.5 494 c 0,20,21
 96 445 96 445 91.5712890625 374 c 1,22,-1
 362 374 l 1,23,-1
 362 319 l 1,24,-1
 89.6337890625 319 l 1,25,26
 90 270 90 270 99 225 c 0,27,28
 112 159 112 159 136 126 c 128,-1,29
 160 93 160 93 192.5 80 c 128,-1,30
 225 67 225 67 277 62 c 1,31,32
 341 61 341 61 455 100 c 1,33,-1
 475 39 l 1,0,1
EndSplineSet
Substitution2: "mark-downsizer-1" uni0404.mark
EndChar

StartChar: uni0490
Encoding: 1168 1168 231
AltUni2: 000491.ffffffff.0
Width: 487
Flags: W
LayerCount: 2
Fore
SplineSet
450 772 m 21,0,1
 403 700 403 700 392.5 694.5 c 128,-1,2
 382 689 382 689 0 700 c 1,3,-1
 1 649 l 1,4,-1
 37 648 l 1,5,-1
 33 24 l 1,6,7
 20 13 20 13 5 -1 c 1,8,-1
 167 -1 l 1,9,10
 130 23 130 23 123.5 30.5 c 128,-1,11
 117 38 117 38 116 40 c 0,12,13
 115 41 115 41 114 68.5 c 128,-1,14
 113 96 113 96 98 649 c 1,15,16
 167 649 167 649 452 639 c 1,17,-1
 450 772 l 21,0,1
EndSplineSet
Substitution2: "mark-downsizer-1" uni0490.mark
EndChar

StartChar: Tbar
Encoding: 358 358 335
AltUni2: 000167.ffffffff.0
Width: 550
Flags: W
LayerCount: 2
Fore
SplineSet
122 360 m 25,0,-1
 374 380 l 29,1,-1
 348 332 l 25,2,-1
 154 324 l 25,3,-1
 122 360 l 25,0,-1
EndSplineSet
Refer: 52 84 N 1 0 0 1 0 0 2
EndChar

StartChar: Hbar
Encoding: 294 294 336
AltUni2: 000127.ffffffff.0
Width: 614
Flags: W
LayerCount: 2
Fore
SplineSet
0 519 m 5,0,-1
 589 528 l 1,1,-1
 569 493 l 1,2,-1
 35 481 l 1,3,-1
 0 519 l 5,0,-1
EndSplineSet
Refer: 40 72 N 1 0 0 1 78 0 2
EndChar

StartChar: Eng
Encoding: 330 330 345
AltUni2: 00014b.ffffffff.0
Width: 530
Flags: W
AnchorPoint: "bottom" 237 -61 basechar 0
AnchorPoint: "bottomattside" 476 25 basechar 0
AnchorPoint: "top" 217 687 basechar 0
LayerCount: 2
Fore
SplineSet
477.032374101 -6.59826095958 m 1,0,1
 475 -157 475 -157 340 -157 c 0,2,3
 255 -157 255 -157 223 -59 c 0,4,-1
 282 -57 l 0,5,6
 286 -113 286 -113 340 -113 c 0,7,8
 427 -113 427 -113 425 3 c 2,9,-1
 423.653357532 73 l 1,10,-1
 63 553 l 1,11,12
 82 44 82 44 83 43 c 0,13,14
 87 39 87 39 94 30 c 0,15,16
 98 24 98 24 111 16 c 0,17,18
 122 8 122 8 135 1 c 1,19,-1
 0 1 l 1,20,-1
 28 33 l 1,21,-1
 6 660 l 1,22,-1
 80 663 l 1,23,-1
 423 199 l 1,24,25
 417 659 417 659 416 660 c 0,26,27
 413 663 413 663 406 670 c 0,28,29
 394 682 394 682 391 684 c 2,30,-1
 370 698 l 1,31,-1
 471 699 l 1,32,-1
 477.032374101 -6.59826095958 l 1,0,1
EndSplineSet
EndChar
